<?xml version="1.0" encoding="UTF-8"?>
<svg xmlns="http://www.w3.org/2000/svg" version="1.1" xmlns:xlink="http://www.w3.org/1999/xlink" viewBox="0 0 400 400">
  <!-- Generator: Adobe Illustrator 29.0.1, SVG Export Plug-In . SVG Version: 2.1.0 Build 192)  -->
  <defs>
    <style>
      .st0 {
        fill: url(#radial-gradient2);
      }

      .st0, .st1, .st2, .st3, .st4, .st5, .st6, .st7, .st8, .st9 {
        fill-rule: evenodd;
      }

      .st0, .st1, .st5 {
        mix-blend-mode: multiply;
      }

      .st1 {
        fill: url(#radial-gradient1);
      }

      .st2 {
        fill: url(#radial-gradient5);
      }

      .st2, .st3, .st6, .st7 {
        mix-blend-mode: screen;
      }

      .st2, .st7 {
        opacity: .5;
      }

      .st10 {
        isolation: isolate;
      }

      .st3 {
        fill: url(#radial-gradient4);
      }

      .st4 {
        fill: url(#linear-gradient1);
      }

      .st5 {
        fill: url(#radial-gradient);
      }

      .st6 {
        fill: url(#radial-gradient3);
      }

      .st7 {
        fill: url(#radial-gradient6);
      }

      .st8 {
        fill: url(#linear-gradient);
      }

      .st9 {
        fill: url(#linear-gradient2);
      }
    </style>
    <radialGradient id="radial-gradient" cx="193.2" cy="238.46" fx="193.2" fy="238.46" r="311.21" gradientUnits="userSpaceOnUse">
      <stop offset="0" stop-color="#706f6f"/>
      <stop offset="1" stop-color="#fff"/>
    </radialGradient>
    <linearGradient id="linear-gradient" x1="200.01" y1="316.88" x2="200.01" y2="80.3" gradientUnits="userSpaceOnUse">
      <stop offset="0" stop-color="#edd6b9"/>
      <stop offset="1" stop-color="#d4b492"/>
    </linearGradient>
    <radialGradient id="radial-gradient1" cx="40.6" cy="319.81" fx="40.6" fy="319.81" r="49.49" gradientUnits="userSpaceOnUse">
      <stop offset="0" stop-color="#a48a7b"/>
      <stop offset="1" stop-color="#fff"/>
    </radialGradient>
    <radialGradient id="radial-gradient2" cx="365.51" cy="92.55" fx="365.51" fy="92.55" r="21.92" xlink:href="#radial-gradient1"/>
    <linearGradient id="linear-gradient1" x1="46.82" y1="307.48" x2="52.75" y2="293.52" gradientUnits="userSpaceOnUse">
      <stop offset="0" stop-color="#bf9f7e"/>
      <stop offset="1" stop-color="#edd6b9"/>
    </linearGradient>
    <linearGradient id="linear-gradient2" x1="363.7" y1="91.44" x2="354.3" y2="100.84" xlink:href="#linear-gradient1"/>
    <radialGradient id="radial-gradient3" cx="44.6" cy="316.03" fx="44.6" fy="316.03" r="40.37" gradientUnits="userSpaceOnUse">
      <stop offset="0" stop-color="#000"/>
      <stop offset="1" stop-color="#a3805f"/>
    </radialGradient>
    <radialGradient id="radial-gradient4" cx="367.92" cy="86.01" fx="367.92" fy="86.01" r="26.31" xlink:href="#radial-gradient3"/>
    <radialGradient id="radial-gradient5" cx="199.38" cy="199.76" fx="199.38" fy="199.76" r="252.33" gradientUnits="userSpaceOnUse">
      <stop offset="0" stop-color="#ca9e67"/>
      <stop offset="1" stop-color="#000"/>
    </radialGradient>
    <radialGradient id="radial-gradient6" cx="197.36" cy="201.23" fx="197.36" fy="201.23" r="135.85" xlink:href="#radial-gradient5"/>
  </defs>
  <g class="st10">
    <g id="Layer_1">
      <g>
        <path class="st5" d="M68.23,322.36c70.3-1.8,231.38-2.9,294.94.28,1.45.07,3.37.24,4.43-.76,1.06-1,.98-2.88,1-4.33.07-4.8.36-10.3.16-14.13l-14.06-1.25,13.84-3.28c-1.29-26.19-2.19-52.57-2.65-79.02l-7.5-2.61,7.42-2.48c-.58-37.67,2.16-72.86,3.49-110.43-3.94-9.75-7.88-16.69-13.11-24.69-.95-1.46-2.44-2.5-4.18-2.34-28.09,2.52-264.15,5.29-314.79,2.76-2.75-.14-4.95,2.3-5.02,5.05-.27,11.06.94,18.24,1.32,28.78l5.45,3.45-2.45,3.22.45,2.48-3.07,2.15c1.17,39.21,1.04,78.27-.36,117.18l4.11,2.14-2.06,3.78,5.81,2.95-8.3,2.11c-.66,15.58-3.05,31.29-3.16,46.46,8.39,8.83,25.16,18.2,38.3,22.52h0Z"/>
        <g>
          <path class="st8" d="M68.44,315.51c10.46,2.52,265.07,1.27,305.3-1.51-.32-5.14-.61-10.28-.89-15.44l-14.4-1.2,14.17-3.13c-1.32-24.98-2.24-50.14-2.72-75.36l-7.68-2.49,7.6-2.36c-.6-35.93-.29-71.98,1.08-107.81-6.1-8.54-12.2-17.09-18.31-25.63-2.52-1.07-283.61.97-324.83,2.51.7,11.59,1.28,23.16,1.72,34.72l5.58,3.29-2.51,3.07.46,2.37-3.15,2.05c1.2,37.4,1.07,74.65-.37,111.76l4.21,2.04-2.11,3.6,5.95,2.82-8.5,2.02c-.7,15.39-1.62,30.76-2.77,46.1,14.06,6.21,28.11,12.39,42.17,18.57h0Z"/>
          <path class="st1" d="M68.42,315.5c-14.05-6.18-28.11-12.36-42.17-18.54,1.31-2.02,14.46-12.41,16.25-12.6,1.73-.18,21.54,27.32,25.91,31.14h0Z"/>
          <path class="st0" d="M370.88,106.22c-4.21-2.01-22.19-4.94-23.02-6.77-.66-1.45,3.76-13.77,4.72-18.85,6.1,8.54,12.2,17.09,18.31,25.63h0Z"/>
          <path class="st4" d="M40,288.71c8.86,9.16,19.21,19.3,28.44,26.8-3.11,0-42.19-15.49-42.19-18.55,4.21-3.12,8.73-5.93,13.74-8.25h0Z"/>
          <path class="st9" d="M370.88,106.22c-7.21-3.24-14.46-6.41-21.4-10.21,1.36-5.06,2.27-10.23,3.1-15.42,1.78,0,18.31,23.72,18.31,25.63h0Z"/>
          <path class="st6" d="M59.65,311.64c-2.42-8.78-21.32-19.5-27.71-18.56,2.55-1.59,5.23-3.06,8.06-4.37,8.84,9.13,19.16,19.25,28.37,26.74-.75.06-4.06-1.02-8.5-2.66-.04-.38-.11-.76-.22-1.15h0Z"/>
          <path class="st3" d="M352.34,94.29c2.12,4.89,11.37,8.36,16.99,9.75.22.05.43.1.63.15.59,1.04.93,1.76.93,2.03-.17-.08-.37-.17-.58-.26-7.02-3.15-14.07-6.25-20.82-9.94,1.36-5.06,2.27-10.23,3.1-15.42.11,0,.27.09.49.26-.03.09-.07.19-.1.29-1.15,3.48-2.07,9.82-.63,13.15h0Z"/>
          <path class="st2" d="M73.46,310.78c-5-2-6.83-6.22-9.52-12.68-7.68-18.49-17.72-15.17-25.76-20.21-5.37-3.37-7.05-13.54,2.87-27.2,9.17-12.62-7.47-26.57-6.89-52.98.38-16.91,9.44-43.63,10.92-51.5,1.37-7.28,3.08-11.16-3.81-21.52-2.66-4,.33-5.86-6.19-16.01-3.42-5.32-2.33-9.08,1.02-11.82,19.76-16.14,70.19-5.85,92.48-3.73,10.16.96,17.5-5.52,34.23-3.91,29.92,2.87,25.3-11.78,68.33,5.9,28.09,11.54,32.86-7.36,56.71-5.35,11.98,1.01,16.03-1.63,23.66-2.51,5.89-.68,12.05-1.65,17.14-.12,10.55,3.16,5.57,13.63,14.66,20.05,13.08,9.23,27.32-3.65,20.84,23.22-3.26,13.5-7.09,29.21-.95,45.94,1.77,4.83,1.74,17.01-.26,21.47-7.98,17.8-15.36,15.03-4.76,25.2,8.64,8.29-3.52,15.11,2.71,24.4,6.03,8.99,3.16,17.72-3.52,36.09-.91,2.49,3.59,5.55-4.79,10.44-5.85,3.41,14.88,13.2-31.96,13.2-13.3,0-17.39,4.71-30.81,4.3-23.14-.69-36.58-7.24-65.22-4.7-18.7,1.66-28.03,4.38-48.01,3.52-11.87-.51-14.32,3.28-30.49-1.46-24.55-7.2-50.38,10.86-72.63,1.98h0Z"/>
          <path class="st7" d="M52.7,275.59c-6.44-5.81-9.53-10.23-5.1-26.4,6.59-24.03-6.33-30.1-7.74-45.06-1.82-19.18-.32-9.8,6.59-23.34,4.27-8.36-7.14-10.97,6.11-26.68,9.85-11.69,7.47-21.2-1.51-31.9-7.27-8.66-8.11-20.53-.32-26.28,12.16-8.97,26.08,1.17,35.63,1.75,2.87.17,6.54-.51,12.57-2.84,6.87-2.66,24.21,7.19,37.77,7.19,16.59,0,34.26-9.45,58.25-9.45s32.01,21.22,53.6,12.31c2.4-.99,17.63,9.01,39.35-2.36,17.29-9.05,40.95-5.1,45.82,3.95,1.33,2.47,10.45.36,12.07,14.46.71,6.14,15.96,10.08,6.93,26.65-1.66,3.04-2.8,20.58.16,25.84,3.39,6.02,3.38,19.49-.16,24.71-10.01,14.77,4.3,26.9-3.06,37.64-7.45,10.87-1.08,19.54-1.08,27.84,0,17.45-6.19,6.86-2.72,23.89,3.03,14.85-9.23,16.89-22.15,13.91-3.8-.88-7.04-1.74-15.1,4.14-12.13,8.84-29.77,3.19-43.66-1.01-19.3-5.83-32.02-5.53-52.15.41-13.67,4.03-36.11-10.1-58.78-2.02-19.79,7.05-28.49-8.28-42.86,1.11-11.02,7.2-21.67,5.4-26.49.53-6.15-6.22,1.03,1.57-8.5-11.52-9.19-12.63-20.22-14.5-23.49-17.45h0Z"/>
        </g>
      </g>
    </g>
  </g>
</svg>