<?xml version="1.0" encoding="UTF-8"?>
<svg xmlns="http://www.w3.org/2000/svg" version="1.1" xmlns:xlink="http://www.w3.org/1999/xlink" viewBox="0 0 400 400">
  <!-- Generator: Adobe Illustrator 29.0.1, SVG Export Plug-In . SVG Version: 2.1.0 Build 192)  -->
  <defs>
    <style>
      .st0 {
        fill: url(#linear-gradient9);
      }

      .st0, .st1, .st2, .st3, .st4, .st5, .st6, .st7, .st8, .st9, .st10, .st11, .st12, .st13, .st14, .st15, .st16, .st17, .st18, .st19, .st20, .st21 {
        fill-rule: evenodd;
      }

      .st1 {
        fill: url(#linear-gradient10);
      }

      .st2 {
        fill: url(#radial-gradient7);
      }

      .st2, .st5, .st6, .st7, .st8, .st10, .st16, .st17, .st20 {
        mix-blend-mode: screen;
      }

      .st3 {
        fill: #fff;
      }

      .st4 {
        fill: url(#linear-gradient6);
      }

      .st5 {
        fill: url(#radial-gradient8);
      }

      .st6 {
        fill: url(#radial-gradient);
      }

      .st7 {
        fill: url(#radial-gradient6);
      }

      .st22 {
        isolation: isolate;
      }

      .st8 {
        fill: url(#radial-gradient1);
      }

      .st9 {
        fill: url(#linear-gradient8);
      }

      .st10 {
        fill: url(#radial-gradient4);
      }

      .st11 {
        fill: url(#linear-gradient5);
      }

      .st12 {
        fill: url(#linear-gradient1);
      }

      .st13 {
        fill: url(#linear-gradient11);
      }

      .st14 {
        fill: url(#linear-gradient7);
      }

      .st15 {
        fill: url(#linear-gradient4);
      }

      .st16 {
        fill: url(#radial-gradient3);
      }

      .st17 {
        fill: url(#radial-gradient2);
      }

      .st18 {
        fill: url(#linear-gradient3);
      }

      .st19 {
        fill: url(#linear-gradient);
      }

      .st20 {
        fill: url(#radial-gradient5);
      }

      .st21 {
        fill: url(#linear-gradient2);
      }
    </style>
    <linearGradient id="linear-gradient" x1="288.33" y1="274.16" x2="404.61" y2="274.16" gradientUnits="userSpaceOnUse">
      <stop offset="0" stop-color="#d95416"/>
      <stop offset=".05" stop-color="#ffa142"/>
      <stop offset=".06" stop-color="#fc9b3e"/>
      <stop offset=".1" stop-color="#ef812f"/>
      <stop offset=".16" stop-color="#e56d24"/>
      <stop offset=".21" stop-color="#de5e1c"/>
      <stop offset=".28" stop-color="#da5617"/>
      <stop offset=".4" stop-color="#d95416"/>
      <stop offset=".47" stop-color="#d95416"/>
      <stop offset=".6" stop-color="#f78614"/>
      <stop offset=".74" stop-color="#f78716"/>
      <stop offset=".82" stop-color="#f88c1e"/>
      <stop offset=".89" stop-color="#fb942d"/>
      <stop offset=".95" stop-color="#fea041"/>
      <stop offset=".95" stop-color="#ffa142"/>
      <stop offset="1" stop-color="#d95416"/>
    </linearGradient>
    <linearGradient id="linear-gradient1" x1="346.47" y1="285.5" x2="346.47" y2="114.17" gradientUnits="userSpaceOnUse">
      <stop offset="0" stop-color="#ff9d00"/>
      <stop offset="1" stop-color="#ffe017"/>
    </linearGradient>
    <linearGradient id="linear-gradient2" x1="256.75" y1="209.31" x2="294.79" y2="209.31" gradientUnits="userSpaceOnUse">
      <stop offset="0" stop-color="#d95416"/>
      <stop offset=".05" stop-color="#ffa142"/>
      <stop offset=".07" stop-color="#fc963d"/>
      <stop offset=".13" stop-color="#f78234"/>
      <stop offset=".2" stop-color="#f4732d"/>
      <stop offset=".27" stop-color="#f26b2a"/>
      <stop offset=".41" stop-color="#f26929"/>
      <stop offset="1" stop-color="#d95416"/>
    </linearGradient>
    <linearGradient id="linear-gradient3" x1="398.15" y1="209.31" x2="436.19" y2="209.31" gradientUnits="userSpaceOnUse">
      <stop offset="0" stop-color="#d95416"/>
      <stop offset=".6" stop-color="#d95416"/>
      <stop offset=".72" stop-color="#da5617"/>
      <stop offset=".79" stop-color="#de5e1c"/>
      <stop offset=".84" stop-color="#e56d24"/>
      <stop offset=".9" stop-color="#ef812f"/>
      <stop offset=".94" stop-color="#fc9b3e"/>
      <stop offset=".95" stop-color="#ffa142"/>
      <stop offset="1" stop-color="#d95416"/>
    </linearGradient>
    <radialGradient id="radial-gradient" cx="302.46" cy="275.67" fx="302.46" fy="275.67" r="272.96" gradientUnits="userSpaceOnUse">
      <stop offset="0" stop-color="#fc0"/>
      <stop offset="1" stop-color="#915200"/>
    </radialGradient>
    <radialGradient id="radial-gradient1" cx="263.57" cy="185.05" fx="263.57" fy="185.05" r="146.07" xlink:href="#radial-gradient"/>
    <radialGradient id="radial-gradient2" cx="481.84" cy="195.15" fx="481.84" fy="195.15" r="117.59" xlink:href="#radial-gradient"/>
    <linearGradient id="linear-gradient4" x1="-3.31" y1="273.79" x2="117.74" y2="273.79" xlink:href="#linear-gradient"/>
    <linearGradient id="linear-gradient5" x1="57.22" y1="285.6" x2="57.22" y2="107.23" xlink:href="#linear-gradient1"/>
    <linearGradient id="linear-gradient6" x1="-36.19" y1="206.28" x2="3.41" y2="206.28" xlink:href="#linear-gradient2"/>
    <linearGradient id="linear-gradient7" x1="111.02" y1="206.28" x2="150.62" y2="206.28" xlink:href="#linear-gradient3"/>
    <radialGradient id="radial-gradient3" cx="11.39" cy="275.37" fx="11.39" fy="275.37" r="284.17" xlink:href="#radial-gradient"/>
    <radialGradient id="radial-gradient4" cx="-29.09" cy="181.02" fx="-29.09" fy="181.02" r="152.07" xlink:href="#radial-gradient"/>
    <radialGradient id="radial-gradient5" cx="198.15" cy="191.53" fx="198.15" fy="191.53" r="122.42" xlink:href="#radial-gradient"/>
    <linearGradient id="linear-gradient8" x1="124.9" y1="276.88" x2="271.62" y2="276.88" xlink:href="#linear-gradient"/>
    <linearGradient id="linear-gradient9" x1="198.26" y1="291.19" x2="198.26" y2="74.99" xlink:href="#linear-gradient1"/>
    <linearGradient id="linear-gradient10" x1="85.05" y1="195.05" x2="133.05" y2="195.05" xlink:href="#linear-gradient2"/>
    <linearGradient id="linear-gradient11" x1="263.48" y1="195.05" x2="311.47" y2="195.05" xlink:href="#linear-gradient3"/>
    <radialGradient id="radial-gradient6" cx="142.72" cy="278.79" fx="142.72" fy="278.79" r="344.44" xlink:href="#radial-gradient"/>
    <radialGradient id="radial-gradient7" cx="93.65" cy="164.43" fx="93.65" fy="164.43" r="184.32" xlink:href="#radial-gradient"/>
    <radialGradient id="radial-gradient8" cx="369.08" cy="177.18" fx="369.08" fy="177.18" r="148.39" xlink:href="#radial-gradient"/>
  </defs>
  <g class="st22">
    <g id="Layer_1">
      <g>
        <path class="st19" d="M404.61,291.41v-12.88l-58.14-28.6-58.14,28.5v12.97c.01,2.23,1.05,4.24,2.91,5.6,2.16,1.57,4.81,1.8,7.21.65l13.08-6.3,28.8-13.88c4-1.93,8.25-1.93,12.25,0l28.87,13.91,13.02,6.27c2.4,1.16,5.06.92,7.21-.65,1.86-1.36,2.9-3.37,2.91-5.6h0Z"/>
        <path class="st12" d="M352.68,117.88l22.03,40.95c2.11,3.91,5.54,6.41,9.91,7.2l45.75,8.3c2.62.48,4.63,2.23,5.45,4.76.82,2.53.23,5.13-1.61,7.06l-32.13,33.6c-3.07,3.21-4.38,7.25-3.79,11.65l6.25,46.07c.36,2.64-.69,5.09-2.84,6.66-2.16,1.57-4.81,1.81-7.21.65l-41.89-20.18c-4-1.93-8.25-1.93-12.25,0l-41.89,20.18c-2.4,1.16-5.06.92-7.21-.65-2.16-1.57-3.2-4.02-2.84-6.66l6.25-46.07c.6-4.4-.71-8.44-3.79-11.65l-32.13-33.6c-1.84-1.93-2.43-4.52-1.61-7.06.82-2.54,2.83-4.29,5.45-4.76l45.75-8.3c4.37-.79,7.81-3.29,9.91-7.2l22.03-40.95c1.26-2.35,3.55-3.71,6.21-3.71s4.95,1.37,6.22,3.71h0Z"/>
        <path class="st21" d="M290.86,219.75l-32.13-33.6c-1.29-1.35-1.97-3.02-1.98-4.77v12.88c0,1.75.69,3.43,1.98,4.77l32.13,33.6c1.33,1.39,2.34,2.95,2.99,4.61l.79-5.84c.6-4.4-.71-8.44-3.79-11.65h0Z"/>
        <path class="st18" d="M434.21,186.15l-32.13,33.6c-3.07,3.21-4.38,7.25-3.79,11.65l.79,5.84c.66-1.67,1.66-3.22,2.99-4.61l32.13-33.6c1.29-1.35,1.97-3.02,1.97-4.77v-12.88c0,1.75-.69,3.43-1.97,4.77h0Z"/>
        <path class="st6" d="M352.59,264.6c-4-1.93-8.25-1.93-12.25,0l-41.89,20.18c-2.4,1.16-5.06.92-7.21-.65-1.45-1.06-2.4-2.51-2.76-4.15.03,2.2,1.06,4.19,2.91,5.53,2.15,1.56,4.8,1.8,7.19.65l41.77-20.12c3.99-1.92,8.23-1.92,12.22,0l41.77,20.12c2.4,1.15,5.04.92,7.19-.65,1.85-1.34,2.88-3.33,2.91-5.53-.36,1.64-1.31,3.1-2.76,4.15-2.16,1.57-4.81,1.81-7.21.65l-41.89-20.18h0Z"/>
        <path class="st8" d="M290.86,219.75l-32.13-33.6c-.85-.88-1.43-1.91-1.73-3,.04,1.71.71,3.34,1.97,4.65l32.05,33.51c2.08,2.18,3.35,4.73,3.77,7.53-.12-3.4-1.45-6.51-3.92-9.08h0Z"/>
        <path class="st17" d="M402.08,219.75l32.13-33.6c.85-.88,1.43-1.91,1.73-3-.04,1.71-.71,3.34-1.97,4.65l-32.05,33.51c-2.08,2.18-3.35,4.73-3.77,7.53.12-3.4,1.45-6.51,3.92-9.08h0Z"/>
        <path class="st3" d="M293.33,286.51c-2.56-.58-4.22-3.14-3.72-4.02.5-.88,1.29,1.41,4.15,2.22,2.86.81,4.64-1.01,4.7.06.06,1.07-2.57,2.31-5.13,1.73h0Z"/>
        <path class="st3" d="M399.61,286.51c2.56-.58,4.21-3.14,3.72-4.02-.5-.88-1.29,1.41-4.15,2.22-2.86.81-4.63-1.01-4.7.06-.06,1.07,2.57,2.31,5.13,1.73h0Z"/>
      </g>
      <g>
        <path class="st15" d="M117.74,291.75v-13.41l-60.53-29.77-60.53,29.67v13.51c.02,2.32,1.09,4.42,3.03,5.83,2.24,1.63,5.01,1.88,7.51.67l13.62-6.56,29.99-14.44c4.17-2.01,8.59-2.01,12.75,0l30.05,14.48,13.55,6.53c2.5,1.2,5.26.96,7.51-.67,1.94-1.41,3.02-3.51,3.03-5.83h0Z"/>
        <path class="st11" d="M63.69,111.09l22.93,42.63c2.19,4.07,5.77,6.67,10.32,7.5l47.63,8.64c2.73.5,4.82,2.32,5.68,4.96.86,2.64.24,5.34-1.68,7.35l-33.45,34.98c-3.2,3.34-4.56,7.55-3.94,12.13l6.5,47.96c.37,2.75-.72,5.3-2.96,6.93-2.24,1.63-5.01,1.88-7.51.67l-43.61-21.01c-4.17-2.01-8.59-2.01-12.75,0l-43.61,21.01c-2.5,1.2-5.26.96-7.51-.67-2.24-1.63-3.34-4.18-2.96-6.93l6.5-47.96c.62-4.58-.74-8.79-3.94-12.13l-33.45-34.98c-1.92-2.01-2.53-4.71-1.68-7.35.86-2.64,2.95-4.46,5.68-4.96l47.63-8.64c4.55-.82,8.13-3.42,10.32-7.5l22.93-42.63c1.31-2.44,3.69-3.87,6.47-3.87s5.16,1.42,6.47,3.87h0Z"/>
        <path class="st4" d="M-.68,217.14l-33.45-34.98c-1.34-1.4-2.05-3.14-2.06-4.97v13.41c0,1.82.72,3.57,2.06,4.97L-.68,230.55c1.39,1.45,2.43,3.07,3.12,4.8l.82-6.08c.62-4.58-.74-8.79-3.94-12.13h0Z"/>
        <path class="st14" d="M148.56,182.16l-33.45,34.98c-3.2,3.34-4.56,7.55-3.94,12.13l.82,6.08c.69-1.74,1.73-3.35,3.12-4.8l33.45-34.98c1.34-1.4,2.06-3.15,2.06-4.97v-13.41c0,1.82-.71,3.57-2.06,4.97h0Z"/>
        <path class="st16" d="M63.59,263.84c-4.17-2.01-8.59-2.01-12.75,0l-43.61,21.01c-2.5,1.2-5.26.96-7.51-.67-1.51-1.1-2.5-2.61-2.87-4.32.03,2.29,1.1,4.37,3.02,5.76,2.24,1.63,4.99,1.87,7.49.67l43.49-20.95c4.16-2,8.56-2,12.72,0l43.49,20.95c2.49,1.2,5.25.95,7.49-.67,1.92-1.4,2.99-3.47,3.02-5.76-.37,1.71-1.36,3.23-2.87,4.32-2.24,1.63-5.01,1.88-7.51.67l-43.61-21.01h0Z"/>
        <path class="st10" d="M-.68,217.14l-33.45-34.98c-.88-.92-1.49-1.99-1.8-3.13.04,1.78.74,3.47,2.05,4.84L-.52,218.76c2.17,2.27,3.49,4.93,3.92,7.84-.13-3.54-1.51-6.77-4.08-9.46h0Z"/>
        <path class="st20" d="M115.11,217.14l33.45-34.98c.88-.92,1.49-1.99,1.8-3.13-.04,1.78-.74,3.47-2.05,4.84l-33.36,34.89c-2.17,2.27-3.49,4.93-3.92,7.84.13-3.54,1.51-6.77,4.08-9.46h0Z"/>
        <path class="st3" d="M1.89,286.65c-2.67-.6-4.39-3.26-3.87-4.18.52-.92,1.35,1.47,4.32,2.31,2.98.85,4.83-1.05,4.89.07.06,1.12-2.68,2.4-5.34,1.8h0Z"/>
        <path class="st3" d="M112.54,286.65c2.67-.6,4.39-3.26,3.87-4.18-.52-.92-1.35,1.47-4.32,2.31-2.97.85-4.82-1.05-4.89.07-.06,1.12,2.67,2.4,5.34,1.8h0Z"/>
      </g>
      <g>
        <path class="st9" d="M271.62,298.65v-16.25l-73.36-36.08-73.36,35.97v16.37c.02,2.81,1.32,5.36,3.68,7.07,2.72,1.98,6.07,2.28,9.1.82l16.51-7.95,36.34-17.51c5.05-2.43,10.41-2.43,15.46,0l36.43,17.55,16.43,7.91c3.03,1.46,6.38,1.16,9.1-.82,2.35-1.71,3.66-4.25,3.68-7.07h0Z"/>
        <path class="st0" d="M206.1,79.68l27.8,51.67c2.66,4.94,6.99,8.09,12.51,9.09l57.73,10.47c3.31.6,5.84,2.81,6.88,6.01,1.04,3.2.29,6.48-2.03,8.91l-40.55,42.4c-3.88,4.05-5.53,9.15-4.78,14.7l7.88,58.14c.45,3.33-.87,6.42-3.59,8.4-2.72,1.98-6.07,2.28-9.1.82l-52.86-25.46c-5.05-2.43-10.41-2.43-15.46,0l-52.86,25.46c-3.03,1.46-6.38,1.16-9.1-.82-2.72-1.98-4.04-5.07-3.59-8.4l7.88-58.14c.75-5.56-.9-10.65-4.78-14.7l-40.55-42.4c-2.32-2.43-3.07-5.71-2.03-8.91,1.04-3.2,3.57-5.41,6.88-6.01l57.73-10.47c5.52-1,9.85-4.15,12.51-9.09l27.8-51.67c1.59-2.96,4.48-4.69,7.84-4.69s6.25,1.72,7.84,4.69h0Z"/>
        <path class="st1" d="M128.09,208.22l-40.55-42.4c-1.62-1.7-2.48-3.81-2.49-6.02v16.25c0,2.21.87,4.32,2.49,6.02l40.55,42.4c1.68,1.76,2.95,3.72,3.78,5.82l1-7.37c.75-5.56-.9-10.65-4.78-14.7h0Z"/>
        <path class="st13" d="M308.98,165.82l-40.55,42.4c-3.88,4.05-5.53,9.15-4.78,14.7l1,7.37c.83-2.11,2.09-4.06,3.78-5.82l40.55-42.4c1.62-1.7,2.49-3.81,2.49-6.02v-16.25c-.01,2.21-.87,4.32-2.49,6.02h0Z"/>
        <path class="st7" d="M205.99,264.82c-5.05-2.43-10.41-2.43-15.46,0l-52.86,25.46c-3.03,1.46-6.38,1.16-9.1-.82-1.83-1.33-3.03-3.17-3.48-5.24.04,2.78,1.34,5.29,3.67,6.98,2.71,1.97,6.05,2.27,9.08.82l52.71-25.39c5.04-2.43,10.38-2.43,15.42,0l52.71,25.39c3.02,1.46,6.36,1.16,9.08-.82,2.33-1.69,3.63-4.2,3.67-6.98-.45,2.07-1.65,3.91-3.48,5.24-2.72,1.98-6.07,2.28-9.1.82l-52.86-25.46h0Z"/>
        <path class="st2" d="M128.09,208.22l-40.55-42.4c-1.07-1.12-1.8-2.41-2.18-3.79.05,2.16.9,4.21,2.48,5.87l40.44,42.29c2.63,2.75,4.23,5.97,4.75,9.5-.15-4.29-1.84-8.21-4.94-11.46h0Z"/>
        <path class="st5" d="M268.43,208.22l40.55-42.4c1.07-1.12,1.8-2.41,2.18-3.79-.05,2.16-.9,4.21-2.48,5.87l-40.44,42.29c-2.63,2.75-4.23,5.97-4.75,9.5.15-4.29,1.84-8.21,4.94-11.46h0Z"/>
        <path class="st3" d="M131.2,292.47c-3.23-.73-5.32-3.96-4.69-5.07.62-1.11,1.63,1.78,5.24,2.8,3.61,1.02,5.85-1.27,5.93.08.08,1.35-3.24,2.91-6.47,2.19h0Z"/>
        <path class="st3" d="M265.32,292.47c3.23-.73,5.32-3.96,4.69-5.07-.63-1.11-1.63,1.78-5.24,2.8-3.61,1.02-5.85-1.27-5.93.08-.08,1.35,3.24,2.91,6.47,2.19h0Z"/>
      </g>
    </g>
  </g>
</svg>