<?xml version="1.0" encoding="UTF-8"?>
<svg xmlns="http://www.w3.org/2000/svg" version="1.1" xmlns:xlink="http://www.w3.org/1999/xlink" viewBox="0 0 400 400">
  <!-- Generator: Adobe Illustrator 29.0.1, SVG Export Plug-In . SVG Version: 2.1.0 Build 192)  -->
  <defs>
    <style>
      .st0 {
        fill: url(#_Áåçûìÿííûé_ãðàäèåíò_1494);
      }

      .st0, .st1, .st2, .st3, .st4, .st5, .st6, .st7, .st8, .st9, .st10, .st11, .st12, .st13, .st14, .st15, .st16, .st17, .st18, .st19, .st20 {
        fill-rule: evenodd;
      }

      .st1 {
        fill: url(#_Áåçûìÿííûé_ãðàäèåíò_1492);
      }

      .st2 {
        fill: #f2774f;
      }

      .st3 {
        fill: url(#_Áåçûìÿííûé_ãðàäèåíò_1495);
      }

      .st4 {
        fill: #e06834;
      }

      .st5 {
        fill: url(#_Áåçûìÿííûé_ãðàäèåíò_1496);
      }

      .st6 {
        fill: #e1774f;
      }

      .st21 {
        isolation: isolate;
      }

      .st7 {
        fill: url(#_Áåçûìÿííûé_ãðàäèåíò_1491);
      }

      .st8 {
        fill: #801b34;
      }

      .st22 {
        mix-blend-mode: multiply;
        opacity: .2;
      }

      .st9 {
        fill: #fcca70;
        mix-blend-mode: soft-light;
      }

      .st10 {
        fill: #a22634;
      }

      .st11 {
        fill: #b64034;
      }

      .st12 {
        fill: #e6774f;
      }

      .st13 {
        fill: url(#_Áåçûìÿííûé_ãðàäèåíò_149);
      }

      .st14 {
        fill: #dc634f;
      }

      .st15 {
        fill: #892334;
      }

      .st16 {
        fill: #ff8b3e;
      }

      .st17 {
        fill: url(#_Áåçûìÿííûé_ãðàäèåíò_1493);
      }

      .st18 {
        fill: url(#_Áåçûìÿííûé_ãðàäèåíò_1497);
      }

      .st19 {
        fill: url(#_Áåçûìÿííûé_ãðàäèåíò_14);
      }

      .st20 {
        fill: #d9772f;
        opacity: .4;
      }
    </style>
    <linearGradient id="_Áåçûìÿííûé_ãðàäèåíò_14" data-name="Áåçûìÿííûé ãðàäèåíò 14" x1="194.62" y1="264.22" x2="194.62" y2="140.71" gradientUnits="userSpaceOnUse">
      <stop offset="0" stop-color="#8c2747"/>
      <stop offset="1" stop-color="#d65731"/>
    </linearGradient>
    <linearGradient id="_Áåçûìÿííûé_ãðàäèåíò_149" data-name="Áåçûìÿííûé ãðàäèåíò 149" x1="92.64" y1="208.84" x2="360.2" y2="208.84" gradientUnits="userSpaceOnUse">
      <stop offset="0" stop-color="#c77cbd"/>
      <stop offset="1" stop-color="#974577"/>
    </linearGradient>
    <linearGradient id="_Áåçûìÿííûé_ãðàäèåíò_1491" data-name="Áåçûìÿííûé ãðàäèåíò 149" x1="106.66" y1="221.25" x2="359.85" y2="221.25" xlink:href="#_Áåçûìÿííûé_ãðàäèåíò_149"/>
    <linearGradient id="_Áåçûìÿííûé_ãðàäèåíò_1492" data-name="Áåçûìÿííûé ãðàäèåíò 149" x1="55.09" y1="197.42" x2="172.01" y2="197.42" xlink:href="#_Áåçûìÿííûé_ãðàäèåíò_149"/>
    <linearGradient id="_Áåçûìÿííûé_ãðàäèåíò_1493" data-name="Áåçûìÿííûé ãðàäèåíò 149" x1="163.88" y1="236.56" x2="331.21" y2="236.56" xlink:href="#_Áåçûìÿííûé_ãðàäèåíò_149"/>
    <linearGradient id="_Áåçûìÿííûé_ãðàäèåíò_1494" data-name="Áåçûìÿííûé ãðàäèåíò 149" x1="209.1" y1="231.9" x2="278.83" y2="231.9" xlink:href="#_Áåçûìÿííûé_ãðàäèåíò_149"/>
    <linearGradient id="_Áåçûìÿííûé_ãðàäèåíò_1495" data-name="Áåçûìÿííûé ãðàäèåíò 149" x1="239.44" y1="184.85" x2="298.56" y2="184.85" xlink:href="#_Áåçûìÿííûé_ãðàäèåíò_149"/>
    <linearGradient id="_Áåçûìÿííûé_ãðàäèåíò_1496" data-name="Áåçûìÿííûé ãðàäèåíò 149" x1="143.97" y1="164.94" x2="226.74" y2="164.94" xlink:href="#_Áåçûìÿííûé_ãðàäèåíò_149"/>
    <linearGradient id="_Áåçûìÿííûé_ãðàäèåíò_1497" data-name="Áåçûìÿííûé ãðàäèåíò 149" x1="33.32" y1="188.49" x2="106.66" y2="188.49" xlink:href="#_Áåçûìÿííûé_ãðàäèåíò_149"/>
  </defs>
  <g class="st21">
    <g id="Layer_1">
      <g>
        <path class="st19" d="M355.79,225.11l-49.61,11.05,46.45-3.6c-1.34,2.7-2.3,4.19-2.3,4.19l-13.71,11.65c-131.85,35.38-283.7.41-283.7.41l-14.03-9.92c-11.37-21.68-11.83-39.35-8.8-52.28h38.37l-37.33-3.88c4.23-13.85,12.08-21.31,12.08-21.31l20.27-9.13c151.25-27.9,276.46,3.46,276.46,3.46l13.77,10.9c11.14,23.91,6.77,45.75,2.07,58.48Z"/>
        <polygon class="st12" points="352.64 232.55 350.4 226.31 306.19 236.15 352.64 232.55"/>
        <g class="st22">
          <path class="st13" d="M92.64,255.9s26.45-57.48,96.07-84.98c69.62-27.51,169.7,7.88,169.7,7.88l1.79,10.38s-94.46-47.53-164.19-17.55c-69.73,29.98-93.84,85.62-93.84,85.62l-9.53-1.34Z"/>
          <path class="st7" d="M106.66,257.83s15.75-46.53,82.05-68.66c66.3-22.13,99.5,12.07,120.7,26.53,21.2,14.46,50.44-6.34,50.44-6.34l-4.06,15.75s-27.1,6.74-44.02-3.62c-16.92-10.37-65.23-52.39-118.14-29.4-52.91,22.99-62.62,68.52-62.62,68.52l-24.36-2.76Z"/>
          <path class="st1" d="M73.39,252.8s26.33-18.02,50.6-48.19c24.26-30.17,31.67-52.07,31.67-52.07l16.36-10.5-14.83.3-25.03,8.32s-29.94,72.53-77.06,98.61l18.3,3.52Z"/>
          <path class="st17" d="M163.88,263.96s21.38-42.16,72.23-53.21c50.85-11.04,95.1,39.05,95.1,39.05l-7.92,1.92s-38.53-51.18-87.37-38.75c-48.85,12.43-67.43,50.99-67.43,50.99h-4.62Z"/>
          <path class="st0" d="M209.1,240.95s12.26-18.46,36.01-20.31c23.75-1.85,33.71,12.07,33.71,12.07,0,0-47.51,16.65-69.73,8.24Z"/>
          <path class="st3" d="M298.56,194.73s-28.21-23.02-59.12-19.05c0,0,39.63-6.35,59.12,19.05Z"/>
          <polygon class="st5" points="143.97 189.17 173.28 151.37 185.55 141.74 193.63 141.56 177.63 150.34 158.34 174.97 200.86 150.34 222.52 140.83 226.74 140.71 206.04 150.34 143.97 189.17"/>
          <path class="st18" d="M35.27,231.23s65.34-33.26,71.39-85.49l-9.54,1.2s-15.27,61.55-63.79,79.36l1.94,4.92Z"/>
        </g>
        <path class="st16" d="M63.49,152.27s49.05-12.69,122.21-17.32c73.16-4.62,154.25,20.77,154.25,20.77,0,0-138.45-28.78-276.46-3.46Z"/>
        <path class="st8" d="M55.09,249.27s157.43,29.34,281.55-.88c0,0-105.18,38.14-281.55.88Z"/>
        <polygon class="st8" points="97.11 186.6 123.06 186.6 178.63 189.17 116.28 189.17 97.11 186.6"/>
        <polygon class="st12" points="30.1 186.6 36.36 183.26 97.11 186.6 67.83 188.44 30.1 186.6"/>
        <polygon class="st8" points="306.19 236.15 288.02 239.49 259.12 248.39 282.65 243.33 306.19 236.15"/>
        <polygon class="st8" points="59.88 238.54 52.02 226.31 59.88 232.43 59.88 238.54"/>
        <polygon class="st8" points="333.48 213.37 329.41 208.84 319.23 187.88 333.48 213.37"/>
        <polygon class="st8" points="327.7 213.37 323.27 211.95 313.83 214.84 327.7 213.37"/>
        <polygon class="st8" points="73.24 177.92 82.8 174.97 106.32 174.97 73.24 177.92"/>
        <polygon class="st8" points="198.42 248.59 209.32 246.96 213.26 249.54 198.42 248.59"/>
        <polygon class="st4" points="193.63 141.56 211.32 145.75 264.09 145.39 226.74 140.71 193.63 141.56"/>
        <polygon class="st4" points="288.93 147.97 306.19 149.29 319.23 152.1 311.38 155.73 288.93 147.97"/>
        <path class="st11" d="M319.23,152.1l16.82,5.46,15.41,11.82,8.74,23.63s.66-12.36-6.48-26.38l-13.77-10.9-20.73-3.63Z"/>
        <path class="st11" d="M31.14,182.71s8.22-14.66,16.08-20.66c7.87-6,37.96-13.33,37.96-13.33l-21.69,3.55-20.27,9.13s-9.61,7.83-12.08,21.31Z"/>
        <polygon class="st10" points="30.1 186.6 48.97 188.97 67.83 188.44 30.1 186.6"/>
        <polygon class="st15" points="159.2 142.3 168.97 152.1 164.08 143.23 167.46 138.74 159.2 142.3"/>
        <polygon class="st6" points="168.97 152.1 162.03 143.23 167.46 138.74 159.2 142.3 168.97 152.1"/>
        <polygon class="st6" points="73.24 177.92 85.18 177.92 106.32 174.97 73.24 177.92"/>
        <polygon class="st14" points="52.02 226.31 54.28 231.9 59.88 238.54 52.02 226.31"/>
        <polygon class="st14" points="259.12 248.39 301.74 237.51 286.35 243.33 272.48 246.17 259.12 248.39"/>
        <polygon class="st14" points="198.42 248.59 203.32 250.03 213.26 249.54 198.42 248.59"/>
        <g>
          <polygon class="st15" points="35.58 197.12 38.75 196.04 42.28 196.58 40.07 198.41 35.58 197.12"/>
          <polygon class="st15" points="225.36 153.02 227.56 150.38 235.8 153.02 233.59 157.29 228.15 157.29 225.36 153.02"/>
          <polygon class="st15" points="246.68 159.94 247.71 158.91 252.12 161.06 249.31 162.88 246.68 160.89 246.68 159.94"/>
          <polygon class="st2" points="225.36 153.02 228.11 156.44 232.67 156.96 233.76 156.96 233.59 157.29 228.15 157.62 225.36 153.02"/>
          <polygon class="st2" points="246.68 160.89 248.54 162.02 250.41 162.02 252.12 161.06 249.87 162.88 249.31 162.88 246.68 160.89"/>
          <polygon class="st2" points="35.58 197.12 38.32 198.41 41.19 198.8 42.28 196.58 40.41 197.69 35.58 197.12"/>
        </g>
        <path class="st9" d="M238.01,136.01l26.08,9.38,18.98,1.9-4.25-5.81s-28.53-4.53-40.81-5.47Z"/>
        <path class="st9" d="M149.43,142.7l12.23-5.88s-24.26,1.54-51.74,6.41l-8.2,3.34s29.13-3.22,47.71-3.87Z"/>
        <path class="st20" d="M134.59,250.03s17.76-37.57,55.5-56.34c0,0-33.04,9.33-55.5,56.34Z"/>
        <path class="st20" d="M73.39,252.8s30.33-21.66,55.98-55.11c0,0-8.42,20.88-55.98,55.11Z"/>
      </g>
    </g>
  </g>
</svg>