<?xml version="1.0" encoding="UTF-8"?>
<svg xmlns="http://www.w3.org/2000/svg" version="1.1" xmlns:xlink="http://www.w3.org/1999/xlink" viewBox="0 0 400 400">
  <!-- Generator: Adobe Illustrator 29.0.1, SVG Export Plug-In . SVG Version: 2.1.0 Build 192)  -->
  <defs>
    <style>
      .st0 {
        fill: url(#radial-gradient2);
      }

      .st0, .st1, .st2, .st3, .st4, .st5, .st6, .st7, .st8, .st9, .st10, .st11, .st12, .st13, .st14, .st15, .st16, .st17, .st18, .st19, .st20, .st21, .st22, .st23, .st24, .st25, .st26, .st27, .st28, .st29 {
        fill-rule: evenodd;
      }

      .st0, .st3, .st4, .st5, .st10, .st11, .st30, .st23 {
        mix-blend-mode: multiply;
      }

      .st1 {
        fill: url(#New_Gradient_Swatch_20);
      }

      .st1, .st2, .st6, .st7, .st8, .st9, .st12, .st13, .st14, .st15, .st18, .st20, .st21, .st22, .st24, .st28 {
        mix-blend-mode: screen;
      }

      .st2 {
        fill: url(#New_Gradient_Swatch_179);
      }

      .st3 {
        fill: url(#New_Gradient_Swatch_211);
      }

      .st3, .st10, .st11, .st18, .st22 {
        opacity: .5;
      }

      .st4 {
        fill: url(#radial-gradient1);
      }

      .st5 {
        fill: url(#radial-gradient3);
      }

      .st6 {
        fill: url(#New_Gradient_Swatch_171);
      }

      .st7 {
        fill: url(#New_Gradient_Swatch_175);
      }

      .st8 {
        fill: url(#New_Gradient_Swatch_174);
      }

      .st9 {
        fill: url(#New_Gradient_Swatch_177);
      }

      .st10 {
        fill: url(#New_Gradient_Swatch_212);
      }

      .st11 {
        fill: url(#New_Gradient_Swatch_21);
      }

      .st31 {
        isolation: isolate;
      }

      .st12 {
        fill: url(#radial-gradient4);
      }

      .st13 {
        fill: url(#New_Gradient_Swatch_173);
      }

      .st14 {
        fill: url(#New_Gradient_Swatch_172);
      }

      .st15 {
        fill: url(#New_Gradient_Swatch_178);
      }

      .st30, .st23 {
        fill: #c0e5ed;
      }

      .st16 {
        fill: url(#linear-gradient1);
      }

      .st17 {
        fill: url(#New_Gradient_Swatch_17);
      }

      .st18 {
        fill: url(#radial-gradient7);
      }

      .st19 {
        fill: url(#linear-gradient4);
      }

      .st20 {
        fill: url(#New_Gradient_Swatch_1711);
      }

      .st21 {
        fill: url(#New_Gradient_Swatch_1710);
      }

      .st22 {
        fill: url(#radial-gradient6);
      }

      .st24 {
        fill: url(#New_Gradient_Swatch_176);
      }

      .st25 {
        fill: url(#radial-gradient);
      }

      .st26 {
        fill: url(#linear-gradient3);
      }

      .st27 {
        fill: url(#linear-gradient);
      }

      .st28 {
        fill: url(#radial-gradient5);
      }

      .st29 {
        fill: url(#linear-gradient2);
      }
    </style>
    <radialGradient id="New_Gradient_Swatch_17" data-name="New Gradient Swatch 17" cx="195.73" cy="193.22" fx="195.73" fy="193.22" r="133.04" gradientUnits="userSpaceOnUse">
      <stop offset="0" stop-color="#0c3469"/>
      <stop offset="1" stop-color="#000"/>
    </radialGradient>
    <radialGradient id="radial-gradient" cx="39.33" cy="73.75" fx="39.33" fy="73.75" r="544.86" gradientUnits="userSpaceOnUse">
      <stop offset="0" stop-color="#2ea4ff"/>
      <stop offset="1" stop-color="#2478f0"/>
    </radialGradient>
    <linearGradient id="linear-gradient" x1="194.41" y1="303.02" x2="194.41" y2="296.32" gradientUnits="userSpaceOnUse">
      <stop offset="0" stop-color="#062d70"/>
      <stop offset="1" stop-color="#034494"/>
    </linearGradient>
    <linearGradient id="linear-gradient1" x1="340.66" y1="193.22" x2="348.51" y2="193.22" gradientUnits="userSpaceOnUse">
      <stop offset="0" stop-color="#0456ba"/>
      <stop offset="1" stop-color="#083b94"/>
    </linearGradient>
    <radialGradient id="New_Gradient_Swatch_171" data-name="New Gradient Swatch 17" cx="36.85" cy="130.94" fx="36.85" fy="130.94" r="288.43" xlink:href="#New_Gradient_Swatch_17"/>
    <radialGradient id="New_Gradient_Swatch_172" data-name="New Gradient Swatch 17" cx="64.25" cy="145.56" fx="64.25" fy="145.56" r="281.9" xlink:href="#New_Gradient_Swatch_17"/>
    <radialGradient id="New_Gradient_Swatch_173" data-name="New Gradient Swatch 17" cx="56.01" cy="172.95" fx="56.01" fy="172.95" r="517.75" xlink:href="#New_Gradient_Swatch_17"/>
    <radialGradient id="New_Gradient_Swatch_174" data-name="New Gradient Swatch 17" cx="49.56" cy="196.25" fx="49.56" fy="196.25" r="374.65" xlink:href="#New_Gradient_Swatch_17"/>
    <radialGradient id="New_Gradient_Swatch_175" data-name="New Gradient Swatch 17" cx="45.49" cy="219.01" fx="45.49" fy="219.01" r="232.68" xlink:href="#New_Gradient_Swatch_17"/>
    <radialGradient id="New_Gradient_Swatch_176" data-name="New Gradient Swatch 17" cx="343.29" cy="199.39" fx="343.29" fy="199.39" r="397.2" xlink:href="#New_Gradient_Swatch_17"/>
    <radialGradient id="New_Gradient_Swatch_177" data-name="New Gradient Swatch 17" cx="76.85" cy="272.79" fx="76.85" fy="272.79" r="436.72" xlink:href="#New_Gradient_Swatch_17"/>
    <radialGradient id="New_Gradient_Swatch_21" data-name="New Gradient Swatch 21" cx="-11.19" cy="445.68" fx="-11.19" fy="445.68" r="542.15" gradientUnits="userSpaceOnUse">
      <stop offset="0" stop-color="#bac3eb"/>
      <stop offset=".99" stop-color="#fff"/>
    </radialGradient>
    <radialGradient id="New_Gradient_Swatch_211" data-name="New Gradient Swatch 21" cx="400.46" cy="-148.52" fx="400.46" fy="-148.52" r="620.17" xlink:href="#New_Gradient_Swatch_21"/>
    <radialGradient id="New_Gradient_Swatch_212" data-name="New Gradient Swatch 21" cx="9.23" cy="16.54" fx="9.23" fy="16.54" r="429.19" xlink:href="#New_Gradient_Swatch_21"/>
    <radialGradient id="New_Gradient_Swatch_178" data-name="New Gradient Swatch 17" cx="342.18" cy="275.61" fx="342.18" fy="275.61" r="396.68" xlink:href="#New_Gradient_Swatch_17"/>
    <radialGradient id="New_Gradient_Swatch_179" data-name="New Gradient Swatch 17" cx="277.22" cy="159.26" fx="277.22" fy="159.26" r="250.49" xlink:href="#New_Gradient_Swatch_17"/>
    <radialGradient id="New_Gradient_Swatch_1710" data-name="New Gradient Swatch 17" cx="44.54" cy="164.82" fx="44.54" fy="164.82" r="186.34" xlink:href="#New_Gradient_Swatch_17"/>
    <radialGradient id="New_Gradient_Swatch_1711" data-name="New Gradient Swatch 17" cx="339.49" cy="255.31" fx="339.49" fy="255.31" r="316.16" xlink:href="#New_Gradient_Swatch_17"/>
    <radialGradient id="New_Gradient_Swatch_20" data-name="New Gradient Swatch 20" cx="37.66" cy="54.32" fx="37.66" fy="54.32" r="697.92" gradientUnits="userSpaceOnUse">
      <stop offset="0" stop-color="#00fffa"/>
      <stop offset="1" stop-color="#000"/>
    </radialGradient>
    <radialGradient id="radial-gradient1" cx="186.7" cy="221.9" fx="186.7" fy="221.9" r="256.27" gradientUnits="userSpaceOnUse">
      <stop offset="0" stop-color="#706f6f"/>
      <stop offset="1" stop-color="#fff"/>
    </radialGradient>
    <linearGradient id="linear-gradient2" x1="192.31" y1="286.47" x2="192.31" y2="91.65" gradientUnits="userSpaceOnUse">
      <stop offset="0" stop-color="#edd6b9"/>
      <stop offset="1" stop-color="#d4b492"/>
    </linearGradient>
    <radialGradient id="radial-gradient2" cx="61.04" cy="288.88" fx="61.04" fy="288.88" r="40.75" gradientUnits="userSpaceOnUse">
      <stop offset="0" stop-color="#a48a7b"/>
      <stop offset="1" stop-color="#fff"/>
    </radialGradient>
    <radialGradient id="radial-gradient3" cx="328.6" cy="101.75" fx="328.6" fy="101.75" r="18.05" xlink:href="#radial-gradient2"/>
    <linearGradient id="linear-gradient3" x1="66.17" y1="278.73" x2="71.05" y2="267.23" gradientUnits="userSpaceOnUse">
      <stop offset="0" stop-color="#bf9f7e"/>
      <stop offset="1" stop-color="#edd6b9"/>
    </linearGradient>
    <linearGradient id="linear-gradient4" x1="327.11" y1="100.83" x2="319.37" y2="108.57" xlink:href="#linear-gradient3"/>
    <radialGradient id="radial-gradient4" cx="64.34" cy="285.77" fx="64.34" fy="285.77" r="33.24" gradientUnits="userSpaceOnUse">
      <stop offset="0" stop-color="#000"/>
      <stop offset="1" stop-color="#a3805f"/>
    </radialGradient>
    <radialGradient id="radial-gradient5" cx="330.58" cy="96.36" fx="330.58" fy="96.36" r="21.67" xlink:href="#radial-gradient4"/>
    <radialGradient id="radial-gradient6" cx="191.79" cy="190.02" fx="191.79" fy="190.02" r="207.78" gradientUnits="userSpaceOnUse">
      <stop offset="0" stop-color="#ca9e67"/>
      <stop offset="1" stop-color="#000"/>
    </radialGradient>
    <radialGradient id="radial-gradient7" cx="190.14" cy="191.24" fx="190.14" fy="191.24" r="111.87" xlink:href="#radial-gradient6"/>
  </defs>
  <g class="st31">
    <g id="Layer_1">
      <g>
        <g>
          <path class="st17" d="M42.94,297.87L343.37,83.43l5.14,5.14c-3.49,71.48-5.08,142.96-2.63,214.44-99.26-3.54-198.53-3.66-297.79,0l-5.14-5.14h0Z"/>
          <path class="st25" d="M39.37,81.88c101.95-2.28,202.97-2.68,303.99,1.55-2.14,71.48-2.97,142.96-2.63,214.44-99.26-2.09-198.53-2.04-297.79,0,.1-72-1.18-143.99-3.56-215.99h0Z"/>
          <path class="st27" d="M345.88,303.02l-5.14-5.14c-99.26-2.09-198.53-2.04-297.79,0l5.14,5.14c99.26-3.66,198.53-3.54,297.79,0h0Z"/>
          <path class="st16" d="M343.37,83.43c-2.14,71.48-2.97,142.96-2.63,214.44l5.14,5.14c-2.44-71.48-.86-142.96,2.63-214.44l-5.14-5.14h0Z"/>
          <path class="st6" d="M107.44,100.76c12.39-6.41,23.08-13.33,34.2-20.43-1.74.01-3.49.03-5.23.04-16.52,11.98-29.45,19.92-43.93,26.48-14.23,6.45-29.86,11.52-51.82,17.77.02.88.05,1.76.07,2.63,25.61-7.67,43.01-14.23,66.71-26.49h0Z"/>
          <path class="st14" d="M235.61,80.56c-26.39,23.31-61.79,38.65-98.91,49.1-32.12,9.05-65.53,14.43-95.46,18.15l.02.94c22.92-2.55,45.97-5.53,68.17-10.01,5.81.43,10.03.14,10.9-.26,1.89-.88,3.19-1.89,4.54-3.14,4.23-1.02,8.43-2.1,12.57-3.25,40.42-11.27,73.82-30.02,101.02-51.43-.93-.03-1.85-.07-2.78-.1h-.07Z"/>
          <path class="st13" d="M163.51,149.55c-42.24,9.96-84.21,20.96-121.8,20.02.02.78.03,1.55.05,2.33,29.34-.15,45.15-2.5,75.64-9.61,20.2-4.71,39.99-10.07,60.01-15.06,9.34-2.33,18.73-4.6,28.08-6.93,62.21-15.54,88.45-22.39,136.76-47.3.28-.15.57-.29.85-.44.03-1.07.06-2.14.09-3.21-21.47,11.84-43.15,21.47-66.98,29.9-36.52,12.92-73.8,21.13-112.7,30.3h0Z"/>
          <path class="st8" d="M218.54,159.28c-59.64,16.14-119.38,34.54-176.42,32.77l.03,1.86c3.87.13,7.52.21,11.02.25,2.29.86,5.07,1.31,5.62,1.28.28-.01,1.98-.61,2.84-1.3,18.31-.29,33.43-2.29,56.2-7.19,43.26-9.32,91.65-24.4,135.2-36.68-11.48,2.86-22.99,5.9-34.49,9.01h0Z"/>
          <path class="st7" d="M98.57,210.38c-17.32,2.59-34.23,3.89-56.12,4.63,0,.6.02,1.2.02,1.81,51.06-1.87,78.6-7.81,125.21-21.23-22.07,5.74-44.73,11.14-69.12,14.79h0Z"/>
          <path class="st24" d="M156.13,216.95c-39.39,7-72.87,12.96-113.49,13.61v1.37c36.81-1.45,55.51-4.24,93.09-10.85,11.55-2.03,23-4.1,34.47-6.11,18.91-3.31,37.84-6.44,57.26-8.96,39.78-5.16,74.96-6.02,113.51-.85l.02-2.35c-14.71-1.63-28.87-2.45-43.01-2.53-42.79-.25-85.55,6.72-126.8,14.01-5.04.89-10.06,1.79-15.05,2.67h0Z"/>
          <path class="st9" d="M107.02,258.57c-22.72,1.97-44.61,2.86-64.15,2.69,0,.86,0,1.73.01,2.59,23.59-.14,42.77-.81,61.92-2.52,18.82-1.68,37.6-4.37,60.5-8.53,27.2-4.95,53.59-11.37,81.23-16.13,32.08-5.52,58.38-5.25,85.95.45-48.7-13.26-92.39.18-149.02,10.98-24.53,4.68-50,8.11-74.53,10.29-.64.06-1.27.11-1.91.17h0Z"/>
          <path class="st11" d="M108.52,256.53c83.3-7.62,159.38-41.04,232.21-19.65.03-6.42.07-12.84.12-19.25-32.26-9.63-74.37-7.46-108.04-4.29,40.1-8.01,77.43-10.16,108.1-3.5.02-2.34.04-4.68.07-7.03-14.71-1.63-28.87-2.45-43.01-2.53-48.01-.28-96,8.53-141.85,16.68-39.39,7-72.87,12.96-113.49,13.61.07,7.12.13,14.23.18,21.34,12.54,2.83,41.75,5.51,65.7,4.62h0Z"/>
          <path class="st3" d="M42.06,188.17c56.1,2.12,115.63-13.99,174.87-30.03,42.33-11.46,84.37-23.87,125.24-29.03.29-13.26.63-26.51,1.02-39.77-21.47,11.84-43.15,21.47-66.98,29.9-36.52,12.92-73.8,21.13-112.7,30.3-42.24,9.96-84.21,20.96-121.8,20.02.12,6.2.24,12.4.35,18.61h0ZM110.01,165.07c54.84-12.26,111.05-24.15,164.6-41.06-40.74,22.41-105.27,30.6-164.6,41.06h0Z"/>
          <path class="st10" d="M135.25,128.4c35.62-10.03,69.21-25.87,94.84-47.91-15.43-.18-30.88-.27-46.33-.29-30.83,22.57-52.14,29.36-88.32,36.21,28.43-10.94,44.19-19.83,62.99-36.17-7.34.03-14.68.07-22.03.13-16.52,11.98-29.45,19.92-43.93,26.48-14.23,6.45-29.86,11.52-51.82,17.77.18,6.8.36,13.6.52,20.39,29.53-3.4,62.6-7.74,94.08-16.61h0Z"/>
          <path class="st23" d="M310.31,155.09c-10.37.57-19.63,1.35-30.36,2.83-22.14,3.05-45.15,10.12-65.85,16.22-14.77,4.35-33.19,10.64-48.35,13.65,26.83-7.45,56.84-18.85,80.17-24.71,19.89-5,43.2-8.69,64.38-7.98h0Z"/>
          <path class="st23" d="M106,154.27c-23.61,3.57-41.72,5.4-64.51,4.77.02.81.04,1.63.05,2.44,23.04.46,41.42-1.51,65.21-5.34,31.5-5.06,68.09-13.72,97.22-22.75,3.81-1.18,2.66-.81,6.33-2.13-4.38,1.04-2.34.52-6.67,1.68-31.71,8.46-64.06,16.23-97.65,21.32h0Z"/>
          <path class="st30" d="M42.93,278.05c189.31,4.4,183.28-15.52,272.48-13.04,8.21.23,16.15,1.44,25.25,3.03,0,1.19,0,2.38,0,3.57-9.54-1.15-17.81-1.8-26.09-2.03-22.62-.63-46.94,1.86-69.5,3.63-73.89,5.78-135.19,10.58-202.14,8.04,0-1.06,0-2.13,0-3.19h0ZM122.33,204.26c-5.93,0-11.58-.46-18.65-.89-22.29-1.36-41.53-.12-61.36,1.37-.01-.87-.03-1.75-.04-2.62,21.24-1.05,39.09-1.11,61.73.27,8.09.49,15.99,1.02,23.09.52,4.78-.34,8.77-1.27,13.26-2.25,67.39-14.64,123.45-39.35,201.1-34.69-.01.94-.03,1.89-.04,2.83-92.51-5.89-156.98,28.73-242.85,41.58-17.32,2.59-34.23,3.89-56.12,4.63-.01-.95-.02-1.9-.04-2.84,21.48-.75,37.98-2.06,55.1-4.14,8.5-1.03,16.75-2.31,24.81-3.76h0ZM342.08,133.26c-24.01,2.67-48.57,7.42-73.35,13.21,4.65.22,8.38,1.01,11.73,1.56,3.43.56,6.58,1.14,10.11.82,17.22-1.54,34.06-4.97,51.32-6.3-.02,1.1-.04,2.2-.06,3.29-17.07,1.15-33.9,3.89-50.87,5.12-4.17.3-7.01-.63-10.78-1.25-9.83-1.61-14.38-2.6-24.29-.16-12.42,3.06-24.89,6.35-37.35,9.72-59.64,16.14-119.38,34.54-176.42,32.77-.02-1.29-.04-2.58-.06-3.88,56.1,2.12,115.63-13.99,174.87-30.03,13.55-3.67,27.07-7.43,40.53-11.03,27.98-7.2,55.05-14.29,84.72-18-.03,1.38-.06,2.76-.09,4.15h0ZM42.85,256.96c17.15,1.3,41.79,1.64,63.77-.27,84.05-7.28,160.73-41.37,234.12-19.82,0,.91,0,1.83-.01,2.74-52.09-17.26-97.45-2.91-157.26,8.49-25.17,4.8-51.33,8.29-76.44,10.46-22.72,1.97-44.61,2.86-64.15,2.69,0-1.43-.01-2.86-.02-4.3h0ZM42.61,227.75c40.06-.47,73.63-5.25,112.7-12.2,70.25-12.49,123.82-24.18,185.72-16.6-.01,1.28-.03,2.57-.04,3.85-14.71-1.63-28.87-2.45-43.01-2.53-48.01-.28-96,8.53-141.85,16.68-39.39,7-72.87,12.96-113.49,13.61,0-.94-.02-1.87-.03-2.81h0ZM41.63,165.5c36.84,1.39,79.16-7.44,120.92-17.28,65.72-15.49,122.61-32.45,173.71-61.65,2.36.21,4.69.43,7,.65l-.06,2.12c-21.47,11.84-43.15,21.47-66.98,29.9-36.52,12.92-73.8,21.13-112.7,30.3-42.24,9.96-84.21,20.96-121.8,20.02-.03-1.35-.05-2.71-.08-4.06h0ZM41.17,145.01c29.53-3.4,62.6-7.74,94.08-16.61,35.62-10.03,69.21-25.87,94.84-47.91,1.84.02,3.68.04,5.52.07-26.39,23.31-61.79,38.65-98.91,49.1-32.12,9.05-65.53,14.43-95.46,18.15-.02-.93-.04-1.86-.07-2.8h0ZM40.59,122.13c20.35-5.08,36.96-10.3,50.39-16.38,13.36-6.05,27.2-14.41,40.83-25.35,1.53-.01,3.07-.03,4.6-.04-16.52,11.98-29.45,19.92-43.93,26.48-14.23,6.45-29.86,11.52-51.82,17.77-.02-.83-.04-1.66-.07-2.48h0Z"/>
          <path class="st15" d="M245.07,273.21c-39.19,3.07-74.84,5.86-109.67,7.42,41.25-1.04,78.09-3.51,120.12-6.49,33.75-2.39,53.76-4.63,85.13-.12v-2.4c-9.54-1.15-17.81-1.8-26.09-2.03-22.62-.63-46.94,1.86-69.5,3.63h0Z"/>
          <path class="st23" d="M340.68,250.4c-32.74-12.11-58.93-13.05-98.23-6.34-12.97,2.22-25.46,5.25-38.26,7.75-3.42.67-2.31.46-5.77.98,3.49-.98,1.92-.57,5.51-1.44,12.29-2.99,25.31-6.24,37.91-8.59,39.04-7.29,66.05-6.58,98.84,4.84,0,.93,0,1.86,0,2.8h0Z"/>
          <path class="st23" d="M340.67,278.43c-32.62-3.56-67.9-2.42-112.39,2.86,42.98-3.23,76.54-3.63,112.39-.74v-2.12h0Z"/>
          <path class="st2" d="M227.67,170.89c23.85-6.85,44.07-11.88,71.17-15.04-6.14.5-12.23,1.14-18.89,2.06-16.85,2.32-34.19,6.97-50.65,11.74-5.17,1.5-10.25,3.02-15.2,4.47-13.82,4.07-30.84,9.84-45.39,13.03,16.3-3.29,29.24-7.57,44.77-12.14,4.91-1.44,9.62-2.82,14.19-4.14h0Z"/>
          <path class="st21" d="M41.58,163.22c16.92.36,37.38-1.04,59.97-5.15,13.62-2.48,26.58-5.37,39.55-8.41-11.71,2.51-23.34,4.72-34.34,6.48-23.79,3.82-42.17,5.8-65.21,5.34l.04,1.74h0Z"/>
          <path class="st20" d="M241.4,244.24c37.87-5.72,69.86-5.58,99.28,8.66,0-.84,0-1.67,0-2.5-32.74-12.11-58.93-13.05-98.23-6.34-.35.06-.7.12-1.05.18h0Z"/>
          <path class="st1" d="M41.17,83.29c96.78-.84,202.89-2.09,299.45,2.1.42.02.85.04,1.27.06,0,14.82.11,29.62.27,44.43.34-15.48.75-30.96,1.21-46.44-101.02-4.23-202.04-3.83-303.99-1.55.66,20.06,1.24,40.11,1.73,60.17.54-19.77.73-38.78.06-58.76h0Z"/>
        </g>
        <g>
          <path class="st4" d="M83.8,290.98c57.89-1.48,190.53-2.38,242.87.23,1.2.06,2.77.2,3.65-.62.88-.82.81-2.37.82-3.57.06-3.95.29-8.48.13-11.64l-11.58-1.03,11.39-2.7c-1.06-21.57-1.8-43.29-2.19-65.07l-6.18-2.15,6.11-2.04c-.48-31.02,1.78-60,2.88-90.94-3.25-8.03-6.49-13.75-10.79-20.33-.79-1.2-2.01-2.06-3.44-1.93-23.13,2.08-217.52,4.36-259.22,2.27-2.26-.11-4.08,1.89-4.13,4.16-.22,9.11.78,15.02,1.09,23.7l4.49,2.84-2.02,2.65.37,2.05-2.53,1.77c.96,32.29.86,64.46-.3,96.49l3.38,1.77-1.69,3.11,4.79,2.43-6.83,1.74c-.54,12.83-2.51,25.77-2.6,38.26,6.91,7.27,20.72,14.98,31.54,18.55h0Z"/>
          <g>
            <path class="st29" d="M83.97,285.34c8.61,2.08,218.28,1.05,251.4-1.24-.26-4.23-.5-8.47-.74-12.71l-11.86-.99,11.67-2.57c-1.09-20.57-1.85-41.28-2.24-62.06l-6.33-2.05,6.26-1.94c-.49-29.59-.24-59.27.89-88.78-5.02-7.03-10.05-14.07-15.07-21.1-2.07-.88-233.54.8-267.48,2.06.58,9.54,1.05,19.07,1.42,28.59l4.6,2.71-2.07,2.53.38,1.95-2.59,1.69c.99,30.8.88,61.47-.3,92.03l3.47,1.68-1.73,2.97,4.9,2.32-7,1.66c-.57,12.68-1.34,25.33-2.28,37.96,11.57,5.11,23.15,10.2,34.72,15.29h0Z"/>
            <path class="st0" d="M83.96,285.33c-11.57-5.09-23.15-10.18-34.72-15.27,1.08-1.66,11.9-10.22,13.38-10.37,1.43-.15,17.74,22.5,21.34,25.64h0Z"/>
            <path class="st5" d="M333.02,113c-3.47-1.65-18.27-4.07-18.96-5.58-.54-1.19,3.1-11.34,3.89-15.53,5.02,7.03,10.05,14.07,15.07,21.1h0Z"/>
            <path class="st26" d="M60.55,263.28c7.3,7.54,15.82,15.89,23.42,22.07-2.56,0-34.74-12.75-34.74-15.28,3.47-2.57,7.19-4.89,11.32-6.79h0Z"/>
            <path class="st19" d="M333.02,113c-5.94-2.67-11.91-5.28-17.62-8.4,1.12-4.16,1.87-8.42,2.55-12.7,1.47,0,15.07,19.53,15.07,21.1h0Z"/>
            <path class="st12" d="M76.73,282.16c-2-7.23-17.56-16.06-22.82-15.28,2.1-1.31,4.31-2.52,6.64-3.6,7.28,7.52,15.78,15.85,23.36,22.02-.61.05-3.34-.84-7-2.19-.03-.31-.09-.63-.18-.95h0Z"/>
            <path class="st28" d="M317.75,103.18c1.74,4.03,9.37,6.88,13.99,8.03.18.04.35.09.52.12.48.85.76,1.45.76,1.68-.14-.07-.3-.14-.48-.22-5.78-2.59-11.58-5.15-17.14-8.19,1.12-4.16,1.87-8.42,2.55-12.7.09,0,.23.07.4.21-.03.08-.05.16-.08.24-.95,2.87-1.71,8.09-.52,10.83h0Z"/>
            <path class="st22" d="M88.1,281.45c-4.11-1.64-5.63-5.12-7.84-10.44-6.33-15.22-14.59-12.49-21.21-16.65-4.42-2.77-5.81-11.15,2.37-22.4,7.55-10.4-6.16-21.88-5.67-43.63.31-13.92,7.77-35.92,9-42.41,1.13-5.99,2.54-9.19-3.14-17.72-2.19-3.3.27-4.83-5.1-13.18-2.81-4.38-1.92-7.48.84-9.73,16.27-13.29,57.8-4.81,76.15-3.08,8.36.79,14.41-4.55,28.19-3.22,24.64,2.37,20.83-9.7,56.26,4.86,23.13,9.51,27.06-6.06,46.7-4.41,9.86.83,13.2-1.34,19.48-2.07,4.85-.56,9.92-1.36,14.12-.1,8.69,2.6,4.59,11.23,12.08,16.51,10.77,7.6,22.5-3.01,17.16,19.12-2.68,11.12-5.84,24.05-.78,37.83,1.46,3.97,1.43,14.01-.21,17.68-6.57,14.66-12.65,12.38-3.92,20.75,7.12,6.83-2.9,12.44,2.23,20.09,4.96,7.4,2.6,14.59-2.9,29.72-.75,2.05,2.96,4.57-3.95,8.6-4.82,2.81,12.25,10.87-26.32,10.87-10.95,0-14.32,3.88-25.37,3.54-19.05-.57-30.12-5.96-53.7-3.87-15.4,1.37-23.08,3.6-39.53,2.9-9.77-.42-11.79,2.7-25.11-1.21-20.22-5.93-41.49,8.95-59.8,1.63h0Z"/>
            <path class="st18" d="M71.01,252.47c-5.31-4.78-7.85-8.43-4.2-21.74,5.43-19.78-5.21-24.79-6.37-37.1-1.5-15.79-.26-8.07,5.43-19.22,3.51-6.88-5.88-9.03,5.03-21.97,8.11-9.62,6.15-17.46-1.24-26.27-5.98-7.13-6.68-16.91-.26-21.64,10.02-7.39,21.48.96,29.34,1.44,2.36.14,5.38-.42,10.35-2.34,5.66-2.19,19.93,5.92,31.11,5.92,13.66,0,28.21-7.78,47.97-7.78s26.36,17.47,44.13,10.14c1.98-.82,14.52,7.42,32.4-1.95,14.24-7.46,33.72-4.2,37.73,3.25,1.09,2.03,8.61.3,9.94,11.91.58,5.06,13.14,8.3,5.71,21.94-1.36,2.5-2.31,16.95.13,21.27,2.79,4.96,2.78,16.05-.13,20.35-8.24,12.17,3.54,22.15-2.52,30.99-6.14,8.95-.89,16.09-.89,22.92,0,14.37-5.1,5.65-2.24,19.67,2.49,12.23-7.6,13.91-18.24,11.45-3.13-.72-5.79-1.44-12.43,3.41-9.99,7.28-24.51,2.62-35.95-.83-15.89-4.8-26.37-4.56-42.94.34-11.25,3.32-29.74-8.31-48.4-1.66-16.3,5.81-23.46-6.82-35.29.92-9.07,5.93-17.84,4.45-21.81.44-5.07-5.12.85,1.29-7-9.49-7.57-10.4-16.65-11.94-19.35-14.37h0Z"/>
          </g>
        </g>
      </g>
    </g>
  </g>
</svg>