<?xml version="1.0" encoding="UTF-8"?>
<svg xmlns="http://www.w3.org/2000/svg" version="1.1" xmlns:xlink="http://www.w3.org/1999/xlink" viewBox="0 0 400 400">
  <!-- Generator: Adobe Illustrator 29.0.1, SVG Export Plug-In . SVG Version: 2.1.0 Build 192)  -->
  <defs>
    <style>
      .st0 {
        fill: url(#radial-gradient2);
      }

      .st0, .st1, .st2, .st3, .st4, .st5, .st6, .st7, .st8, .st9, .st10, .st11, .st12, .st13, .st14, .st15, .st16, .st17 {
        fill-rule: evenodd;
      }

      .st0, .st3, .st7, .st18, .st11 {
        mix-blend-mode: multiply;
      }

      .st1 {
        fill: url(#radial-gradient1);
      }

      .st2 {
        fill: url(#New_Gradient_Swatch_20);
      }

      .st2, .st4, .st5, .st6, .st8, .st9, .st12, .st13, .st15 {
        mix-blend-mode: screen;
      }

      .st3 {
        fill: url(#New_Gradient_Swatch_211);
      }

      .st3, .st7 {
        opacity: .5;
      }

      .st4 {
        fill: url(#New_Gradient_Swatch_171);
      }

      .st5 {
        fill: url(#New_Gradient_Swatch_175);
      }

      .st6 {
        fill: url(#New_Gradient_Swatch_174);
      }

      .st7 {
        fill: url(#New_Gradient_Swatch_21);
      }

      .st19 {
        isolation: isolate;
      }

      .st8 {
        fill: url(#New_Gradient_Swatch_173);
      }

      .st9 {
        fill: url(#New_Gradient_Swatch_172);
      }

      .st18 {
        fill: #c0e5ed;
      }

      .st10 {
        fill: url(#linear-gradient1);
      }

      .st11 {
        fill: url(#radial-gradient);
      }

      .st20 {
        clip-rule: evenodd;
        fill: none;
      }

      .st12 {
        fill: url(#New_Gradient_Swatch_17);
      }

      .st13 {
        fill: url(#linear-gradient2);
      }

      .st14 {
        fill: url(#linear-gradient4);
      }

      .st15 {
        fill: url(#New_Gradient_Swatch_176);
      }

      .st16 {
        fill: url(#linear-gradient3);
      }

      .st17 {
        fill: url(#linear-gradient);
      }

      .st21 {
        clip-path: url(#clippath);
      }
    </style>
    <linearGradient id="linear-gradient" x1="41.92" y1="196.81" x2="378.28" y2="196.81" gradientUnits="userSpaceOnUse">
      <stop offset="0" stop-color="#084b9e"/>
      <stop offset=".89" stop-color="#062d70"/>
      <stop offset="1" stop-color="#084798"/>
    </linearGradient>
    <linearGradient id="linear-gradient1" x1="206.48" y1="215.61" x2="206.48" y2="171.21" gradientUnits="userSpaceOnUse">
      <stop offset="0" stop-color="#2478f0"/>
      <stop offset="1" stop-color="#2ea4ff"/>
    </linearGradient>
    <radialGradient id="New_Gradient_Swatch_21" data-name="New Gradient Swatch 21" cx="300.97" cy="-78.55" fx="300.97" fy="-78.55" r="655.87" gradientUnits="userSpaceOnUse">
      <stop offset="0" stop-color="#bac3eb"/>
      <stop offset=".99" stop-color="#fff"/>
    </radialGradient>
    <radialGradient id="New_Gradient_Swatch_17" data-name="New Gradient Swatch 17" cx="160.59" cy="187.9" fx="160.59" fy="187.9" r="39.11" gradientUnits="userSpaceOnUse">
      <stop offset="0" stop-color="#0c3469"/>
      <stop offset="1" stop-color="#000"/>
    </radialGradient>
    <radialGradient id="New_Gradient_Swatch_171" data-name="New Gradient Swatch 17" cx="133.51" cy="217.27" fx="133.51" fy="217.27" r="138.4" xlink:href="#New_Gradient_Swatch_17"/>
    <radialGradient id="New_Gradient_Swatch_172" data-name="New Gradient Swatch 17" cx="363.42" cy="209.88" fx="363.42" fy="209.88" r="166.89" xlink:href="#New_Gradient_Swatch_17"/>
    <linearGradient id="linear-gradient2" x1="213.3" y1="183.78" x2="213.3" y2="171.21" gradientUnits="userSpaceOnUse">
      <stop offset="0" stop-color="#000"/>
      <stop offset="1" stop-color="#00fffa"/>
    </linearGradient>
    <clipPath id="clippath">
      <path class="st20" d="M63.83,171.21c13.77.08,122.2.88,285.39,0,12.21-.07,23.28,7.66,22.2,22.2-.91,12.17-9.99,22.26-22.2,22.2-182.74-.98-103.06-1.09-285.39,0-12.21.07-20.64-10.09-22.2-22.2-1.71-13.29,9.99-22.27,22.2-22.2h0Z"/>
    </clipPath>
    <radialGradient id="radial-gradient" cx="56.99" cy="198.93" fx="56.99" fy="198.93" r="39.36" gradientUnits="userSpaceOnUse">
      <stop offset=".87" stop-color="#6e757f"/>
      <stop offset=".96" stop-color="#d4d6d9"/>
      <stop offset="1" stop-color="#fff"/>
    </radialGradient>
    <linearGradient id="linear-gradient3" x1="21.81" y1="191.63" x2="35.68" y2="191.63" gradientUnits="userSpaceOnUse">
      <stop offset="0" stop-color="#004bc9"/>
      <stop offset="1" stop-color="#003380"/>
    </linearGradient>
    <linearGradient id="linear-gradient4" x1="39.02" y1="221.76" x2="88.65" y2="165.21" gradientUnits="userSpaceOnUse">
      <stop offset="0" stop-color="#062d70"/>
      <stop offset="1" stop-color="#3484e8"/>
    </linearGradient>
    <radialGradient id="radial-gradient1" cx="35.08" cy="163.75" fx="35.08" fy="163.75" r="109.82" gradientUnits="userSpaceOnUse">
      <stop offset="0" stop-color="#2ea4ff"/>
      <stop offset="1" stop-color="#2478f0"/>
    </radialGradient>
    <radialGradient id="radial-gradient2" cx="49.47" cy="182.86" fx="49.47" fy="182.86" r="53.98" gradientUnits="userSpaceOnUse">
      <stop offset=".34" stop-color="#fff"/>
      <stop offset="1" stop-color="#bac3eb"/>
    </radialGradient>
    <radialGradient id="New_Gradient_Swatch_211" data-name="New Gradient Swatch 21" cx="117.19" cy="167.34" fx="117.19" fy="167.34" r="154.78" xlink:href="#New_Gradient_Swatch_21"/>
    <radialGradient id="New_Gradient_Swatch_173" data-name="New Gradient Swatch 17" cx="26.11" cy="173.64" fx="26.11" fy="173.64" r="58.91" xlink:href="#New_Gradient_Swatch_17"/>
    <radialGradient id="New_Gradient_Swatch_174" data-name="New Gradient Swatch 17" cx="40.79" cy="184.46" fx="40.79" fy="184.46" r="78.51" xlink:href="#New_Gradient_Swatch_17"/>
    <radialGradient id="New_Gradient_Swatch_175" data-name="New Gradient Swatch 17" cx="88.55" cy="195.23" fx="88.55" fy="195.23" r="71.72" xlink:href="#New_Gradient_Swatch_17"/>
    <radialGradient id="New_Gradient_Swatch_176" data-name="New Gradient Swatch 17" cx="33.77" cy="216.59" fx="33.77" fy="216.59" r="70.98" xlink:href="#New_Gradient_Swatch_17"/>
    <radialGradient id="New_Gradient_Swatch_20" data-name="New Gradient Swatch 20" cx="32.31" cy="141.52" fx="32.31" fy="141.52" r="112.06" gradientUnits="userSpaceOnUse">
      <stop offset="0" stop-color="#00fffa"/>
      <stop offset="1" stop-color="#000"/>
    </radialGradient>
  </defs>
  <g class="st19">
    <g id="Layer_1">
      <g>
        <path class="st17" d="M70.62,178c182.55,1.09,97.04-5.8,279.59-6.78,13.76-.22,29.24,12.19,28,28.97-.9,12.17-9.99,22.34-22.2,22.2-109.96-1.29-163.77-1.15-285.39,0-12.21.12-26.73-11.1-28.59-26.62-1.71-13.29,16.38-17.84,28.59-17.77h0Z"/>
        <path class="st10" d="M63.83,171.21c13.77.08,122.2.88,285.39,0,12.21-.07,23.28,7.66,22.2,22.2-.91,12.17-9.99,22.26-22.2,22.2-182.74-.98-103.06-1.09-285.39,0-12.21.07-20.64-10.09-22.2-22.2-1.71-13.29,9.99-22.27,22.2-22.2h0Z"/>
        <path class="st18" d="M201.79,171.81c-40.43,9.91-73,18.28-113.06,43.02h-5.91c37.98-22.76,69.63-32.01,108.42-43,3.52,0,7.03-.02,10.55-.03h0ZM121.37,214.86c42.39-16.4,75.88-24.34,121.24-31.65,21.96-3.54,42.89-7.04,64.3-11.78,4.93-.02,9.86-.05,14.79-.07-26.53,6.34-52.22,8.92-79.03,13.25-42.2,6.81-73.69,15.74-112.09,30.27-3.07,0-6.13,0-9.2-.01h0ZM196.29,215c25.04-7.59,49.63-12.9,76.04-15.98,36.98-4.31,63.09-5.71,97.95.38-.34,1.07-.74,2.1-1.2,3.1-34.29-6.16-60.22-6.16-96.68-1.91-21.95,2.56-41.79,8.04-62.09,14.44-4.67-.01-9.34-.03-14.01-.04h0Z"/>
        <path class="st7" d="M201.79,171.81c-40.43,9.91-73,18.28-113.06,43.02,10.88,0,21.76.01,32.64.03,42.39-16.4,75.88-24.34,121.24-31.65,21.96-3.54,42.89-7.04,64.3-11.78-35.04.16-70.08.29-105.11.38h0Z"/>
        <path class="st12" d="M201.79,171.81c-33.88,8.3-62.24,15.53-94.11,32.21,36.9-15.47,65.94-25.62,105.82-32.24-3.9.01-7.81.02-11.71.03h0Z"/>
        <path class="st4" d="M221.65,188.34c-32.28,6.32-59.32,14.51-91.09,26.53,1.78,0,3.57,0,5.35,0,28.1-11.88,56.25-19.23,85.74-26.54h0Z"/>
        <path class="st9" d="M242.19,206.02c46.21-8.37,77.99-9.35,125.52-.99.5-.81.96-1.66,1.36-2.54-34.29-6.16-60.22-6.16-96.68-1.91-10.45,1.22-20.43,3.1-30.2,5.43h0Z"/>
        <path class="st13" d="M349.22,171.21c-97.58.52-195.16.76-292.73.74v2.02c97.96.02,195.97-.21,293.66-.74,8.37-.04,16.22,3.58,19.96,10.55-3.23-8.29-11.75-12.61-20.89-12.57Z"/>
        <g class="st21">
          <path class="st11" d="M96.35,198.93c0,21.74-17.62,39.36-39.36,39.36s-39.36-17.62-39.36-39.36,17.62-39.36,39.36-39.36,39.36,17.62,39.36,39.36Z"/>
        </g>
        <g>
          <path class="st16" d="M21.81,193.65c1.36-1.37,2.73-2.73,4.09-4.09,3.43-.22,6.66.03,9.78.53-1.89.84-12.39,4.41-13.88,3.57h0Z"/>
          <path class="st14" d="M57.83,160.88c18.58.25,32.65,17.1,32.06,34.79-.6,17.69-13.28,30.9-30.89,31.62-17.61.72-35.17-13.92-35.91-31.15l3.98-4.04c2.17-.64,4.41-1.29,6.68-1.95-1.75,0-3.27-.03-4.72-.04l28.81-29.24h0Z"/>
          <path class="st1" d="M54.47,159.84c19.15.46,33.35,14.5,32.73,32.73-.61,18.23-13.89,32.58-31.96,32.58s-31.69-13.78-33.37-30.71c-.01-.15-.03-.31-.04-.46,0-.11-.02-.22-.03-.33,1.71-.5,3.46-1.01,5.25-1.54,2.17-.64,4.41-1.29,6.68-1.95-1.75,0-3.27-.03-4.72-.04-2.41-.02-4.61,0-7.3.31.42-16.85,14.37-31.03,32.75-30.59h0Z"/>
          <path class="st0" d="M69.35,216.68c-18.59,4.2-39.55-4.95-47.47-22.09,1.74,16.86,15.96,30.56,33.35,30.56,11.28,0,20.69-5.59,26.32-14.21-3.61,2.71-7.65,4.72-12.2,5.75h0Z"/>
          <path class="st18" d="M26.42,174.74c16.04,7.4,35.14-1.2,50.3-6.62.56.49,1.1,1,1.63,1.52-15.98,5.28-37.4,13.17-53.06,7.08.35-.67.73-1.33,1.13-1.98h0ZM21.81,193.65c18.98-5.54,43.72-13.19,63.15-14.02.17.43.34.87.5,1.31-20.12-.38-44.36,10.03-63.39,15.04-.11-.77-.2-1.55-.26-2.33h0ZM23.6,202.26c21.87-4.29,40.56-8.84,63.33-6.17-.06.5-.13.99-.22,1.48-23.31-4.3-40.78,2.45-62.28,6.85-.3-.71-.58-1.43-.83-2.15h0ZM27.65,210.31c12.5-.79,31.69-2.72,49.79,5.72-.57.57-1.15,1.12-1.76,1.64-16.41-8.09-28.52-8.31-47.35-6.39-.23-.32-.46-.64-.68-.97h0Z"/>
          <path class="st3" d="M86.7,197.56c-23.31-4.3-40.78,2.45-62.28,6.85.88,2.07,1.97,4.05,3.22,5.9,12.5-.79,31.7-2.72,49.79,5.72,4.78-4.81,8.05-11.22,9.26-18.46h0Z"/>
          <path class="st8" d="M39.15,179.84c8.34-.19,16.58-2.69,25.41-5.71-8.01,2.43-16.49,4.5-24.48,4.77-5.23.18-10.25-.41-14.79-2.18.35-.67.73-1.33,1.13-1.98-.59.94-1.12,1.91-1.6,2.91,4.89,1.67,9.63,2.29,14.34,2.18h0Z"/>
          <path class="st6" d="M48.22,188.28c12.42-3.79,24.63-6.37,37.61-6.2-.12-.38-.24-.76-.38-1.14-20.12-.38-44.37,10.03-63.39,15.05.05.33.1.67.16,1,8.66-2.88,17.28-6.05,26-8.71h0Z"/>
          <path class="st5" d="M36.62,201.67c18.77-3.78,32.75-6.47,49.78-2.49.11-.53.22-1.07.31-1.62-18.77-3.46-33.74.24-50.09,4.1h0Z"/>
          <path class="st15" d="M29.32,212.56c17.15-3.07,29.77-2.74,45.63,5.73.25-.2.49-.41.74-.62-16.42-8.09-28.52-8.31-47.35-6.39.32.44.65.86.99,1.28h0Z"/>
          <path class="st2" d="M21.88,187.95c3.97-18.56,19.98-27.63,35.43-26.54,10.81.76,21.35,6.49,27.31,17.43-2.96-6.74-8.29-12.17-15.14-15.47-4.44-2.14-9.52-3.39-15.01-3.52-17.47-.42-30.94,12.37-32.59,28.11h0Z"/>
        </g>
      </g>
    </g>
  </g>
</svg>