<?xml version="1.0" encoding="UTF-8"?>
<svg xmlns="http://www.w3.org/2000/svg" version="1.1" xmlns:xlink="http://www.w3.org/1999/xlink" viewBox="0 0 400 400">
  <!-- Generator: Adobe Illustrator 29.0.1, SVG Export Plug-In . SVG Version: 2.1.0 Build 192)  -->
  <defs>
    <style>
      .st0 {
        fill: url(#New_Gradient_Swatch_20);
      }

      .st0, .st1, .st2, .st3, .st4, .st5, .st6, .st7, .st8, .st9, .st10, .st11, .st12, .st13 {
        fill-rule: evenodd;
      }

      .st0, .st2, .st5, .st6, .st8 {
        mix-blend-mode: screen;
      }

      .st1 {
        fill: url(#New_Gradient_Swatch_211);
      }

      .st1, .st4 {
        opacity: .5;
      }

      .st1, .st4, .st9 {
        mix-blend-mode: multiply;
      }

      .st2 {
        fill: url(#New_Gradient_Swatch_171);
      }

      .st3 {
        fill: #134bbc;
      }

      .st4 {
        fill: url(#New_Gradient_Swatch_21);
      }

      .st14 {
        isolation: isolate;
      }

      .st5 {
        fill: url(#New_Gradient_Swatch_173);
      }

      .st6 {
        fill: url(#New_Gradient_Swatch_172);
      }

      .st7 {
        fill: url(#linear-gradient1);
      }

      .st8 {
        fill: url(#New_Gradient_Swatch_17);
      }

      .st9 {
        fill: #c0e5ed;
      }

      .st10 {
        fill: url(#radial-gradient);
      }

      .st11 {
        fill: url(#linear-gradient3);
      }

      .st12 {
        fill: url(#linear-gradient);
      }

      .st13 {
        fill: url(#linear-gradient2);
      }
    </style>
    <linearGradient id="linear-gradient" x1="12.37" y1="205.36" x2="61.53" y2="205.36" gradientUnits="userSpaceOnUse">
      <stop offset="0" stop-color="#004bc9"/>
      <stop offset="1" stop-color="#003380"/>
    </linearGradient>
    <radialGradient id="radial-gradient" cx="19.42" cy="124.46" fx="19.42" fy="124.46" r="758.78" gradientUnits="userSpaceOnUse">
      <stop offset="0" stop-color="#2ea4ff"/>
      <stop offset="1" stop-color="#2478f0"/>
    </radialGradient>
    <linearGradient id="linear-gradient1" x1="201.4" y1="250.42" x2="201.4" y2="242.01" gradientUnits="userSpaceOnUse">
      <stop offset="0" stop-color="#062d70"/>
      <stop offset="1" stop-color="#034494"/>
    </linearGradient>
    <linearGradient id="linear-gradient2" x1="380.47" y1="194.48" x2="391.98" y2="194.48" gradientUnits="userSpaceOnUse">
      <stop offset="0" stop-color="#0456ba"/>
      <stop offset="1" stop-color="#083b94"/>
    </linearGradient>
    <radialGradient id="New_Gradient_Swatch_17" data-name="New Gradient Swatch 17" cx="81.95" cy="251.7" fx="81.95" fy="251.7" r="487.98" gradientUnits="userSpaceOnUse">
      <stop offset="0" stop-color="#0c3469"/>
      <stop offset="1" stop-color="#000"/>
    </radialGradient>
    <radialGradient id="New_Gradient_Swatch_21" data-name="New Gradient Swatch 21" cx="331.65" cy="-57.03" fx="331.65" fy="-57.03" r="531.09" gradientUnits="userSpaceOnUse">
      <stop offset="0" stop-color="#bac3eb"/>
      <stop offset=".99" stop-color="#fff"/>
    </radialGradient>
    <radialGradient id="New_Gradient_Swatch_211" data-name="New Gradient Swatch 21" cx="132.5" cy="468.88" fx="132.5" fy="468.88" r="522.2" xlink:href="#New_Gradient_Swatch_21"/>
    <radialGradient id="New_Gradient_Swatch_171" data-name="New Gradient Swatch 17" cx="8.37" cy="178.51" fx="8.37" fy="178.51" r="215.12" xlink:href="#New_Gradient_Swatch_17"/>
    <radialGradient id="New_Gradient_Swatch_172" data-name="New Gradient Swatch 17" cx="50.52" cy="187.4" fx="50.52" fy="187.4" r="605.87" xlink:href="#New_Gradient_Swatch_17"/>
    <linearGradient id="linear-gradient3" x1="301.27" y1="139.86" x2="327.96" y2="139.86" gradientUnits="userSpaceOnUse">
      <stop offset=".38" stop-color="#1055c9"/>
      <stop offset=".53" stop-color="#1882dc"/>
      <stop offset=".69" stop-color="#21aeef"/>
      <stop offset=".82" stop-color="#26c9fa"/>
      <stop offset=".89" stop-color="#29d4ff"/>
    </linearGradient>
    <radialGradient id="New_Gradient_Swatch_173" data-name="New Gradient Swatch 17" cx="396.98" cy="205.94" fx="396.98" fy="205.94" r="303.57" xlink:href="#New_Gradient_Swatch_17"/>
    <radialGradient id="New_Gradient_Swatch_20" data-name="New Gradient Swatch 20" cx="-63.71" cy="48.06" fx="-63.71" fy="48.06" r="731.2" gradientUnits="userSpaceOnUse">
      <stop offset="0" stop-color="#00fffa"/>
      <stop offset="1" stop-color="#000"/>
    </radialGradient>
  </defs>
  <g class="st14">
    <g id="Layer_1">
      <g>
        <path class="st12" d="M12.37,203.46l8.62,8.62,40.54-11.4c-14.2-3.26-35.73-2.81-49.16,2.78h0Z"/>
        <path class="st3" d="M391.98,144.56c-2.77,35.01-4.83,71.12-5.49,105.86-121.61-4.46-242.63-5.52-364.15,0l-6.01-6.01,369.64-105.86,6.01,6.01h0Z"/>
        <path class="st10" d="M8.36,134.98c46.56-2.2,191.07-2.48,292.9-.01,3.79,2.15,8.22,3.39,10.58,3.5,2.64.12,9.34-.85,16.12-2.75,23.74.76,43.86,1.7,58.01,2.84-.57,35.01-2.63,71.12-5.49,105.86-121.61-3.09-244.56-3.32-364.15,0-1.2-10.6-2.28-21.49-3.24-32.5,13.7-4.05,28.26-7.81,43.41-11.13-15.3.14-28.7.86-44.12,2.67-1.88-23.04-3.23-46.4-4.01-68.48h0Z"/>
        <path class="st7" d="M22.33,250.42c121.51-5.52,242.54-4.46,364.15,0l-6.01-6.01c-121.61-3.09-244.56-3.32-364.15,0l6.01,6.01h0Z"/>
        <path class="st13" d="M385.97,138.55c-.57,35.01-2.63,71.12-5.49,105.86l6.01,6.01c.66-34.74,2.72-70.85,5.49-105.86l-6.01-6.01h0Z"/>
        <path class="st8" d="M77.13,243.03c40.71-14.61,83.78-25.83,127.17-27.05,38.82-1.09,68.6,8.42,104.3,19.83-31.95-12.84-66.5-22.21-99.42-21.62-47.36.85-96.93,13.47-143.95,29.05,3.96-.08,7.93-.15,11.9-.22h0Z"/>
        <path class="st4" d="M273.39,170.79c35.5,12.8,70.7,26.04,110.21,29.34.68-11.64,1.24-23.32,1.66-34.94-26.28-.19-48.82-2.09-70.79-6.17-.53-.1-1.06-.2-1.58-.3-25.26-4.82-52.46-13.58-81.25-24.97-89.4-1.05-186.65-.51-223.27,1.22.35,10.04.83,20.34,1.41,30.75,48.08-13.67,98.53-22.82,148.62-21.66,41.94.97,78.62,13.61,114.99,26.72h0Z"/>
        <path class="st1" d="M381.59,230.18c-62.53-6.58-107.62-33.32-177.24-39.62-14.71-1.33-30.52-1.75-47.82-.87-50.95,2.58-102.02,15.17-142.89,28.49.82,8.88,1.71,17.65,2.68,26.23,11.94-.33,23.91-.63,35.9-.89,50.84-17.15,104.96-31.21,156.87-32.15,43.53-.78,91.31,14.47,131.28,32.12,13.38.27,26.75.57,40.1.91.39-4.72.76-9.46,1.12-14.23h0Z"/>
        <path class="st2" d="M10.45,177.02c44.61-15.34,76.93-24.09,121.78-29.18-41.71,2.54-83.89,12.74-122.06,24.56.09,1.54.19,3.08.29,4.62h0Z"/>
        <path class="st6" d="M14.1,223.02c51.08-20.93,106.48-32.47,161.79-32.67,45.74-.16,78.02,8.89,121.1,22.14,31.87,9.79,53.08,18.39,84.39,20.6.07-.97.15-1.93.22-2.9-75.75-7.97-125.89-45.52-225.05-40.5-50.95,2.58-102.02,15.17-142.89,28.49.15,1.62.3,3.23.45,4.84h0Z"/>
        <path class="st9" d="M265.74,242.37c-39.16-13.93-57.24-15.42-96.28-7.59,34.25-3.88,55.05-5.3,86.87,7.5,3.14.03,6.28.06,9.42.09h0ZM244.45,133.92c22.63,10.22,46.56,18.24,68.74,22.47,22.08,4.21,46.43,5.18,72.23,4.16-.05,1.55-.1,3.1-.16,4.65-26.92-.2-49.91-2.18-72.37-6.47-25.26-4.82-52.46-13.58-81.25-24.97,4.29.05,8.56.1,12.81.16h0ZM158.46,147.3c-50.02-1.16-102.09,10.78-148.29,25.09-.14-2.22-.27-4.44-.39-6.66,48.08-13.67,98.53-22.82,148.62-21.66,82.86,1.92,145.21,49.39,225.2,56.06-.1,1.73-.2,3.45-.31,5.18-55.82-4.75-102.95-29.97-154.06-45.57-23.58-7.19-45.84-11.85-70.77-12.43h0ZM13.08,211.91c42.27-12.49,92.66-22.23,143.54-24.81,99.79-5.06,149.61,30.22,225.35,37.92-.12,1.72-.25,3.44-.38,5.16-75.75-7.97-125.89-45.52-225.05-40.5-50.95,2.58-102.02,15.17-142.89,28.49-.19-2.08-.38-4.17-.56-6.26h0ZM52.23,243.52c50.84-17.15,104.96-31.22,156.87-32.15,43.53-.78,91.31,14.47,131.28,32.12-4.81-.1-9.61-.19-14.42-.28-36.54-16.46-77.8-29.72-116.77-29.02-47.36.85-96.93,13.47-143.96,29.05-4.34.09-8.67.17-13,.27h0ZM101.26,168.05c81.37-24.24,126.98,4.35,201.18,26.04-80.66-18-108.97-46.12-201.18-26.04h0Z"/>
        <path class="st11" d="M301.27,134.97c5.22,7.21,11.34,10.02,13.09,9.78,3.49-.48,8.94-3.46,13.6-9.03-6.78,1.91-13.47,2.87-16.12,2.75-2.36-.11-6.79-1.35-10.58-3.5h0Z"/>
        <path class="st5" d="M383.29,205.31c-41.95-3.57-78.99-18.7-116.51-32.63-12.4-4.6-24.85-9.07-37.55-12.95-4.94-1.51-9.82-2.9-14.68-4.17,17.39,5.54,33.71,11.58,49.99,17.76,14.5,5.51,28.97,11.13,44.11,16.61,26.24,9.49,47.41,14.87,74.48,18.12.06-.91.11-1.83.17-2.74h0Z"/>
        <path class="st0" d="M308.56,142.27c-2.28-1.58-4.88-3.97-7.29-7.31-101.84-2.46-246.34-2.19-292.9.01.55,15.73,1.4,32.11,2.52,48.56.39-15.13.78-30.26,1.16-45.39,92.87-1.47,184.39-1.58,277.23-.69,1.13.01,2.25-.03,3.38.03,8.09.49,10.47,2.34,15.91,4.77h0ZM327.96,135.71c-1.14,1.36-2.32,2.57-3.52,3.62,4.12-1.78,8.78-1.88,15.98-1.58,13.3.54,26.59,1.34,39.88,2.2,4.48.29,4.59,1.72,4.92,5.16.29,3.07.35,6.17.39,9.26.15-5.29.27-10.57.35-15.82-14.14-1.14-34.26-2.08-58.01-2.84h0Z"/>
      </g>
    </g>
  </g>
</svg>