<?xml version="1.0" encoding="UTF-8"?>
<svg xmlns="http://www.w3.org/2000/svg" version="1.1" xmlns:xlink="http://www.w3.org/1999/xlink" viewBox="0 0 400 400">
  <!-- Generator: Adobe Illustrator 29.0.1, SVG Export Plug-In . SVG Version: 2.1.0 Build 192)  -->
  <defs>
    <style>
      .st0 {
        fill: #882335;
      }

      .st0, .st1, .st2, .st3, .st4, .st5, .st6, .st7 {
        mix-blend-mode: multiply;
      }

      .st0, .st8 {
        opacity: .5;
      }

      .st9 {
        fill: url(#radial-gradient16);
      }

      .st9, .st1, .st2, .st10, .st11, .st3, .st12, .st13, .st14, .st15, .st16, .st17, .st18 {
        fill-rule: evenodd;
      }

      .st1 {
        fill: url(#radial-gradient19);
      }

      .st2 {
        opacity: .2;
      }

      .st2, .st19, .st3 {
        fill: #842924;
      }

      .st10 {
        fill: url(#radial-gradient13);
      }

      .st20 {
        fill: url(#linear-gradient1);
      }

      .st21 {
        fill: #cff6ff;
      }

      .st11 {
        fill: url(#radial-gradient20);
      }

      .st11, .st22, .st16 {
        mix-blend-mode: screen;
      }

      .st23 {
        fill: #eda65a;
      }

      .st24 {
        fill: url(#radial-gradient);
      }

      .st25 {
        fill: url(#radial-gradient5);
      }

      .st26 {
        fill: url(#radial-gradient1);
      }

      .st27 {
        clip-path: url(#clippath-1);
      }

      .st28 {
        isolation: isolate;
      }

      .st3 {
        opacity: .4;
      }

      .st12 {
        fill: url(#radial-gradient10);
      }

      .st13 {
        fill: url(#radial-gradient11);
      }

      .st29 {
        fill: url(#radial-gradient7);
      }

      .st30 {
        fill: #f6bf6c;
      }

      .st31 {
        clip-path: url(#clippath-3);
      }

      .st4 {
        opacity: .15;
      }

      .st32 {
        clip-rule: evenodd;
        fill: none;
      }

      .st14 {
        fill: url(#radial-gradient18);
      }

      .st15 {
        fill: url(#radial-gradient14);
      }

      .st5, .st22 {
        opacity: .6;
      }

      .st5, .st33 {
        fill: #892334;
      }

      .st34 {
        fill: url(#radial-gradient8);
      }

      .st35 {
        fill: url(#radial-gradient12);
      }

      .st6 {
        opacity: .1;
      }

      .st36 {
        fill: url(#radial-gradient17);
      }

      .st37 {
        fill: url(#radial-gradient6);
      }

      .st38 {
        fill: url(#radial-gradient2);
      }

      .st39 {
        fill: url(#radial-gradient15);
      }

      .st22 {
        fill: #d9772f;
      }

      .st40 {
        clip-path: url(#clippath-2);
      }

      .st41 {
        fill: url(#radial-gradient4);
      }

      .st42 {
        fill: url(#radial-gradient3);
      }

      .st43 {
        fill: #444671;
      }

      .st16 {
        fill: url(#radial-gradient21);
      }

      .st44 {
        fill: url(#radial-gradient9);
      }

      .st45 {
        fill: url(#linear-gradient);
      }

      .st17 {
        fill: url(#linear-gradient3);
      }

      .st46 {
        clip-path: url(#clippath);
      }

      .st7 {
        opacity: .05;
      }

      .st18 {
        fill: url(#linear-gradient2);
      }
    </style>
    <linearGradient id="linear-gradient" x1="213.15" y1="288.78" x2="209.63" y2="145.54" gradientUnits="userSpaceOnUse">
      <stop offset="0" stop-color="#8c2727"/>
      <stop offset=".41" stop-color="#b04e34"/>
      <stop offset=".79" stop-color="#cb6b3e"/>
      <stop offset="1" stop-color="#d67642"/>
    </linearGradient>
    <radialGradient id="radial-gradient" cx="392.57" cy="104.54" fx="392.57" fy="104.54" r="330.78" gradientUnits="userSpaceOnUse">
      <stop offset="0" stop-color="#ed36ed"/>
      <stop offset=".95" stop-color="#8e208e"/>
    </radialGradient>
    <radialGradient id="radial-gradient1" cx="392.57" cy="104.54" fx="392.57" fy="104.54" r="330.78" xlink:href="#radial-gradient"/>
    <radialGradient id="radial-gradient2" cx="392.57" cy="104.54" fx="392.57" fy="104.54" r="330.78" xlink:href="#radial-gradient"/>
    <radialGradient id="radial-gradient3" cx="392.57" cy="104.54" fx="392.57" fy="104.54" r="330.78" xlink:href="#radial-gradient"/>
    <radialGradient id="radial-gradient4" cx="392.57" cy="104.54" fx="392.57" fy="104.54" r="330.78" xlink:href="#radial-gradient"/>
    <radialGradient id="radial-gradient5" cx="392.57" cy="104.54" fx="392.57" fy="104.54" r="330.78" xlink:href="#radial-gradient"/>
    <radialGradient id="radial-gradient6" cx="392.57" cy="104.54" fx="392.57" fy="104.54" r="330.78" xlink:href="#radial-gradient"/>
    <radialGradient id="radial-gradient7" cx="392.57" cy="104.54" fx="392.57" fy="104.54" r="330.78" xlink:href="#radial-gradient"/>
    <radialGradient id="radial-gradient8" cx="392.57" cy="104.54" fx="392.57" fy="104.54" r="330.78" xlink:href="#radial-gradient"/>
    <radialGradient id="radial-gradient9" cx="113.25" cy="260.73" fx="113.25" fy="260.73" r="69.61" gradientUnits="userSpaceOnUse">
      <stop offset="0" stop-color="#8ea3ad"/>
      <stop offset="1" stop-color="#56668a"/>
    </radialGradient>
    <radialGradient id="radial-gradient10" cx="122.77" cy="243.06" fx="122.77" fy="243.06" r="91.6" gradientUnits="userSpaceOnUse">
      <stop offset="0" stop-color="#abd9d9"/>
      <stop offset="1" stop-color="#97bfbf"/>
    </radialGradient>
    <radialGradient id="radial-gradient11" cx="122.77" cy="243.06" fx="122.77" fy="243.06" r="91.6" xlink:href="#radial-gradient10"/>
    <radialGradient id="radial-gradient12" cx="367.93" cy="250.47" fx="367.93" fy="250.47" r="55.37" xlink:href="#radial-gradient9"/>
    <radialGradient id="radial-gradient13" cx="367.59" cy="246.73" fx="367.59" fy="246.73" r="50" xlink:href="#radial-gradient10"/>
    <radialGradient id="radial-gradient14" cx="367.59" cy="246.73" fx="367.59" fy="246.73" r="50" xlink:href="#radial-gradient10"/>
    <radialGradient id="radial-gradient15" cx="548.37" cy="109.75" fx="548.37" fy="109.75" r="51.3" gradientTransform="translate(591.96) rotate(-180) scale(1 -1)" xlink:href="#radial-gradient9"/>
    <radialGradient id="radial-gradient16" cx="561.76" cy="102.84" fx="561.76" fy="102.84" r="52.13" gradientTransform="translate(591.96) rotate(-180) scale(1 -1)" xlink:href="#radial-gradient10"/>
    <radialGradient id="radial-gradient17" cx="860.48" cy="105.26" fx="860.48" fy="105.26" r="51.06" gradientTransform="translate(-494.54)" xlink:href="#radial-gradient9"/>
    <radialGradient id="radial-gradient18" cx="873.8" cy="98.38" fx="873.8" fy="98.38" r="51.88" gradientTransform="translate(-494.54)" xlink:href="#radial-gradient10"/>
    <linearGradient id="linear-gradient1" x1="219.89" y1="152.65" x2="166.48" y2="288.92" gradientTransform="translate(405.99 -7.18) rotate(178.22) scale(1 -1)" gradientUnits="userSpaceOnUse">
      <stop offset="0" stop-color="#edd095"/>
      <stop offset="1" stop-color="#d3a180"/>
    </linearGradient>
    <clipPath id="clippath">
      <path class="st32" d="M99.13,135.65l112.21,3.4,128.13-4.09-2.7,32.65c-39.38-42.86-224.79-29.17-253.29,10.1l-5.17-26.09,20.82-15.98Z"/>
    </clipPath>
    <clipPath id="clippath-1">
      <path class="st32" d="M91.34,231.05c23.15,49.16,209.93,33.81,239.53-.67l.67.05.72,18.88-15.76,24.7-103.33-2.51-125.87,2.76,4.04-43.22Z"/>
    </clipPath>
    <radialGradient id="radial-gradient19" cx="90.99" cy="273.04" fx="90.99" fy="273.04" r="27.27" gradientTransform="translate(405.94 .05) rotate(178.26) scale(1 -.98) skewX(-.07)" gradientUnits="userSpaceOnUse">
      <stop offset="0" stop-color="#a2887a"/>
      <stop offset="1" stop-color="#fff"/>
    </radialGradient>
    <clipPath id="clippath-2">
      <path class="st32" d="M335.8,179l-1.19,8.72c-2.09-3.78-5.83-8.04-8.38-11.34l9.56,2.63Z"/>
    </clipPath>
    <clipPath id="clippath-3">
      <path class="st32" d="M78.31,151.63l1.25-1.74,19.57-14.24,112.21,3.4,128.13-4.09-.71,10.45-2.23,24.88-11.72,3.91c-43.6-51.1-211.71-39.02-237.21,25.43l-9.28-48Z"/>
    </clipPath>
    <linearGradient id="linear-gradient2" x1="329.7" y1="131.9" x2="316.81" y2="146.6" xlink:href="#linear-gradient1"/>
    <linearGradient id="linear-gradient3" x1="91.79" y1="264.79" x2="101.94" y2="257.25" gradientTransform="translate(405.99 -7.18) rotate(178.22) scale(1 -1)" gradientUnits="userSpaceOnUse">
      <stop offset="0" stop-color="#d3a180"/>
      <stop offset=".83" stop-color="#edd095"/>
    </linearGradient>
    <radialGradient id="radial-gradient20" cx="332.26" cy="73.31" fx="332.26" fy="73.31" r="26.72" gradientTransform="translate(397.56 -1.59) rotate(169.15) scale(1 -.98) skewX(-.41)" gradientUnits="userSpaceOnUse">
      <stop offset="0" stop-color="#000"/>
      <stop offset="1" stop-color="#a2805e"/>
    </radialGradient>
    <radialGradient id="radial-gradient21" cx="84.98" cy="265.25" fx="84.98" fy="265.25" r="24.53" gradientTransform="translate(405.94 .05) rotate(178.26) scale(1 -.98) skewX(-.07)" xlink:href="#radial-gradient20"/>
  </defs>
  <g class="st28">
    <g id="Layer_1">
      <g>
        <g>
          <g>
            <polygon class="st45" points="359.3 293.82 54.8 295.58 55.02 240.36 62.61 236.43 51.59 231.77 43.24 118.98 206.43 122.5 374.53 110.91 358.68 173.76 351.67 178.56 356.21 181.23 359.3 293.82"/>
            <polygon class="st33" points="358.68 173.76 351.67 178.56 315.28 180.11 358.68 173.76"/>
            <polygon class="st22" points="356.21 181.23 351.67 178.56 315.28 180.11 356.21 181.23"/>
            <polygon class="st33" points="51.59 231.77 93.18 233.37 62.61 236.43 51.59 231.77"/>
            <polygon class="st22" points="55.02 240.36 62.61 236.43 93.18 233.37 55.02 240.36"/>
            <polygon class="st23" points="43.24 118.98 60.85 112.12 205.18 115.29 352.54 106.13 374.53 110.91 206.43 122.5 43.24 118.98"/>
            <g>
              <polygon class="st33" points="330.02 170.73 339.28 167.58 348.39 167.45 330.02 170.73"/>
              <polygon class="st22" points="330.02 170.73 339.66 170.66 348.39 167.45 330.02 170.73"/>
            </g>
            <g>
              <polygon class="st33" points="305.65 268.08 327.68 269.24 347.84 274.09 305.65 268.08"/>
              <polygon class="st22" points="305.65 268.08 326.97 273.3 347.84 274.09 305.65 268.08"/>
            </g>
            <g>
              <polygon class="st33" points="74.48 173.54 88.61 173.83 101.22 177.71 74.48 173.54"/>
              <polygon class="st22" points="74.48 173.54 87.81 177.72 101.22 177.71 74.48 173.54"/>
            </g>
            <g>
              <polygon class="st33" points="71.75 164.85 76.27 164.5 78.39 167.5 71.75 164.85"/>
              <polygon class="st22" points="71.75 164.85 73.94 168.1 78.39 167.5 71.75 164.85"/>
            </g>
            <g class="st4">
              <path class="st24" d="M360.02,168.42c-1.26.19-2.52.38-3.78.6-10.1,1.7-20.03,4.26-29.72,7.6-20.27,6.98-39.44,17.02-57.07,29.19-34.69,23.95-62.96,55.65-88.33,89.05h1.98c22.47-27.37,47.53-52.83,76.92-72.71,17.42-11.78,36.37-21.44,56.37-27.99,9.65-3.16,19.54-5.67,29.56-7.33,3.44-.57,6.89-1.03,10.36-1.39l-.11-4.19-4.55-2.68,7.01-4.8,1.35-5.34Z"/>
              <path class="st26" d="M357.1,213.74c-18.73,2.66-37.11,8.59-53.24,16.25-31.71,15.06-59.65,38.37-82.88,64.63h1.64c23.09-23.01,47.62-43.94,77.46-58.07,16.93-8.02,35.05-13.6,53.64-15.99,1.19-.15,2.37-.29,3.55-.41l-.18-6.41Z"/>
              <path class="st38" d="M358.09,249.75c-26.69,6.81-51.96,23.89-69.06,44.47h.75c10.49-11.65,22.52-21.49,36.43-29.08,10.37-5.66,20.97-9.36,31.97-12.04l-.09-3.35Z"/>
              <path class="st42" d="M110.77,152.57c8.09-8.47,15.7-19.74,20.82-31.69l-1.43-.03c-1.27,3.76-2.84,7.42-4.81,10.92.3-.62-1.58,2.23-1.89,2.67-.74,1.02-1.5,2.03-2.28,3.02-1.62,2.06-3.33,4.05-5.13,5.96-3.93,4.18-8.28,7.95-12.93,11.31-9.42,6.8-20.29,11.75-31.39,15.11-8.35,2.53-16.37,2.3-24.6,1.81l.34,4.64c9.87.54,20.67-1.25,29.22-3.34,13-3.16,24.89-10.75,34.07-20.37Z"/>
              <path class="st41" d="M45.77,153.23c13.44,1.31,27.77-1.9,34.82-13.55,3.51-5.79,6.26-11.17,6.13-18.22,0-.51-.05-1.03-.08-1.54l-5.42-.12c1.51,6.51,2.25,13.02-.45,19.35-3.76,5.44-12.34,9.22-18.44,10.43-5.77,1.15-11.3.78-16.82-.01l.27,3.66Z"/>
              <path class="st25" d="M342.07,120.47c-4.66.7-8.22,4.57-11.74,8.19-6.93,4.25-12.86,10.62-17.13,17.35,0-.03.01-.05.02-.08-.15.26-.3.52-.45.77-.23.38-.47.75-.69,1.13-.5.86-1.28,2.02-1.82,3.22,0,0,0,0,0,.01,0,0,0,0,0,0-.77,1.72-1.04,3.52.76,4.61,2.4,1.45,6.04-1.19,7.98-2.29,3.68-2.1,7.32-4.29,10.99-6.4,5.83-3.36,10.91-6.18,14.67-10.81-.14.33-.29.66-.48,1,.28-.48.56-.96.84-1.45,1.29-1.67,2.42-3.58,3.36-5.82,2.04-4.9-.46-10.32-6.32-9.44ZM322.88,137.14s-.09.07-.13.11c.04-.04.09-.07.13-.11Z"/>
              <path class="st37" d="M49.83,208.08c35.59,15.74,79.22-6.97,108.36-27.67,16.2-11.51,29.7-24.99,39.7-42.23,2.96-5.11,5.8-10.25,8.03-15.69l-2.06-.04c-1.08,3.89-2.45,7.7-4.08,11.39-1.59,3.6-3.87,7.14-8.32,12.46-12.1,14.45-27.61,25.59-43.47,35.57-30.04,18.9-64.48,31.57-98.59,20.46l.43,5.77Z"/>
              <path class="st29" d="M72.4,281.89c12.57-3.18,25.04-6.75,37.32-10.91,23.26-7.87,45.85-17.89,66.63-31.05,32.98-20.89,60.74-50.11,76.63-86.03,5-11.3,8.66-23.2,10.81-35.35l-1.29.09c-4.63,31.05-20.1,60.2-42.1,83.24-29.46,30.85-68.26,51.24-108.26,64.91-12.3,4.2-24.8,7.82-37.4,11.05-6.58,1.69-13.25,3.12-19.89,4.64l-.02,3.82c5.91-1.37,11.78-2.93,17.56-4.39Z"/>
              <path class="st34" d="M293.16,116.52c1.28,19.84-4.32,39.17-18.17,55.46-.25.3-.34.75-.6,1.03,13.78-14.98,22.64-35.87,24.37-56.88l-5.6.39Z"/>
            </g>
            <polygon class="st30" points="160.08 121.52 207.79 127.18 274.93 117.75 206.43 120.78 160.08 121.52"/>
          </g>
          <g>
            <g>
              <polygon class="st5" points="52.84 300.35 68.85 255.18 70.22 256.02 72.65 282.52 102.49 281.69 103.85 281.91 106.97 295.17 52.84 300.35"/>
              <polygon class="st44" points="48.78 300.77 50.5 254.39 65.96 256.11 67.68 283.59 100.32 283.59 103.76 300.77 48.78 300.77"/>
              <polygon class="st12" points="50.5 254.39 55.23 252.59 55.48 254.01 68.85 255.18 65.96 256.11 50.5 254.39"/>
              <polygon class="st13" points="67.68 283.59 70.86 281.8 102.49 281.69 100.32 283.59 67.68 283.59"/>
              <polygon class="st43" points="68.85 255.18 70.86 281.8 67.68 283.59 65.96 256.11 68.85 255.18"/>
              <polygon class="st43" points="102.49 281.69 100.32 283.59 103.76 300.77 108.78 295.22 105.52 295.14 102.49 281.69"/>
              <polygon class="st21" points="67.68 283.59 101.08 282.95 102.12 293.18 99.59 284.14 67.68 283.59"/>
              <polygon class="st21" points="61.43 255.58 65.96 257.96 66.81 255.8 61.43 255.58"/>
            </g>
            <g>
              <polygon class="st5" points="361.11 300.28 345.61 254.66 344.48 254.97 341.59 282.71 311.06 281.74 310.1 281.85 306.55 294.1 361.11 300.28"/>
              <polygon class="st35" points="364.74 300.71 363.02 254.32 347.56 256.04 345.22 283.13 313.2 283.53 309.76 300.71 364.74 300.71"/>
              <polygon class="st10" points="363.02 254.32 358.07 251.38 357.85 253.53 345.61 254.66 347.56 256.04 363.02 254.32"/>
              <polygon class="st15" points="345.22 283.13 343.12 281.28 311.06 281.74 313.2 283.53 345.22 283.13"/>
              <polygon class="st43" points="311.06 281.74 313.2 283.53 309.76 300.71 304.95 294.14 307.78 294.03 311.06 281.74"/>
              <polygon class="st43" points="345.61 254.66 347.56 256.04 345.22 283.13 343.12 281.28 345.61 254.66"/>
              <polygon class="st21" points="347.56 256.04 363.02 254.32 363.17 258.57 362.26 255.57 347.56 256.04"/>
              <polygon class="st21" points="311.18 293.74 314.12 284.68 334.62 283.32 313.2 283.53 311.18 293.74"/>
            </g>
            <g>
              <polygon class="st5" points="39.17 119.66 45.85 154.55 58.57 152.96 53.78 129.01 86.74 131.05 87.3 128.37 84.99 120.68 89.93 112.31 34.35 112.92 39.17 119.66"/>
              <polygon class="st39" points="29.91 114.31 39.79 155.49 55.25 153.78 50.1 128.01 85.47 130.11 85.47 118.43 30.7 112.68 29.91 114.31"/>
              <polygon class="st9" points="85.47 118.43 94.18 108.02 48.85 103.69 31.14 111.8 30.7 112.68 85.47 118.43"/>
              <polygon class="st43" points="85.47 130.11 87.3 128.37 87.55 120.89 93.63 112.87 94.6 112.95 94.18 108.02 85.47 118.43 85.47 130.11"/>
              <polygon class="st43" points="55.25 153.78 56.93 151.49 52.42 128.16 50.1 128.01 55.25 153.78"/>
              <polygon class="st21" points="60.74 115.84 52.93 116.38 43.84 114.05 60.74 115.84"/>
              <polygon class="st21" points="81.52 118.06 85.51 120.53 87.21 116.36 81.52 118.06"/>
            </g>
            <g>
              <polygon class="st5" points="370.34 115.12 363.69 149.85 351.03 148.27 355.8 124.42 322.99 126.45 322.44 123.79 324.74 116.14 319.82 107.81 375.14 108.42 370.34 115.12"/>
              <polygon class="st36" points="379.56 109.8 369.72 150.79 354.33 149.08 359.46 123.43 324.26 125.52 324.26 113.9 378.77 108.17 379.56 109.8"/>
              <polygon class="st14" points="324.26 113.9 315.59 103.54 360.7 99.23 378.33 107.3 378.77 108.17 324.26 113.9"/>
              <polygon class="st43" points="324.26 125.52 322.44 123.79 322.22 114.98 316.14 108.45 315.17 108.44 315.59 103.54 324.26 113.9 324.26 125.52"/>
              <polygon class="st43" points="354.33 149.08 352.67 146.8 357.15 123.58 359.46 123.43 354.33 149.08"/>
              <polygon class="st21" points="328.45 113.43 336.58 113.98 345.94 111.65 328.45 113.43"/>
              <polygon class="st21" points="376.73 108.37 361.01 109.66 348.75 111.34 361.86 111.41 376.73 108.37"/>
            </g>
          </g>
        </g>
        <g>
          <polygon class="st0" points="339.36 136.32 212.86 142.43 101.38 139 79.57 154.98 90.44 211.3 107.07 216.59 91.76 219.07 93.31 228.38 90.13 278.91 211.29 275.9 314.27 278.53 331.81 252.71 331.09 233.84 316.74 235.06 331.22 225.9 331.13 223.39 320.84 220.28 331.03 214.21 331.75 209.85 335.8 179 323.24 176.67 336.21 173.22 339.36 136.32"/>
          <polygon class="st20" points="339.47 134.96 212.54 139.05 99.13 135.65 78.31 151.63 89.51 209.24 106.05 213.23 90.6 215.71 92.18 221.66 87.3 274.26 213.17 271.5 316.5 274.01 332.26 249.31 331.55 230.43 317.05 229.3 331.7 222.77 331.59 216.71 321.2 216.88 331.49 211.99 331.71 210.43 335.8 179 321.3 175.15 336.53 170.29 339.47 134.96"/>
          <g class="st7">
            <g class="st46">
              <rect class="st19" x="78.31" y="124.76" width="261.16" height="52.96"/>
              <polygon class="st19" points="209.65 123.48 87.9 123.48 77.04 123.48 77.04 178.99 340.74 178.99 340.74 123.48 209.65 123.48"/>
              <path class="st19" d="M207.74,123.48h-90.77,1.9v-7.49c1.23,4.6,3.03,9.04,5.35,13.26,4.64,8.45,11.33,16.04,19.59,22.41,16.52,12.73,39.3,20.55,64.44,20.43,25.14-.12,47.86-8.15,64.29-21.04,8.21-6.44,14.85-14.1,19.43-22.59,2.29-4.25,4.06-8.7,5.26-13.31v8.33h-89.48Z"/>
            </g>
          </g>
          <g class="st7">
            <g class="st27">
              <rect class="st19" x="87.3" y="230.38" width="244.96" height="49.82"/>
              <path class="st19" d="M199.91,229.11h-102.93v-3.77c-4.45,5.16-8.28,10.68-11.4,16.48h.45v39.67h237.93v6.72c.41-3.25.62-6.55.61-9.89-.05-13.35-3.57-26.05-9.9-37.58-3.17-5.77-7.03-11.25-11.52-16.37v4.75h-103.23Z"/>
              <path class="st19" d="M198.4,229.11h-65.56,19.38v-1.74c11.93,9.2,28.39,14.84,46.54,14.75s34.57-5.89,46.44-15.2v2.18h-46.8Z"/>
            </g>
          </g>
          <g class="st4">
            <polygon class="st19" points="331.7 171.85 321.3 175.15 332.3 167.66 336.45 138.88 205.12 141.45 99.34 136.71 80.71 152.29 92.66 206.13 106.05 213.23 92.84 210.04 89.51 209.24 78.31 151.63 99.13 135.65 212.54 139.05 339.47 134.96 336.53 170.29 331.7 171.85"/>
            <polygon class="st19" points="335.8 179 331.71 210.43 331.49 211.99 328.87 213.24 321.2 216.88 328.74 213.03 328.72 212.47 330.27 181.24 330.36 180.61 321.3 175.15 330.85 177.73 335.8 179"/>
            <polygon class="st19" points="329 216.76 331.59 216.71 331.7 222.77 329.22 223.87 317.05 229.3 329.11 220.86 321.2 216.88 329 216.76"/>
            <polygon class="st19" points="94.95 219.7 94.59 239.73 90.84 270.1 213.74 269.8 315.61 271.95 329.22 252.4 329.57 233.42 317.05 229.3 331.55 230.43 332.26 249.31 316.5 274.01 213.17 271.5 87.3 274.26 92.18 221.66 90.6 215.71 93.89 215.18 106.05 213.23 94.95 219.7"/>
          </g>
          <path class="st3" d="M99.13,135.65c-7.34,5.33-13.48,10.65-20.82,15.98.92,1.51,6.4,6.15,7.46,6.02,1.03-.12,11.32-19.27,13.36-22.01h0Z"/>
          <path class="st1" d="M332.26,249.31c-3.85,2.09-22.44,9.68-23.12,11.42-.53,1.37,6.66,10.7,7.35,13.28,5.25-8.23,10.51-16.47,15.76-24.7h0Z"/>
          <g class="st8">
            <g class="st6">
              <g class="st40">
                <rect class="st19" x="326.24" y="176.38" width="9.56" height="11.34"/>
                <path class="st19" d="M331.4,184.75c-3.86.02-6.99,2.47-6.98,5.48l.55-1.24h12.11l1.34,1.17c-.01-3.01-3.15-5.43-7.02-5.41Z"/>
                <path class="st19" d="M331.32,184.03c-2.04,0-3.69,1.3-3.69,2.89,0,1.59,1.66,2.87,3.71,2.86,2.04,0,3.69-1.3,3.69-2.89,0-1.59-1.66-2.87-3.71-2.86Z"/>
              </g>
            </g>
            <g class="st6">
              <g class="st31">
                <rect class="st19" x="78.31" y="123.1" width="261.16" height="76.53"/>
                <path class="st19" d="M210.49,121.83h-122.1v-7.4c-3.9,3.06-7.61,6.26-11.12,9.6-1.76,1.67-3.46,3.37-5.11,5.1h4.89v71.77h263.7v-78.14h3.32c-3.53-3.3-7.27-6.47-11.19-9.49v8.55h-122.38Z"/>
                <path class="st19" d="M208.58,121.83h-89.24v-8.11c-1.2,4.63-1.82,9.42-1.8,14.32.14,39.21,41.12,70.8,91.54,70.56,50.42-.24,91.18-32.22,91.04-71.43,0-2.45-.18-4.87-.5-7.26v1.92h-91.05Z"/>
              </g>
            </g>
          </g>
          <path class="st18" d="M86.16,154.56c3.94-6.35,8.61-13.46,12.98-18.92-1.8.4-21.23,14.25-20.83,15.99,2.85,1.23,4.64,2.25,7.85,2.92h0Z"/>
          <path class="st17" d="M332.26,249.31c-6.61,3.4-13.25,6.74-19.57,10.63,1.58,4.59,2.73,9.32,3.8,14.07,1.68-.1,15.87-22.94,15.76-24.7h0Z"/>
          <path class="st2" d="M332.26,249.31c-6.61,3.4-13.25,6.74-19.57,10.63,1.58,4.59,2.73,9.32,3.8,14.07,1.68-.1,15.87-22.94,15.76-24.7h0Z"/>
          <path class="st11" d="M94.54,138.98c-1.04,4.94-12.33,12.48-14.29,13.51.72.38,4.09,1.69,5.91,2.07,3.93-6.34,8.58-13.42,12.94-18.87.01-.01.02-.03.03-.04-.47.11-1.99,1.2-4.35,2.71.03.22-.23.39-.24.63,0,0,0,0,0,0h0Z"/>
          <path class="st16" d="M315.48,261.38c1.71-4.64,10.23-8.36,15.44-9.96.2-.06.4-.12.59-.18.49-.99.77-1.68.76-1.93-.16.09-.34.18-.54.28-6.43,3.31-12.89,6.57-19.03,10.36,1.58,4.59,2.73,9.32,3.8,14.07.1,0,.25-.1.44-.27-.04-.08-.07-.17-.11-.26-1.29-3.15-2.52-8.95-1.35-12.11h0Z"/>
        </g>
      </g>
    </g>
  </g>
</svg>