<?xml version="1.0" encoding="UTF-8"?>
<svg id="Layer_1" xmlns="http://www.w3.org/2000/svg" version="1.1" xmlns:xlink="http://www.w3.org/1999/xlink" viewBox="0 0 400 400">
  <!-- Generator: Adobe Illustrator 29.0.1, SVG Export Plug-In . SVG Version: 2.1.0 Build 192)  -->
  <defs>
    <style>
      .st0 {
        fill: url(#radial-gradient4);
        opacity: .5;
      }

      .st0, .st1, .st2, .st3, .st4, .st5, .st6, .st7, .st8, .st9, .st10 {
        fill-rule: evenodd;
      }

      .st0, .st1, .st4, .st5, .st6, .st11, .st7, .st9 {
        isolation: isolate;
      }

      .st0, .st1, .st5 {
        mix-blend-mode: multiply;
      }

      .st1 {
        fill: url(#radial-gradient1);
      }

      .st2 {
        fill: url(#radial-gradient3);
      }

      .st3 {
        fill: url(#radial-gradient2);
      }

      .st4 {
        fill: url(#radial-gradient6);
      }

      .st4, .st6, .st7, .st9 {
        mix-blend-mode: screen;
      }

      .st5 {
        fill: url(#radial-gradient5);
      }

      .st6 {
        fill: url(#radial-gradient);
      }

      .st7 {
        fill: #fcce3a;
      }

      .st8 {
        fill: url(#linear-gradient1);
      }

      .st9 {
        fill: #fffce4;
      }

      .st10 {
        fill: url(#linear-gradient);
      }
    </style>
    <linearGradient id="linear-gradient" x1="174.64" y1="144.15" x2="226.81" y2="234.51" gradientTransform="translate(0 400.11) scale(1 -1)" gradientUnits="userSpaceOnUse">
      <stop offset="0" stop-color="#e86f0c"/>
      <stop offset=".69" stop-color="#fc940d"/>
      <stop offset="1" stop-color="#e86f0c"/>
    </linearGradient>
    <radialGradient id="radial-gradient" cx="193.75" cy="204.47" fx="193.75" fy="204.47" r="48.99" gradientTransform="translate(0 400.11) scale(1 -1)" gradientUnits="userSpaceOnUse">
      <stop offset="0" stop-color="#fff369"/>
      <stop offset=".11" stop-color="#faee67"/>
      <stop offset=".23" stop-color="#ece161"/>
      <stop offset=".36" stop-color="#d6cc58"/>
      <stop offset=".5" stop-color="#b6ae4b"/>
      <stop offset=".64" stop-color="#8e873a"/>
      <stop offset=".78" stop-color="#5c5826"/>
      <stop offset=".92" stop-color="#22210e"/>
      <stop offset="1" stop-color="#000"/>
    </radialGradient>
    <radialGradient id="radial-gradient1" cx="168.05" cy="207.81" fx="168.05" fy="207.81" r="71.09" gradientTransform="translate(0 400.11) scale(1 -1)" gradientUnits="userSpaceOnUse">
      <stop offset=".51" stop-color="#fff"/>
      <stop offset=".68" stop-color="#e5dcc2"/>
      <stop offset="1" stop-color="#b09444"/>
    </radialGradient>
    <radialGradient id="radial-gradient2" cx="158.55" cy="249.92" fx="158.55" fy="249.92" r="91.17" gradientTransform="translate(0 400.11) scale(1 -1)" gradientUnits="userSpaceOnUse">
      <stop offset="0" stop-color="#fcf80d"/>
      <stop offset="1" stop-color="#fc9c0d"/>
    </radialGradient>
    <radialGradient id="radial-gradient3" cx="132.33" cy="258.95" fx="132.33" fy="258.95" r="111.4" gradientTransform="translate(0 400.11) scale(1 -1)" gradientUnits="userSpaceOnUse">
      <stop offset="0" stop-color="#fcf80d"/>
      <stop offset="1" stop-color="#f78a0c"/>
    </radialGradient>
    <radialGradient id="radial-gradient4" cx="194.44" cy="195.1" fx="194.44" fy="195.1" r="64.36" gradientTransform="translate(0 400.11) scale(1 -1)" gradientUnits="userSpaceOnUse">
      <stop offset=".51" stop-color="#fff"/>
      <stop offset=".69" stop-color="#ffe1c2"/>
      <stop offset="1" stop-color="#ffa84b"/>
    </radialGradient>
    <linearGradient id="linear-gradient1" x1="143.2" y1="175.51" x2="183.32" y2="244.99" gradientTransform="translate(0 400.11) scale(1 -1)" gradientUnits="userSpaceOnUse">
      <stop offset="0" stop-color="#fc940d"/>
      <stop offset="1" stop-color="#e86f0c"/>
    </linearGradient>
    <radialGradient id="radial-gradient5" cx="195.58" cy="192.38" fx="195.58" fy="192.38" r="62.39" xlink:href="#radial-gradient1"/>
    <radialGradient id="radial-gradient6" cx="130.15" cy="257.69" fx="130.15" fy="257.69" r="82.96" xlink:href="#radial-gradient"/>
  </defs>
  <g class="st11">
    <g id="Layer_11" data-name="Layer_1">
      <g>
        <path class="st10" d="M217.36,161.29c16.89,12.83,20.16,40,6.84,63.04-13.32,23.05-38.46,33.8-58.02,25.6-5.07-2.13-9.64-4.42-15.02-7.53l26.08-45.18,26.08-45.18c5.39,3.11,9.65,5.93,14.03,9.24h0Z"/>
        <path class="st6" d="M216.82,167.41c11.68,8.86,15.64,28.57,8.71,45.76-6.92,17.19-22.28,25.76-35.34,20.33-3.39-1.4-6.46-2.95-10.12-5.06l13.57-33.68,13.57-33.68c3.66,2.11,6.58,4.04,9.61,6.33h-.02Z"/>
        <path class="st1" d="M218.51,166.46c14.39,10.97,17.57,34.6,6.76,54.85-10.05,18.83-28.88,28.53-44.79,24.25-10.07,2.79-20.44,1.97-29.31-3.15,5.39,3.11,9.96,5.4,15.02,7.53,19.55,8.22,44.72-2.54,58.02-25.6,13.31-23.06,10.04-50.22-6.84-63.04-4.35-3.31-8.62-6.12-13.96-9.2,5.32,3.09,9.56,7.41,12.66,12.56.82.59,1.62,1.19,2.44,1.8h0Z"/>
        <path class="st7" d="M206.26,154.14c19.16,11.07,23.41,39.61,9.46,63.76-13.94,24.15-40.78,34.75-59.95,23.68-19.16-11.07-23.41-39.61-9.46-63.76,13.94-24.15,40.78-34.75,59.95-23.68h0Z"/>
        <path class="st3" d="M203.34,152.05c20.26,11.69,25.01,41.4,10.6,66.36-14.4,24.95-42.51,35.7-62.77,24-20.26-11.69-25.01-41.4-10.6-66.36,14.4-24.95,42.51-35.7,62.77-24h0Z"/>
        <path class="st9" d="M182.44,233.72c-.27,1.14-1.3,2.16-2.73,2.54-1.23.33-2.45.1-3.28-.51-6.06,1.42-12.2,1.02-17.77-1.58-16.07-7.5-21.29-30.35-11.65-51.02,5.27-11.29,13.87-19.6,23.23-23.59.08-1.33,1.22-2.61,2.86-3.05,1.51-.41,3.01.02,3.8.97,2.15-.43,4.31-.63,6.44-.57.47-.76,1.52-1.17,2.63-.93.91.19,1.61.76,1.9,1.44,1.95.4,3.86,1.02,5.71,1.87,16.07,7.5,21.29,30.35,11.65,51.02-5.19,11.12-13.61,19.35-22.81,23.42h0Z"/>
        <path class="st2" d="M196.41,161.25c15.15,8.74,18.32,31.63,7.06,51.11-11.24,19.48-32.65,28.19-47.8,19.44-15.15-8.74-18.32-31.63-7.06-51.11,11.24-19.48,32.65-28.19,47.8-19.44h0Z"/>
        <path class="st0" d="M156.87,188.41c10.65-18.45,30.91-26.68,45.26-18.41,2.06,1.19,3.88,2.65,5.47,4.34-2.29-5.54-6.05-10.13-11.18-13.09-15.15-8.74-36.55-.04-47.8,19.44-11.24,19.48-8.09,42.37,7.06,51.11,1.1.64,2.23,1.18,3.39,1.63-10.35-9.86-11.61-28.7-2.19-45.03h0Z"/>
        <path class="st8" d="M153.6,183.57c10.3-17.83,29.09-26.63,43.82-21.29.47.17.94.36,1.39.56-.4-.3-.81-.58-1.23-.86-.39-.26-.79-.5-1.2-.74-15.15-8.74-36.55-.04-47.8,19.44-11.24,19.48-8.09,42.37,7.06,51.11.41.24.82.46,1.23.67.45.23.9.44,1.35.64-.4-.3-.8-.61-1.18-.94-11.99-10.08-13.76-30.77-3.48-48.59h0Z"/>
        <path class="st5" d="M186.84,160.77c3.65-.2,7.22.29,10.59,1.5.47.17.94.36,1.39.56-.4-.3-.81-.58-1.23-.86-.39-.26-.79-.5-1.2-.74-15.15-8.74-36.55-.04-47.8,19.44-11.24,19.48-8.09,42.37,7.06,51.11.41.24.82.46,1.23.67.45.23.9.44,1.35.64-.4-.3-.8-.61-1.18-.94-1.85-1.55-3.46-3.36-4.81-5.37-11.17-9.37-13.02-28.69-3.7-45.39,8.88-15.91,24.97-24.18,38.26-20.65h0Z"/>
        <path class="st4" d="M199.78,169.72c-26.85-12.21-51.93,22.78-48.23,45.38,14.85-5.55,39.55-17.72,48.23-45.38h0Z"/>
      </g>
    </g>
  </g>
</svg>