<?xml version="1.0" encoding="UTF-8"?>
<svg xmlns="http://www.w3.org/2000/svg" version="1.1" xmlns:xlink="http://www.w3.org/1999/xlink" viewBox="0 0 400 400">
  <!-- Generator: Adobe Illustrator 29.0.1, SVG Export Plug-In . SVG Version: 2.1.0 Build 192)  -->
  <defs>
    <style>
      .st0 {
        fill: url(#linear-gradient3);
      }

      .st0, .st1, .st2, .st3, .st4, .st5, .st6, .st7, .st8, .st9, .st10, .st11, .st12, .st13 {
        fill-rule: evenodd;
      }

      .st0, .st1, .st3, .st4, .st5, .st6, .st9, .st10, .st12 {
        mix-blend-mode: screen;
      }

      .st1 {
        fill: #eeffc5;
      }

      .st2 {
        fill: url(#radial-gradient1);
      }

      .st2, .st7, .st11 {
        mix-blend-mode: multiply;
      }

      .st3 {
        fill: url(#radial-gradient4);
        opacity: .3;
      }

      .st4 {
        fill: url(#radial-gradient);
      }

      .st5, .st11 {
        fill: #8fe561;
      }

      .st6 {
        fill: #d2ff83;
      }

      .st14 {
        isolation: isolate;
      }

      .st7 {
        fill: url(#linear-gradient2);
      }

      .st8 {
        fill: url(#linear-gradient1);
      }

      .st9 {
        fill: url(#linear-gradient4);
        opacity: .5;
      }

      .st10 {
        fill: url(#radial-gradient3);
      }

      .st12 {
        fill: url(#radial-gradient2);
      }

      .st13 {
        fill: url(#linear-gradient);
      }
    </style>
    <linearGradient id="linear-gradient" x1="297.84" y1="297.84" x2="102.16" y2="102.16" gradientUnits="userSpaceOnUse">
      <stop offset="0" stop-color="#438a00"/>
      <stop offset="1" stop-color="#7cd400"/>
    </linearGradient>
    <linearGradient id="linear-gradient1" x1="292.81" y1="292.81" x2="107.19" y2="107.19" gradientUnits="userSpaceOnUse">
      <stop offset="0" stop-color="#65ba09"/>
      <stop offset="1" stop-color="#8ce30b"/>
    </linearGradient>
    <radialGradient id="radial-gradient" cx="67.12" cy="149.15" fx="67.12" fy="149.15" r="285.96" gradientUnits="userSpaceOnUse">
      <stop offset="0" stop-color="#47b009"/>
      <stop offset="1" stop-color="#010d01"/>
    </radialGradient>
    <radialGradient id="radial-gradient1" cx="67.88" cy="236.22" fx="67.88" fy="236.22" r="294.59" gradientUnits="userSpaceOnUse">
      <stop offset="0" stop-color="#fff"/>
      <stop offset="1" stop-color="#91d600"/>
    </radialGradient>
    <radialGradient id="radial-gradient2" cx="34" cy="158.52" fx="34" fy="158.52" r="108.41" xlink:href="#radial-gradient"/>
    <linearGradient id="linear-gradient2" x1="346.88" y1="200" x2="355.14" y2="200" gradientUnits="userSpaceOnUse">
      <stop offset="0" stop-color="#fff"/>
      <stop offset="1" stop-color="#91d600"/>
    </linearGradient>
    <linearGradient id="linear-gradient3" x1="48.99" y1="212.81" x2="48.99" y2="156.23" gradientUnits="userSpaceOnUse">
      <stop offset="0" stop-color="#010d01"/>
      <stop offset="1" stop-color="#47b009"/>
    </linearGradient>
    <radialGradient id="radial-gradient3" cx="73.01" cy="150.71" fx="73.01" fy="150.71" r="241.1" xlink:href="#radial-gradient"/>
    <radialGradient id="radial-gradient4" cx="77.01" cy="230.19" fx="77.01" fy="230.19" r="43.79" gradientTransform="translate(-123.22) scale(4.21 1)" xlink:href="#radial-gradient"/>
    <linearGradient id="linear-gradient4" x1="51.97" y1="184.96" x2="348.34" y2="184.96" gradientUnits="userSpaceOnUse">
      <stop offset="0" stop-color="#47b009"/>
      <stop offset="1" stop-color="#010d01"/>
    </linearGradient>
  </defs>
  <g class="st14">
    <g id="Layer_1">
      <g>
        <g>
          <path class="st13" d="M55.88,153h288.24c6.07,0,11.01,4.95,11.01,11.01v71.98c0,6.07-4.95,11.01-11.01,11.01H55.88c-6.07,0-11.01-4.95-11.01-11.01v-71.98c0-3.03,1.24-5.79,3.23-7.78,2-2,4.75-3.23,7.78-3.23h0Z"/>
          <path class="st8" d="M55.88,160.1c-1.07,0-2.05.44-2.76,1.15-.71.71-1.15,1.69-1.15,2.76v71.98c0,2.14,1.76,3.91,3.91,3.91h288.24c2.14,0,3.91-1.76,3.91-3.91v-71.98c0-2.14-1.76-3.91-3.91-3.91H55.88Z"/>
          <path class="st4" d="M55.88,160.1h288.24c1.07,0,2.05.44,2.76,1.15l5.02-5.02c-2-2-4.75-3.23-7.78-3.23H55.88c-3.03,0-5.79,1.24-7.78,3.23l5.02,5.02c.71-.71,1.69-1.15,2.76-1.15h0Z"/>
          <path class="st2" d="M344.12,239.9H55.88c-1.07,0-2.05-.44-2.76-1.15l-5.02,5.02c2,2,4.75,3.23,7.78,3.23h288.24c3.03,0,5.79-1.24,7.78-3.23l-5.02-5.02c-.71.71-1.69,1.15-2.76,1.15h0Z"/>
          <path class="st12" d="M51.97,235.99v-71.98c0-1.07.44-2.05,1.15-2.76l-5.02-5.02c-2,2-3.23,4.75-3.23,7.78v71.98c0,3.03,1.24,5.79,3.23,7.78l5.02-5.02c-.71-.71-1.15-1.69-1.15-2.76h0Z"/>
          <path class="st7" d="M348.03,164.01v71.98c0,1.07-.44,2.05-1.15,2.76l5.02,5.02c2-2,3.23-4.75,3.23-7.78v-71.98c0-3.03-1.24-5.79-3.23-7.78l-5.02,5.02c.71.71,1.15,1.69,1.15,2.76h0Z"/>
          <path class="st0" d="M51.97,209.82v-45.81c0-1.07.44-2.05,1.15-2.76l-5.02-5.02c-2,2-3.23,4.75-3.23,7.78v48.79c1.25-1.22,5.21-2.83,7.11-2.99h0Z"/>
          <path class="st10" d="M344.12,154.06H55.88c-2.65,0-5.16,1.05-7.03,2.92-1.87,1.87-2.92,4.38-2.92,7.03v45.99c0,3.27,4.97,3.27,4.97,0v-45.99c0-1.32.53-2.58,1.46-3.51.93-.93,2.19-1.46,3.51-1.46h288.24c2.73,0,4.97,2.24,4.97,4.97v10.75c0,3.27,4.97,3.27,4.97,0v-10.75c0-5.48-4.47-9.95-9.95-9.95h0Z"/>
          <path class="st1" d="M154.52,158.06c-53.58,0-97.01.65-97.01.98s79.99.3,97.01.3,97.01.03,97.01-.3-43.43-.98-97.01-.98h0Z"/>
          <path class="st11" d="M49.75,242.95c.55-.88,1.84-2.26,2.7-2.84.55-.36,1.19-.52,1.83-.55-1.09-.49-1.92-1.47-2.2-2.65.09.82.02,1.71-.42,2.46-.53.9-1.85,2.25-2.7,2.84-.64.45-1.34.45-1.88.38.68.9,1.5,1.7,2.42,2.36-.11-.55-.17-1.3.27-2h0Z"/>
          <path class="st11" d="M350.25,242.95c-.55-.88-1.84-2.26-2.7-2.84-.55-.36-1.19-.52-1.83-.55,1.09-.49,1.92-1.47,2.2-2.65-.09.82-.02,1.71.42,2.46.53.9,1.85,2.25,2.7,2.84.64.45,1.34.45,1.88.38-.68.9-1.5,1.7-2.42,2.36.11-.55.17-1.3-.27-2h0Z"/>
          <path class="st5" d="M49.75,157.05c.55.88,1.84,2.26,2.7,2.84.55.36,1.19.52,1.83.55-1.09.49-1.92,1.47-2.2,2.65.09-.82.02-1.71-.42-2.46-.53-.9-1.85-2.25-2.7-2.84-.64-.45-1.34-.45-1.88-.38.68-.9,1.5-1.7,2.42-2.36-.11.55-.17,1.3.27,2h0Z"/>
          <path class="st5" d="M350.25,157.05c-.55.88-1.84,2.26-2.7,2.84-.55.36-1.19.52-1.83.55,1.09.49,1.92,1.47,2.2,2.65-.09-.82-.02-1.71.42-2.46.53-.9,1.85-2.25,2.7-2.84.64-.45,1.34-.45,1.88-.38-.68-.9-1.5-1.7-2.42-2.36.11.55.17,1.3-.27,2h0Z"/>
        </g>
        <path class="st3" d="M200.15,243.45c-79.84,0-144.56-1.37-144.56-2.06s119.2-.63,144.56-.63,144.56-.07,144.56.63-64.72,2.06-144.56,2.06h0Z"/>
        <path class="st6" d="M327.04,238.92c-9.76,0-17.67.65-17.67.98s9.45.55,17.67.55,17.67-.22,17.67-.55-7.91-.98-17.67-.98h0Z"/>
        <path class="st6" d="M297.02,239.14c-6.18,0-11.19.5-11.19.76s5.98.42,11.19.42,11.19-.17,11.19-.42-5.01-.76-11.19-.76h0Z"/>
        <path class="st9" d="M51.97,209.82c39.91-5.39,255.44-27.88,296.37-33.55v-12.26c0-2.14-1.76-3.91-3.91-3.91H55.88c-1.07,0-2.05.44-2.76,1.15-.71.71-1.15,1.69-1.15,2.76v45.81h0Z"/>
      </g>
    </g>
  </g>
</svg>