<?xml version="1.0" encoding="UTF-8"?>
<svg xmlns="http://www.w3.org/2000/svg" version="1.1" xmlns:xlink="http://www.w3.org/1999/xlink" viewBox="0 0 400 400">
  <!-- Generator: Adobe Illustrator 29.0.1, SVG Export Plug-In . SVG Version: 2.1.0 Build 192)  -->
  <defs>
    <style>
      .st0 {
        fill: url(#radial-gradient2);
      }

      .st0, .st1, .st2, .st3, .st4, .st5, .st6, .st7, .st8, .st9, .st10, .st11, .st12, .st13, .st14, .st15, .st16, .st17, .st18, .st19, .st20, .st21, .st22, .st23, .st24, .st25, .st26, .st27, .st28, .st29 {
        fill-rule: evenodd;
      }

      .st0, .st3, .st4, .st5, .st10, .st11, .st30, .st23 {
        mix-blend-mode: multiply;
      }

      .st1 {
        fill: url(#New_Gradient_Swatch_20);
      }

      .st1, .st2, .st6, .st7, .st8, .st9, .st12, .st13, .st14, .st15, .st18, .st20, .st21, .st22, .st24, .st28 {
        mix-blend-mode: screen;
      }

      .st2 {
        fill: url(#New_Gradient_Swatch_179);
      }

      .st3 {
        fill: url(#New_Gradient_Swatch_211);
      }

      .st3, .st10, .st11, .st18, .st22 {
        opacity: .5;
      }

      .st4 {
        fill: url(#radial-gradient1);
      }

      .st5 {
        fill: url(#radial-gradient3);
      }

      .st6 {
        fill: url(#New_Gradient_Swatch_171);
      }

      .st7 {
        fill: url(#New_Gradient_Swatch_175);
      }

      .st8 {
        fill: url(#New_Gradient_Swatch_174);
      }

      .st9 {
        fill: url(#New_Gradient_Swatch_177);
      }

      .st10 {
        fill: url(#New_Gradient_Swatch_212);
      }

      .st11 {
        fill: url(#New_Gradient_Swatch_21);
      }

      .st31 {
        isolation: isolate;
      }

      .st12 {
        fill: url(#radial-gradient4);
      }

      .st13 {
        fill: url(#New_Gradient_Swatch_173);
      }

      .st14 {
        fill: url(#New_Gradient_Swatch_172);
      }

      .st15 {
        fill: url(#New_Gradient_Swatch_178);
      }

      .st30, .st23 {
        fill: #c0e5ed;
      }

      .st16 {
        fill: url(#linear-gradient1);
      }

      .st17 {
        fill: url(#New_Gradient_Swatch_17);
      }

      .st18 {
        fill: url(#radial-gradient7);
      }

      .st19 {
        fill: url(#linear-gradient4);
      }

      .st20 {
        fill: url(#New_Gradient_Swatch_1711);
      }

      .st21 {
        fill: url(#New_Gradient_Swatch_1710);
      }

      .st22 {
        fill: url(#radial-gradient6);
      }

      .st24 {
        fill: url(#New_Gradient_Swatch_176);
      }

      .st25 {
        fill: url(#radial-gradient);
      }

      .st26 {
        fill: url(#linear-gradient3);
      }

      .st27 {
        fill: url(#linear-gradient);
      }

      .st28 {
        fill: url(#radial-gradient5);
      }

      .st29 {
        fill: url(#linear-gradient2);
      }
    </style>
    <radialGradient id="New_Gradient_Swatch_17" data-name="New Gradient Swatch 17" cx="202.54" cy="199.85" fx="202.54" fy="199.85" r="158.61" gradientUnits="userSpaceOnUse">
      <stop offset="0" stop-color="#0c3469"/>
      <stop offset="1" stop-color="#000"/>
    </radialGradient>
    <radialGradient id="radial-gradient" cx="29.67" cy="34.37" fx="29.67" fy="34.37" r="880.43" gradientUnits="userSpaceOnUse">
      <stop offset="0" stop-color="#2ea4ff"/>
      <stop offset="1" stop-color="#2478f0"/>
    </radialGradient>
    <linearGradient id="linear-gradient" x1="200.66" y1="356.31" x2="200.66" y2="346.77" gradientUnits="userSpaceOnUse">
      <stop offset="0" stop-color="#062d70"/>
      <stop offset="1" stop-color="#034494"/>
    </linearGradient>
    <linearGradient id="linear-gradient1" x1="352.1" y1="199.85" x2="363.29" y2="199.85" gradientUnits="userSpaceOnUse">
      <stop offset="0" stop-color="#0456ba"/>
      <stop offset="1" stop-color="#083b94"/>
    </linearGradient>
    <radialGradient id="New_Gradient_Swatch_171" data-name="New Gradient Swatch 17" cx="73.24" cy="28.25" fx="73.24" fy="28.25" r="238.72" xlink:href="#New_Gradient_Swatch_17"/>
    <radialGradient id="New_Gradient_Swatch_172" data-name="New Gradient Swatch 17" cx="63.83" cy="137.38" fx="63.83" fy="137.38" r="254.05" xlink:href="#New_Gradient_Swatch_17"/>
    <radialGradient id="New_Gradient_Swatch_173" data-name="New Gradient Swatch 17" cx="108.63" cy="112.93" fx="108.63" fy="112.93" r="727.1" xlink:href="#New_Gradient_Swatch_17"/>
    <radialGradient id="New_Gradient_Swatch_174" data-name="New Gradient Swatch 17" cx="47.74" cy="202.97" fx="47.74" fy="202.97" r="400.82" xlink:href="#New_Gradient_Swatch_17"/>
    <radialGradient id="New_Gradient_Swatch_175" data-name="New Gradient Swatch 17" cx="22.65" cy="239.84" fx="22.65" fy="239.84" r="359.22" xlink:href="#New_Gradient_Swatch_17"/>
    <radialGradient id="New_Gradient_Swatch_176" data-name="New Gradient Swatch 17" cx="46.96" cy="249.77" fx="46.96" fy="249.77" r="498.44" xlink:href="#New_Gradient_Swatch_17"/>
    <radialGradient id="New_Gradient_Swatch_177" data-name="New Gradient Swatch 17" cx="40.83" cy="303.13" fx="40.83" fy="303.13" r="422.89" xlink:href="#New_Gradient_Swatch_17"/>
    <radialGradient id="New_Gradient_Swatch_21" data-name="New Gradient Swatch 21" cx="344.57" cy="473.9" fx="344.57" fy="473.9" r="508.02" gradientUnits="userSpaceOnUse">
      <stop offset="0" stop-color="#bac3eb"/>
      <stop offset=".99" stop-color="#fff"/>
    </radialGradient>
    <radialGradient id="New_Gradient_Swatch_211" data-name="New Gradient Swatch 21" cx="242.35" cy="-109.07" fx="242.35" fy="-109.07" r="528.2" xlink:href="#New_Gradient_Swatch_21"/>
    <radialGradient id="New_Gradient_Swatch_212" data-name="New Gradient Swatch 21" cx="11.09" cy="-139.39" fx="11.09" fy="-139.39" r="483.98" xlink:href="#New_Gradient_Swatch_21"/>
    <radialGradient id="New_Gradient_Swatch_178" data-name="New Gradient Swatch 17" cx="353.24" cy="316.46" fx="353.24" fy="316.46" r="443.84" xlink:href="#New_Gradient_Swatch_17"/>
    <radialGradient id="New_Gradient_Swatch_179" data-name="New Gradient Swatch 17" cx="287.47" cy="135.58" fx="287.47" fy="135.58" r="328.32" xlink:href="#New_Gradient_Swatch_17"/>
    <radialGradient id="New_Gradient_Swatch_1710" data-name="New Gradient Swatch 17" cx="36.72" cy="158.19" fx="36.72" fy="158.19" r="239.49" xlink:href="#New_Gradient_Swatch_17"/>
    <radialGradient id="New_Gradient_Swatch_1711" data-name="New Gradient Swatch 17" cx="354.07" cy="286.64" fx="354.07" fy="286.64" r="299.31" xlink:href="#New_Gradient_Swatch_17"/>
    <radialGradient id="New_Gradient_Swatch_20" data-name="New Gradient Swatch 20" cx="76.5" cy="11.45" fx="76.5" fy="11.45" r="742.67" gradientUnits="userSpaceOnUse">
      <stop offset="0" stop-color="#00fffa"/>
      <stop offset="1" stop-color="#000"/>
    </radialGradient>
    <radialGradient id="radial-gradient1" cx="201.27" cy="282.77" fx="201.27" fy="282.77" r="262.43" gradientUnits="userSpaceOnUse">
      <stop offset="0" stop-color="#706f6f"/>
      <stop offset="1" stop-color="#fff"/>
    </radialGradient>
    <linearGradient id="linear-gradient2" x1="197.45" y1="337.53" x2="197.45" y2="59.92" gradientUnits="userSpaceOnUse">
      <stop offset="0" stop-color="#edd6b9"/>
      <stop offset="1" stop-color="#d4b492"/>
    </linearGradient>
    <radialGradient id="radial-gradient2" cx="72.27" cy="338.94" fx="72.27" fy="338.94" r="45.15" gradientUnits="userSpaceOnUse">
      <stop offset="0" stop-color="#a48a7b"/>
      <stop offset="1" stop-color="#fff"/>
    </radialGradient>
    <radialGradient id="radial-gradient3" cx="334.02" cy="73.3" fx="334.02" fy="73.3" r="25.79" xlink:href="#radial-gradient2"/>
    <linearGradient id="linear-gradient3" x1="77.77" y1="326.69" x2="84.54" y2="310.73" gradientUnits="userSpaceOnUse">
      <stop offset="0" stop-color="#bf9f7e"/>
      <stop offset="1" stop-color="#edd6b9"/>
    </linearGradient>
    <linearGradient id="linear-gradient4" x1="329.38" y1="72.99" x2="318.35" y2="84.03" xlink:href="#linear-gradient3"/>
    <radialGradient id="radial-gradient4" cx="64.76" cy="359.22" fx="64.76" fy="359.22" r="76.15" gradientUnits="userSpaceOnUse">
      <stop offset="0" stop-color="#000"/>
      <stop offset="1" stop-color="#a3805f"/>
    </radialGradient>
    <radialGradient id="radial-gradient5" cx="342.74" cy="50.91" fx="342.74" fy="50.91" r="50.03" xlink:href="#radial-gradient4"/>
    <radialGradient id="radial-gradient6" cx="196.71" cy="200.49" fx="196.71" fy="200.49" r="271.33" gradientUnits="userSpaceOnUse">
      <stop offset="0" stop-color="#ca9e67"/>
      <stop offset="1" stop-color="#000"/>
    </radialGradient>
    <radialGradient id="radial-gradient7" cx="194.34" cy="200.26" fx="194.34" fy="200.26" r="222.76" xlink:href="#radial-gradient6"/>
  </defs>
  <g class="st31">
    <g id="Layer_1">
      <g>
        <g>
          <path class="st17" d="M41.79,348.98L355.95,43.4l7.33,7.33c-5.71,101.86-7.04,203.72-3.75,305.58-141.05-4.21-169.77-4.13-310.41,0l-7.33-7.33h0Z"/>
          <path class="st25" d="M36.71,41.19c145.28-3.25,175.28-3.82,319.24,2.21-3.06,101.86-4.23,203.72-3.75,305.58-141.45-2.98-168.95-2.9-310.41,0,.14-102.6-1.69-205.19-5.08-307.78h0Z"/>
          <path class="st27" d="M359.53,356.31l-7.33-7.33c-141.45-2.98-168.95-2.9-310.41,0l7.33,7.33c140.63-4.13,169.36-4.21,310.41,0h0Z"/>
          <path class="st16" d="M355.95,43.4c-3.06,101.86-4.23,203.72-3.75,305.58l7.33,7.33c-3.29-101.86-1.96-203.72,3.75-305.58l-7.33-7.33h0Z"/>
          <path class="st6" d="M110.2,68.09c12.68-9.11,23.62-18.93,35-29.03-1.78.02-3.57.05-5.37.07-16.91,17.02-30.15,28.3-44.98,37.63-15.26,9.6-32.1,17.06-56.27,26.54.03,1.27.07,2.53.1,3.8,27.98-11.49,46.27-20.88,71.52-39.02h0Z"/>
          <path class="st14" d="M241.63,39.43c-27.08,33.14-63.36,54.96-101.4,69.84-34,13.3-69.4,21.03-100.84,26.36l.03,1.29c24.47-3.73,49.12-8.07,72.83-14.7,5.97.62,10.3.2,11.18-.37,1.94-1.26,3.28-2.69,4.66-4.47,4.34-1.45,8.65-2.99,12.9-4.64,41.46-16.05,75.72-42.74,103.62-73.23-1-.02-1.99-.05-2.99-.07h0Z"/>
          <path class="st13" d="M167.74,137.61c-44.36,14.52-88.44,30.6-127.7,28.41.02,1.15.05,2.3.07,3.45,31.86-.04,48.1-3.28,80.31-13.7,20.73-6.71,41.04-14.34,61.58-21.47,9.59-3.33,19.22-6.55,28.81-9.88,63.84-22.15,90.77-31.9,140.35-67.4,1.47-1.05,2.96-2.13,4.48-3.23.04-1.5.09-3,.13-4.5l-.3-.04c-23.13,18.06-46.38,32.57-72.07,45.18-37.48,18.41-75.74,30.11-115.66,43.18h0Z"/>
          <path class="st8" d="M224.21,151.48c-62.09,23.34-124.29,49.98-183.59,46.57l.04,2.66c4.92.25,9.49.42,13.83.48,2.35,1.22,5.21,1.86,5.77,1.83.28-.02,2.03-.86,2.92-1.86,18.79-.41,34.31-3.26,57.67-10.25,44.39-13.28,94.05-34.77,138.75-52.28-11.78,4.07-23.59,8.4-35.4,12.84h0Z"/>
          <path class="st7" d="M101.1,224.3c-18.41,3.82-36.35,5.68-59.99,6.71l.03,2.58c53.94-2.54,82.34-10.95,130.89-30.37-22.65,8.17-45.91,15.88-70.94,21.08h0Z"/>
          <path class="st24" d="M160.16,233.67c-41.18,10.17-76.06,18.78-118.8,19.44l.02,2.03c39.31-2.04,58.49-5.97,97.85-15.59,11.85-2.9,23.61-5.84,35.38-8.7,19.4-4.71,38.84-9.18,58.76-12.77,41.75-7.52,78.55-8.63,119.16-.71.01-1.15.02-2.29.03-3.44-16.06-2.6-31.45-3.91-46.82-4.03-43.91-.36-87.8,9.57-130.13,19.96-5.17,1.27-10.32,2.55-15.44,3.81h0Z"/>
          <path class="st9" d="M109.77,292.98c-24.19,2.91-47.46,4.17-68.08,3.79,0,1.25.01,2.5.02,3.75,25.24-.15,45.53-1.1,65.78-3.61,19.31-2.4,38.59-6.22,62.09-12.15,27.91-7.05,54.99-16.21,83.36-22.99,32.92-7.87,59.91-7.48,88.21.64-49.98-18.9-94.81.26-152.93,15.65-25.18,6.67-51.32,11.56-76.48,14.67-.65.08-1.31.16-1.96.24h0Z"/>
          <path class="st11" d="M111.31,290.06c86.47-10.99,165.36-59.59,240.89-26.93.04-9.13.1-18.25.17-27.38-33.42-15.02-78.02-11.88-113.49-7.25,42.32-11.73,81.62-14.65,113.59-4.15.03-3.47.06-6.95.1-10.42-16.06-2.6-31.45-3.91-46.82-4.03-49.27-.41-98.52,12.16-145.58,23.77-41.18,10.17-76.06,18.78-118.8,19.44.1,9.86.18,19.73.25,29.59,11.26,4.3,43.53,8.71,69.7,7.36h0Z"/>
          <path class="st3" d="M40.53,192.5c58.32,3.85,120.33-19.45,182.03-42.64,44.54-16.74,88.76-34.92,131.7-41.9.44-19.56.94-39.11,1.51-58.67l-.3-.04c-23.13,18.06-46.38,32.57-72.07,45.18-37.48,18.41-75.74,30.11-115.66,43.18-44.36,14.52-88.44,30.6-127.7,28.41.18,8.83.34,17.66.49,26.48h0ZM112.84,159.73c56.28-17.48,113.97-34.41,168.92-58.51-41.81,31.94-108.03,43.61-168.92,58.51h0Z"/>
          <path class="st10" d="M138.74,107.48c36.52-14.28,70.95-36.81,97.24-68.17-16.43-.33-31.82-.5-47.45-.52-31.64,32.16-53.51,41.83-90.64,51.6,29.16-15.59,45.33-28.25,64.61-51.51-7.32.06-14.84.14-22.67.25-16.91,17.02-30.15,28.3-44.98,37.63-15.26,9.6-32.1,17.06-56.27,26.54.25,9.44.49,18.87.71,28.3,31.03-4.91,66.11-11.09,99.45-24.13h0Z"/>
          <path class="st23" d="M318.4,145.51c-10.64.81-20.14,1.92-31.16,4.03-22.72,4.35-46.33,14.42-67.58,23.11-15.15,6.2-34.06,15.16-49.62,19.44,27.54-10.62,58.33-26.85,82.28-35.22,20.42-7.13,44.34-12.39,66.07-11.37h0Z"/>
          <path class="st23" d="M108.72,144.34c-25.18,5.29-44.28,7.89-69,6.67.03,1.17.05,2.34.08,3.51,24.96.97,44.34-1.85,69.7-7.51,32.32-7.21,69.88-19.55,99.78-32.41,3.91-1.68,2.73-1.16,6.5-3.03-4.49,1.48-2.4.75-6.84,2.39-32.55,12.06-65.74,23.13-100.21,30.38h0Z"/>
          <path class="st30" d="M42.38,320.68c195.95,6.49,189.45-22.08,281.25-18.53,9.18.35,18.04,2.38,28.47,4.94,0,1.64,0,3.27,0,4.91-10.88-1.92-20.1-2.98-29.33-3.34-23.22-.9-48.17,2.66-71.33,5.17-76.34,8.3-139.58,15.16-208.83,11.38-.08-1.5-.16-3.01-.23-4.53h0ZM125.48,215.59c-6.09-.01-11.88-.66-19.14-1.27-23.8-2.02-44.21-.02-65.43,2.21-.02-1.27-.04-2.55-.06-3.82,22.9-1.66,41.72-1.84,65.83.21,8.31.7,16.41,1.46,23.7.75,4.91-.48,9-1.81,13.61-3.2,69.99-21.12,128.06-56.91,209.25-49.18-.02,1.35-.04,2.69-.06,4.04-96.47-9.66-163.07,40.5-252.08,58.99-18.41,3.82-36.35,5.68-59.99,6.71-.02-1.35-.03-2.7-.05-4.05,23.23-1.05,40.75-2.94,58.96-6.02,8.72-1.47,17.19-3.29,25.46-5.36h0ZM354.14,113.93c-25.63,3.7-51.9,10.68-78.41,19.29,4.77.31,8.6,1.43,12.04,2.22,3.52.8,6.75,1.62,10.37,1.17,18.68-2.32,36.94-7.64,55.72-9.28-.03,1.58-.06,3.15-.09,4.73-18.56,1.45-36.81,5.7-55.23,7.56-4.28.43-7.2-.9-11.06-1.78-10.09-2.3-14.76-3.71-24.92-.23-12.75,4.37-25.54,9.04-38.34,13.85-62.09,23.34-124.29,49.98-183.59,46.57-.03-1.85-.06-3.7-.09-5.55,58.32,3.85,120.33-19.45,182.03-42.64,13.9-5.23,27.78-10.59,41.59-15.71,29.7-10.62,58.41-21.05,90.11-26.19-.04,1.99-.09,3.98-.13,5.97h0ZM41.66,290.43c17.65,2.06,44.16,2.7,67.69-.13,87.24-10.49,166.75-60.07,242.84-27.17,0,1.35-.01,2.7-.02,4.05-54.54-26.47-101.6-5.63-163.96,10.89-25.83,6.84-52.67,11.81-78.44,14.91-24.19,2.91-47.46,4.17-68.08,3.79-.01-2.11-.02-4.23-.03-6.34h0ZM41.32,249.09c42.15-.45,77.15-7.33,118-17.41,73.12-18.06,128.62-34.93,193.29-23.19-.02,1.81-.04,3.63-.06,5.44-16.06-2.6-31.45-3.91-46.82-4.03-49.27-.41-98.52,12.16-145.58,23.77-41.18,10.17-76.06,18.78-118.8,19.44-.01-1.34-.03-2.68-.04-4.02h0ZM39.92,160.18c38.44,2.76,82.94-10.08,126.83-24.45,67.45-22.08,125.83-46.24,178.27-87.85,3.54.44,7.03.9,10.45,1.37-23.13,18.06-46.38,32.57-72.07,45.18-37.48,18.41-75.74,30.11-115.66,43.18-44.36,14.52-88.44,30.6-127.7,28.41-.04-1.95-.08-3.89-.12-5.84h0ZM39.29,131.61c31.03-4.91,66.11-11.09,99.45-24.13,36.52-14.28,70.95-36.81,97.24-68.17,1.87.04,3.75.08,5.65.12-27.08,33.14-63.36,54.96-101.4,69.84-34,13.3-69.4,21.03-100.84,26.36-.03-1.34-.06-2.68-.1-4.02h0ZM38.47,99.62c22.32-7.57,40.37-15.31,54.83-24.41,13.67-8.6,27.84-20.47,41.8-36.01,1.59-.02,3.16-.05,4.72-.07-16.91,17.02-30.15,28.3-44.98,37.63-15.26,9.6-32.1,17.06-56.27,26.54l-.1-3.69h0Z"/>
          <path class="st15" d="M251.45,313.83c-40.22,4.37-76.8,8.34-112.55,10.57,42.34-1.48,80.14-5,123.28-9.25,35.54-3.5,56.24-6.77,89.93.35,0-1.17,0-2.34,0-3.51-10.88-1.92-20.1-2.98-29.33-3.34-23.22-.9-48.17,2.66-71.33,5.17h0Z"/>
          <path class="st23" d="M352.13,282.66c-34.81-18.51-62.02-20.18-103.37-10.37-13.31,3.16-26.13,7.48-39.26,11.05-3.51.95-2.37.66-5.93,1.4,3.59-1.39,1.97-.81,5.66-2.05,12.62-4.26,25.97-8.89,38.91-12.25,41.08-10.64,69.18-9.31,104,8.17,0,1.35,0,2.71-.01,4.06h0Z"/>
          <path class="st23" d="M352.11,321.68c-34.19-5.55-71.07-4.04-117.9,3.67,45.13-4.72,80.13-5.19,117.91-.76v-2.91h0Z"/>
          <path class="st2" d="M233.59,168.03c24.48-9.76,45.22-16.93,73.04-21.43-6.3.71-12.55,1.63-19.38,2.94-17.29,3.31-35.09,9.93-51.98,16.74-5.3,2.14-10.52,4.3-15.6,6.37-14.18,5.8-31.65,14.02-46.58,18.57,16.73-4.69,30.01-10.78,45.95-17.29,5.04-2.06,9.87-4.02,14.56-5.89h0Z"/>
          <path class="st21" d="M39.86,157c17.88.81,39.88-1.07,64.3-7.24,13.98-3.53,27.28-7.65,40.59-11.98-12.02,3.57-23.95,6.72-35.24,9.24-25.36,5.66-44.73,8.48-69.7,7.51l.05,2.47h0Z"/>
          <path class="st20" d="M247.67,272.55c39.96-8.38,73.55-7.93,104.44,14.11,0-1.33,0-2.66,0-4-34.81-18.51-62.02-20.18-103.37-10.37-.36.09-.72.17-1.08.26h0Z"/>
          <path class="st1" d="M39.27,44.43c78.59-3.05,175.08-4.63,313.75,1.82.14,0,.28.01.43.02,0,25.3.23,50.54.52,75.82.54-26.23,1.2-52.47,1.99-78.7-143.96-6.02-173.96-5.46-319.24-2.21.95,28.59,1.77,57.18,2.46,85.77.78-27.95,1.04-54.06.09-82.53h0Z"/>
        </g>
        <g>
          <path class="st4" d="M102.96,343.97c82.49-2.11,151.2-3.4,225.79.33,1.71.09,3.95.28,5.2-.89,1.25-1.17,1.15-3.38,1.17-5.09.09-5.63.42-12.09.19-16.58l-16.5-1.47,16.23-3.85c-1.51-30.73-2.57-61.69-3.12-92.72l-8.8-3.06,8.7-2.91c-.69-44.21,2.54-85.5,4.1-129.59-4.62-11.44-9.25-19.59-15.38-28.98-1.12-1.72-2.86-2.93-4.9-2.75-32.96,2.96-189.66,6.21-249.09,3.24-3.23-.16-5.81,2.7-5.89,5.92-.31,12.98,1.11,21.41,1.56,33.77l6.39,4.04-2.88,3.78.52,2.91-3.6,2.53c1.37,46.02,1.23,91.85-.42,137.5l4.82,2.52-2.41,4.43,6.82,3.46-9.73,2.48c-.77,18.28-3.58,36.72-3.71,54.52,9.85,10.36,29.53,21.35,44.94,26.43h0Z"/>
          <g>
            <path class="st29" d="M103.22,335.93c12.27,2.96,190.74,1.49,237.94-1.77-.37-6.03-.72-12.07-1.05-18.11l-16.9-1.4,16.63-3.67c-1.55-29.31-2.63-58.83-3.19-88.43l-9.02-2.92,8.92-2.77c-.7-42.16-.34-84.46,1.26-126.51-7.16-10.02-14.32-20.05-21.48-30.07-2.95-1.26-212.49,1.14-260.86,2.94.82,13.6,1.5,27.18,2.02,40.74l6.55,3.86-2.95,3.61.54,2.78-3.69,2.41c1.4,43.89,1.25,87.6-.43,131.14l4.94,2.4-2.47,4.23,6.99,3.3-9.97,2.37c-.82,18.06-1.9,36.1-3.25,54.1,16.49,7.29,32.99,14.54,49.48,21.79h0Z"/>
            <path class="st0" d="M103.19,335.92c-16.49-7.25-32.99-14.5-49.48-21.75,1.54-2.37,16.96-14.56,19.07-14.78,2.03-.21,25.28,32.06,30.41,36.54h0Z"/>
            <path class="st5" d="M337.81,90.34c-4.94-2.36-26.04-5.79-27.02-7.95-.77-1.7,4.41-16.16,5.54-22.12,7.16,10.02,14.32,20.05,21.48,30.07h0Z"/>
            <path class="st26" d="M69.84,304.48c10.4,10.75,22.54,22.65,33.38,31.45-3.64,0-49.5-18.17-49.5-21.77,4.94-3.66,10.24-6.96,16.13-9.68h0Z"/>
            <path class="st19" d="M337.81,90.34c-8.47-3.8-16.97-7.53-25.12-11.98,1.6-5.94,2.66-12,3.63-18.1,2.09,0,21.48,27.83,21.48,30.07h0Z"/>
            <path class="st12" d="M92.89,331.39c-2.84-10.3-25.02-22.88-32.52-21.78,2.99-1.87,6.13-3.59,9.46-5.13,10.38,10.72,22.48,22.59,33.29,31.38-.88.07-4.77-1.19-9.98-3.12-.05-.45-.13-.9-.26-1.35h0Z"/>
            <path class="st28" d="M316.04,76.34c2.49,5.74,13.35,9.81,19.93,11.44.25.06.5.12.74.18.69,1.22,1.09,2.07,1.09,2.39-.2-.1-.43-.2-.69-.31-8.24-3.7-16.51-7.34-24.43-11.67,1.6-5.94,2.66-12,3.63-18.1.13,0,.32.11.57.3-.04.11-.08.22-.12.34-1.35,4.09-2.43,11.52-.74,15.43h0Z"/>
            <path class="st22" d="M109.1,330.38c-5.73-2.65-8.02-7.3-11.17-14.88-9.01-21.7-20.79-17.8-30.23-23.72-6.3-3.95-8.27-15.88,3.37-31.92,10.76-14.81-8.77-31.18-8.08-62.17.44-19.84,11.07-51.19,12.82-60.43,1.61-8.54,3.62-13.09-4.47-25.26-3.13-4.7.39-6.88-7.27-18.79-4.01-6.24-2.74-10.66,1.19-13.87,12.27-10.03,34.76-12.66,56.85-10.02,61.95,7.39,65.72,11.86,118.25,1.7,13.85-2.68,18.81-1.91,27.76-2.95,6.91-.8,14.14-1.94,20.12-.14,12.38,3.71,6.54,16,17.21,23.53,15.35,10.83,32.06-4.29,24.46,27.25-3.82,15.85-8.32,34.28-1.12,53.91,2.08,5.66,2.04,19.96-.3,25.19-9.36,20.89-18.02,17.64-5.59,29.57,10.14,9.73-4.13,17.73,3.17,28.63,7.07,10.54,3.71,20.8-4.13,42.35-1.07,2.93,4.21,6.52-5.63,12.25-6.86,4,17.46,15.49-37.5,15.49-15.6,0-20.4,5.75-36.16,5.28-13.8-.41-23.4.3-34.21.99-19.74,1.27-39.69-3.38-42.55-3.29-22.65.77-38.36,9.83-56.8,1.29h0Z"/>
            <path class="st18" d="M84.74,289.09c-7.56-6.81-11.19-12.01-5.98-30.98,7.74-28.19-7.42-35.32-9.08-52.87-2.13-22.51-.37-11.5,7.74-27.39,5.01-9.81-8.37-12.87,7.17-31.31,11.56-13.71,8.77-24.88-1.77-37.43-8.53-10.16-9.52-24.1-.37-30.84,14.28-10.53,30.61,1.37,41.81,2.05,3.37.21,7.67-.6,14.75-3.34,8.07-3.12,28.66,5.63,44.33,8.44,17.91,3.21,33.41,2.88,56.66-9.29,20.29-10.62,48.52,3.88,54.23,14.51,1.56,2.9,12.26.43,14.17,16.97.83,7.21,18.73,11.82,8.13,31.27-1.94,3.57-3.29,24.15.18,30.32,3.98,7.06,3.96,22.87-.18,29-11.75,17.34,5.04,31.57-3.59,44.17-8.74,12.76-1.27,22.93-1.27,32.67,0,20.48-7.27,8.05-3.19,28.03,3.55,17.43-10.83,19.82-25.99,16.32-10.09-2.33-24.56,6.41-40.04,7.19-18.68.94-22.87-8.28-38.77-5.4-24.26,4.38-33.43-9.71-50.3,1.31-12.93,8.45-25.42,6.34-31.08.62-7.22-7.29,1.2,1.84-9.97-13.52-10.78-14.83-23.73-17.02-27.57-20.48h0Z"/>
          </g>
        </g>
      </g>
    </g>
  </g>
</svg>