<?xml version="1.0" encoding="UTF-8"?>
<svg id="Layer_1" xmlns="http://www.w3.org/2000/svg" version="1.1" xmlns:xlink="http://www.w3.org/1999/xlink" viewBox="0 0 400 400">
  <!-- Generator: Adobe Illustrator 29.0.1, SVG Export Plug-In . SVG Version: 2.1.0 Build 192)  -->
  <defs>
    <style>
      .st0 {
        fill: url(#linear-gradient2);
      }

      .st1 {
        fill: url(#linear-gradient10);
      }

      .st2 {
        fill: #fff;
      }

      .st3 {
        fill: #092e72;
      }

      .st4 {
        fill: url(#linear-gradient1);
      }

      .st5 {
        fill: url(#linear-gradient9);
      }

      .st6 {
        fill: url(#linear-gradient8);
      }

      .st7 {
        fill: url(#linear-gradient11);
      }

      .st8 {
        fill: url(#linear-gradient12);
      }

      .st9 {
        fill: url(#linear-gradient7);
      }

      .st10 {
        fill: url(#linear-gradient4);
      }

      .st11 {
        fill: url(#linear-gradient5);
      }

      .st12 {
        fill: url(#linear-gradient3);
      }

      .st13 {
        fill: #38cfdf;
      }

      .st14 {
        fill: none;
        stroke: #092e72;
        stroke-miterlimit: 10;
        stroke-width: .94px;
      }

      .st15 {
        fill: url(#linear-gradient6);
      }

      .st16 {
        fill: url(#linear-gradient13);
      }

      .st17 {
        fill: url(#linear-gradient);
      }

      .st18 {
        fill: #2375a7;
      }
    </style>
    <linearGradient id="linear-gradient" x1="-100.11" y1="117.01" x2="247.78" y2="352.23" gradientUnits="userSpaceOnUse">
      <stop offset="0" stop-color="#004bc9"/>
      <stop offset="1" stop-color="#003380"/>
    </linearGradient>
    <linearGradient id="linear-gradient1" x1="-150.93" y1="192.17" x2="196.96" y2="427.39" xlink:href="#linear-gradient"/>
    <linearGradient id="linear-gradient2" x1="-159.43" y1="204.74" x2="188.46" y2="439.96" xlink:href="#linear-gradient"/>
    <linearGradient id="linear-gradient3" x1="-42.87" y1="271.7" x2="-64.81" y2="303.51" gradientUnits="userSpaceOnUse">
      <stop offset="0" stop-color="#0071bc"/>
      <stop offset=".5" stop-color="#fff"/>
      <stop offset="1" stop-color="red"/>
    </linearGradient>
    <linearGradient id="linear-gradient4" x1="-104.3" y1="123.19" x2="243.6" y2="358.41" xlink:href="#linear-gradient"/>
    <linearGradient id="linear-gradient5" x1="-82.35" y1="167.85" x2="77.37" y2="322.92" xlink:href="#linear-gradient"/>
    <linearGradient id="linear-gradient6" x1="-109.51" y1="130.9" x2="238.39" y2="366.12" xlink:href="#linear-gradient"/>
    <linearGradient id="linear-gradient7" x1="-121.4" y1="148.48" x2="226.5" y2="383.7" xlink:href="#linear-gradient"/>
    <linearGradient id="linear-gradient8" x1="-153.16" y1="195.46" x2="194.73" y2="430.68" xlink:href="#linear-gradient"/>
    <linearGradient id="linear-gradient9" x1="-148.13" y1="188.02" x2="199.76" y2="423.24" xlink:href="#linear-gradient"/>
    <linearGradient id="linear-gradient10" x1="-96.38" y1="111.48" x2="251.51" y2="346.7" xlink:href="#linear-gradient"/>
    <linearGradient id="linear-gradient11" x1="-46.27" y1="37.38" x2="301.62" y2="272.6" xlink:href="#linear-gradient"/>
    <linearGradient id="linear-gradient12" x1="63.96" y1="-125.66" x2="411.85" y2="109.56" xlink:href="#linear-gradient"/>
    <linearGradient id="linear-gradient13" x1="-121.75" y1="149" x2="226.15" y2="384.22" xlink:href="#linear-gradient"/>
  </defs>
  <g>
    <path class="st13" d="M-76.68,238.78c2.47-1.52,2.26,2.06,1.32,3.23-.32,1.71,1.18,4.13-.9,4.99-2.89-1.57-2.98,1.58-3.11-3.21-2.76-2.62-1.5-7.88,2.7-5.01Z"/>
    <path class="st2" d="M-76.26,247.51c-.08,0-.17-.02-.24-.06-.99-.54-1.55-.45-1.96-.38-.27.04-.62.1-.91-.14-.4-.33-.44-.93-.5-2.92-1.75-1.8-1.85-4.43-.8-5.72.34-.42,1.6-1.62,4.02-.1,1.11-.57,1.72-.16,2,.15.8.91.45,2.92-.22,3.88-.06.47.03,1.05.11,1.61.2,1.3.44,2.93-1.3,3.65-.06.03-.13.04-.19.04ZM-77.95,246c.43,0,.99.09,1.7.43.75-.42.67-1.2.48-2.46-.1-.69-.21-1.4-.09-2.06.02-.08.05-.16.1-.23.53-.66.73-2.24.34-2.68-.21-.24-.76.06-.99.2-.17.1-.39.1-.55-.01-.76-.52-2.14-1.24-2.93-.27-.78.96-.57,3.13.86,4.49.1.09.15.22.16.35.02.82.05,1.92.14,2.3.03,0,.06,0,.09-.01.18-.03.41-.07.68-.07Z"/>
  </g>
  <g>
    <path class="st17" d="M-60.23,97.58c3.97,2.86,4.67,2.97,4.9,2.48,5.23-6.55,13.34,12.56,16.72,16.19-11.81,7.81-3.75,19.4-5.99,30.89,1.14,1.25,7.49,3.13,4.2,5.19,1.01,2.91-.85,7.7,1.37,8.05,2.97-1.61,9.54,7.87,3.61,5.66-1.1,1.63.91,5.59-2.55,3.32-2.42,3.25-4.15-.54-7.05-.49-2.72,1.02-1.81,5.33-5.8,2.59-5.65,3.77-5.52-7.1-10.81-3.31-6.47-5.81-3.37,11.05-7.94,2.26-7.97-8.73,1.27,1.82-11.57,5.98-1.87-.4-5.29-3.81-6.47-.67-2.47-.44-9.08-5.19-4.21-6.46.33-1.04-.79-2.1.73-2.41,1.7-2.65-.68-2.23.89-3.93,4.25-34.33,15.65-15.11,15.09-30.17-7.76-1.95-.46-1.52-3.81-5.29,2.65-15.6,3.32-3.2,6.67-6.48,2.93-3.27,5.33-5.82,5.65-10.62,6.31-6.36,6.22-3.07,6.38-12.79Z"/>
    <path class="st2" d="M-81.15,176.91s-.07,0-.1-.01c-.62-.13-1.32-.52-2.06-.92-1.08-.59-2.31-1.27-3.07-.99-.32.12-.57.42-.76.92-.09.23-.32.37-.56.32-1.99-.35-6.28-3.11-6.37-5.35-.03-.66.28-1.52,1.81-2.01,0-.19-.03-.4-.08-.62-.1-.53-.29-1.48.93-1.83.63-1.04.47-1.4.32-1.75-.23-.54-.36-1.07.4-1.96,2.58-20.65,7.75-22.11,11.52-23.18,2.29-.65,3.7-1.05,3.56-6.37-2.9-.75-3.51-1.15-3.7-1.68-.16-.48.13-.86.37-1.17.42-.55.86-1.11-.37-2.5-.1-.12-.15-.27-.12-.42,1.15-6.75,1.9-8.21,2.82-8.47.73-.2,1.28.44,1.81,1.06.42.5.9,1.06,1.36,1.08.25.02.52-.13.83-.43l.23-.26c2.78-3.1,4.97-5.55,5.26-10.04,0-.12.06-.24.15-.32,1.6-1.61,2.8-2.62,3.68-3.35q2.44-2.04,2.55-8.91v-.17c0-.19.11-.36.28-.45.17-.08.37-.07.52.04,2.82,2.03,3.84,2.55,4.19,2.6,0,0,.01-.02.02-.02.88-1.1,1.89-1.62,3.04-1.54,3.7.25,7.72,6.97,10.95,12.36,1.42,2.37,2.64,4.41,3.5,5.34.1.11.15.26.13.41-.02.15-.1.28-.22.36-7.46,4.93-6.73,11.27-5.89,18.6.44,3.8.89,7.72.17,11.68.35.28,1,.63,1.62.96,1.69.91,3.43,1.86,3.47,3.14.02.54-.27,1.03-.85,1.48.32,1.24.25,2.69.18,3.99-.1,1.88-.11,3.08.54,3.32,1.47-.61,3.37.67,4.69,2.13,1.31,1.45,2.34,3.37,1.66,4.36-.4.59-1.22.7-2.43.33-.15.47-.14,1.09-.13,1.66.01.9.02,1.75-.62,2.1-.46.25-1.05.13-1.95-.4-1.66,1.92-3.18,1.05-4.53.28-.79-.45-1.62-.92-2.53-.93-.81.34-1.24,1.07-1.66,1.78-.43.73-.87,1.48-1.73,1.67-.68.15-1.48-.09-2.52-.76-3.07,1.85-4.68-.29-5.98-2.02-1.48-1.96-2.41-2.99-4.53-1.49-.19.14-.46.12-.63-.04-.97-.87-1.76-1.24-2.28-1.08-.87.26-1.3,1.98-1.64,3.35-.37,1.45-.65,2.6-1.52,2.7-.75.09-1.48-.7-2.58-2.8-1.17-1.28-2.36-2.59-2.91-3.02-.03.15-.05.33-.07.5-.24,1.9-.8,6.35-8.02,8.69-.05.02-.1.02-.16.02ZM-86,173.91c1.02,0,2.15.62,3.17,1.18.62.34,1.21.66,1.66.79,6.48-2.15,6.96-5.96,7.19-7.81.1-.77.17-1.32.68-1.48.68-.22,1.3.43,4.09,3.5.03.03.05.07.08.11,1.13,2.16,1.57,2.31,1.62,2.32.18-.13.45-1.22.63-1.94.43-1.71.92-3.64,2.33-4.07.83-.26,1.8.08,2.95,1.04,2.81-1.77,4.35.27,5.59,1.93,1.51,2.01,2.56,3.16,4.9,1.6.17-.11.4-.11.57,0,.9.62,1.57.88,2.01.79.4-.09.67-.51,1.07-1.19.47-.8,1.05-1.79,2.26-2.24.05-.02.11-.03.17-.03,1.25-.02,2.25.56,3.14,1.07,1.41.8,2.27,1.29,3.51-.37.16-.22.46-.27.69-.12,1.03.68,1.3.61,1.31.6.09-.12.08-.79.08-1.2-.01-.87-.02-1.86.47-2.58.13-.19.38-.27.6-.19,1.14.43,1.59.32,1.67.2.22-.33-.27-1.67-1.57-3.11-1.15-1.27-2.72-2.32-3.64-1.83-.1.05-.21.07-.32.06-1.75-.28-1.64-2.38-1.53-4.41.07-1.34.15-2.86-.24-3.98-.08-.22.01-.47.21-.6.27-.17.71-.49.7-.81-.02-.7-1.78-1.65-2.94-2.28-.9-.49-1.68-.91-2.06-1.33-.11-.12-.15-.28-.12-.44.76-3.9.31-7.84-.13-11.65-.83-7.2-1.61-14.01,5.86-19.24-.88-1.11-1.99-2.96-3.25-5.06-2.94-4.92-6.98-11.66-10.15-11.87-.77-.06-1.48.31-2.14,1.12-.15.27-.37.37-.53.42-.56.15-1.42-.17-4.31-2.21-.11,6.42-.22,6.64-2.9,8.88-.84.7-1.98,1.66-3.48,3.16-.36,4.72-2.75,7.38-5.51,10.46l-.25.28c-.54.53-1.08.77-1.61.75-.9-.04-1.56-.82-2.09-1.44-.23-.27-.62-.73-.78-.74-.24.08-.93.96-2.04,7.42,1.58,1.9.72,3.01.25,3.61-.06.08-.13.17-.18.24.2.16.91.49,3.32,1.1.22.06.38.25.38.47.23,6.17-1.48,6.97-4.29,7.77-3.51,1-8.32,2.36-10.81,22.49-.01.1-.06.2-.13.28-.52.56-.47.68-.33.99.28.66.46,1.37-.5,2.87-.07.12-.19.2-.33.22q-.47.1-.35.7c.07.38.17.86,0,1.36-.05.17-.19.3-.36.34-.93.24-1.39.6-1.37,1.08.06,1.41,3.3,3.74,5.15,4.3.29-.55.68-.92,1.17-1.1.24-.09.49-.13.74-.13Z"/>
  </g>
  <g>
    <path class="st4" d="M-76.46,266.96c-6.53-3.82-8.94-.73-13.42-9.08-1.52-2.72-8.49-.38-5.84-4.73-3.4-1.8,7.99-5.33.92-10.6,1.61-3.64-14.3-25.11-17.97-26.09-.52-4.15-8.42-2.97-4.29-7.09,1.57-.09,5.25-2.04,4.82.55,2.55.41-.31,4.82,2.37,1.7,2.42-.78.53.87,2.71.33.56.07-.16,1.85.53,1.48.82-1.17,1.49-.9,1.65.3-2.75.09.65,1.64,1.22-.2.92.07.39,1.64,1.38.78.76,2.08,4.64-.29,4.12,2.06,1.27,3.08,6.61-.79,3.66-3.22-.08-3.75,5.36.62,6.06,1.92,3.53,4.35,4.7-.76,7.73-2.42,1.95,4.15,7.76,3.36,8.63,8.47-3.9,6.51-1.03,2.95-1.73,8.68-1,6.28,8.83,4.77,8.4,11.46.34,5.17-1.81,15.53-8.45,13.23-1.81.3.33,4.43-.12,5.9-.93,2.01-2.12,4.4-2.37,6.57ZM-76.68,238.78c-4.19-2.86-5.46,2.39-2.7,5.01.16,4.87.21,1.6,3.11,3.21,2.08-.86.58-3.28.9-4.99.94-1.17,1.15-4.75-1.31-3.23ZM-78.29,254.11c4.5-2.05.38-7.38-.16-3.24.1.96-1.09,2.74.16,3.24ZM-97.21,246.16c-.05.7-1.25,1.3-1.58.53.19-.64,1.19-1.38,1.58-.53ZM-94.14,245.91c.41,2.68-1.3,2.44-2.86,3.88-1.48.22,2.21-7.33,2.86-3.88Z"/>
    <path class="st2" d="M-76.46,267.47c-.09,0-.18-.02-.26-.07-2.21-1.29-3.92-1.77-5.44-2.19-2.98-.83-5.14-1.44-8.17-7.08-.51-.92-2-1.15-3.31-1.36-1.34-.21-2.61-.41-3.05-1.35-.26-.55-.17-1.23.29-2.1-.27-.23-.42-.5-.47-.8-.13-.86.64-1.65,1.61-2.65,1.13-1.16,2.41-2.46,2.29-3.92-.08-.97-.8-1.98-2.15-2.99-.19-.14-.26-.4-.16-.61.12-.27.25-1.22-1.12-4.07-3.74-7.8-14.04-20.66-16.52-21.32-.2-.05-.35-.22-.37-.43-.2-1.57-1.67-2.25-3.09-2.91-1.13-.53-2.2-1.03-2.38-2.01-.13-.74.29-1.56,1.32-2.59.09-.09.21-.14.33-.15.37-.02.93-.18,1.51-.34,1.33-.37,2.7-.75,3.45-.08.29.26.43.63.43,1.1,1,.38,1.14,1.38,1.13,2.11.09-.1.2-.22.31-.36.06-.07.14-.12.23-.15,1.07-.35,1.76-.4,2.08.39,0,0,0,.02,0,.02.07,0,.26,0,.66-.1.06-.02.12-.02.18-.01.57.07.67.57.68,1.01.39-.3.73-.32.98-.26.36.09.82.41.96,1.46,0,.02,0,.05,0,.07.11-.09.18-.2.23-.35.07-.22.29-.36.52-.36.67.05.92.56,1.04.89.12-.09.28-.13.44-.09.16.04.29.16.35.32.23.62.89.64,1.97.6.79-.03,1.54-.06,1.97.45.23.28.31.65.24,1.12.24.48.66.71,1.15.7.92-.03,1.96-.81,2.27-1.7.22-.66.02-1.25-.6-1.76-.11-.09-.18-.23-.18-.38-.03-1.43.69-1.83,1.12-1.95,1.83-.48,5.22,2.46,5.87,3.57.8.98,1.51,1.48,2.1,1.49.77.04,1.54-.82,2.4-1.78.72-.81,1.54-1.73,2.57-2.29.12-.07.27-.08.4-.04.13.04.24.14.3.27.81,1.71,2.34,2.51,3.96,3.36,2.06,1.08,4.19,2.19,4.71,5.24.02.12,0,.24-.07.35-2.22,3.7-2.13,3.95-1.9,4.59.21.59.53,1.48.23,3.89-.44,2.79,1.48,3.84,3.7,5.06,2.31,1.26,4.92,2.69,4.71,6.34.25,3.92-.88,10.54-4.17,13.04-1.39,1.06-3.01,1.3-4.82.72-.05.02-.08.05-.1.08-.27.4.02,1.67.23,2.6.24,1.09.48,2.12.26,2.83,0,.02-.02.04-.02.06l-.27.59c-.86,1.85-1.83,3.94-2.05,5.83-.02.17-.12.32-.28.4-.07.04-.15.05-.23.05ZM-94.22,242.36c1.44,1.14,2.18,2.29,2.28,3.51.15,1.91-1.36,3.46-2.58,4.71-.62.63-1.39,1.42-1.34,1.78.02.14.25.28.38.35.12.07.21.18.25.31s.02.28-.06.4c-.44.72-.61,1.28-.48,1.56.21.45,1.26.61,2.28.77,1.54.24,3.28.52,4.04,1.88,2.83,5.27,4.71,5.8,7.55,6.59,1.43.4,3.02.85,5.03,1.93.36-1.82,1.24-3.71,2.02-5.4l.26-.55c.12-.46-.1-1.43-.29-2.28-.3-1.35-.59-2.63-.08-3.39.2-.3.5-.49.88-.55.08-.01.17,0,.25.02,1.52.53,2.87.35,4.02-.52,2.96-2.26,4-8.62,3.77-12.2,0-.02,0-.04,0-.07.19-3.03-1.93-4.19-4.18-5.42-2.24-1.22-4.78-2.61-4.22-6.09.27-2.15,0-2.87-.18-3.4-.38-1.05-.38-1.49,1.88-5.29-.49-2.42-2.27-3.35-4.15-4.33-1.55-.81-3.15-1.64-4.14-3.32-.68.48-1.28,1.15-1.86,1.8-.99,1.1-1.93,2.17-3.18,2.12-.94-.02-1.86-.63-2.89-1.9-.02-.02-.04-.05-.05-.08-.52-.97-3.64-3.42-4.74-3.12-.22.06-.34.3-.36.73.8.76,1.06,1.73.73,2.71-.45,1.3-1.85,2.35-3.2,2.39-1,.03-1.78-.5-2.17-1.46-.04-.1-.05-.2-.03-.3.06-.27.03-.4,0-.42-.11-.13-.76-.11-1.15-.09-.88.03-2.03.08-2.67-.73-.14.05-.3.07-.46.03-.38-.1-.51-.46-.59-.7,0-.01,0-.02-.01-.04-.48.56-1.25.7-1.94.57-.64-.12-1.02-.47-.99-.89,0-.02,0-.03,0-.04-.28.1-.48.01-.58-.05-.37-.23-.34-.68-.32-1.12,0-.07,0-.16.01-.25-.8.14-1.22-.05-1.45-.61-.09,0-.29.02-.69.15-.84.97-1.22,1.32-1.67,1.13-.43-.18-.4-.65-.36-1.1.09-1.04,0-1.55-.71-1.67-.13-.02-.25-.1-.33-.2s-.11-.25-.09-.38c.05-.32.03-.56-.07-.64-.33-.3-1.69.08-2.5.3-.55.15-1.08.3-1.52.36-.82.85-.95,1.32-.91,1.57.08.46.92.85,1.81,1.27,1.44.67,3.21,1.49,3.61,3.4,3.56,1.6,13.52,14.79,16.85,21.75,1,2.09,1.41,3.58,1.25,4.52ZM-105.7,213.18s-.07.03-.19.15c.08-.02.17-.04.25-.06-.03-.05-.05-.08-.06-.09ZM-78.29,254.61c-.06,0-.13-.01-.19-.04-1.25-.5-.89-1.8-.66-2.67.1-.37.21-.76.18-.99,0-.04,0-.08,0-.12.22-1.66.97-1.95,1.4-1.97.77-.04,1.49.69,1.75,1.74.32,1.28-.12,3.01-2.29,4-.07.03-.14.05-.21.05ZM-77.94,250.88c.03.4-.09.84-.22,1.3-.23.83-.27,1.18-.11,1.35,1.77-.92,1.59-2.3,1.48-2.71-.16-.66-.55-.97-.71-.97-.08,0-.33.21-.45,1.04ZM-97.06,250.3c-.4,0-.7-.27-.78-.72-.08-.52.19-1.5.65-2.47-.25.22-.55.37-.84.42-.55.09-1.01-.16-1.22-.66-.05-.11-.05-.23-.02-.34.17-.58.8-1.23,1.47-1.27.46-.03.85.22,1.06.68.03.08.05.16.04.25,0,0,0,0,0,.01.53-.88,1.18-1.59,1.76-1.69.3-.05,1.05-.04,1.3,1.3,0,0,0,.01,0,.02.34,2.22-.66,2.81-1.73,3.43-.42.25-.86.51-1.29.9-.08.07-.17.11-.27.13-.05,0-.09.01-.14.01ZM-94.82,245.49s-.36.22-.85.98c-.6.91-.98,1.9-1.12,2.49.32-.23.63-.41.91-.58.98-.57,1.47-.86,1.24-2.39-.08-.41-.18-.5-.18-.5ZM-97.8,246.29c-.08.03-.2.11-.3.22.12-.04.23-.13.3-.22ZM-76.26,247.51c-.09,0-.17-.02-.25-.06-1-.55-1.56-.45-1.96-.37-.27.05-.6.12-.89-.12-.4-.32-.44-.89-.51-2.95-1.75-1.8-1.85-4.43-.81-5.72.34-.42,1.6-1.62,4.02-.11,1.11-.57,1.72-.16,2,.15.8.91.44,2.93-.22,3.88-.06.48.03,1.05.11,1.61.2,1.3.44,2.92-1.3,3.64-.06.03-.13.04-.19.04ZM-77.93,246c.43,0,.99.09,1.68.44.74-.42.67-1.2.48-2.45-.1-.69-.21-1.4-.09-2.06.02-.08.05-.16.1-.23.53-.66.73-2.24.34-2.68-.21-.24-.76.06-.99.2-.17.1-.39.1-.55-.01-1.29-.88-2.35-.98-2.93-.27-.78.96-.57,3.13.87,4.49.1.09.15.22.16.35.03.82.06,1.91.15,2.31.02,0,.04,0,.06-.01.18-.03.42-.08.73-.08Z"/>
  </g>
  <g>
    <path class="st0" d="M-41.06,290.17c-50.75-13.27,10.25-31.94-.09-4.58,3.9,1.44,2.31,2.16.09,4.58Z"/>
    <path class="st12" d="M-41.06,290.67s-.09,0-.13-.02c-16.56-4.33-20.46-8.96-20.8-12.09-.24-2.19,1.24-4.29,4.08-5.75,4.57-2.36,11.94-2.74,15.87.76,1.99,1.77,3.84,5.24,1.54,11.71,1.43.57,2.06,1.07,2.2,1.73.19.84-.52,1.57-1.5,2.57-.27.28-.57.58-.88.92-.1.11-.23.16-.37.16ZM-50.04,272.03c-2.63,0-5.33.62-7.4,1.69-2.44,1.26-3.73,2.98-3.53,4.73.25,2.28,3.16,6.76,19.76,11.14.24-.26.48-.5.7-.72.64-.66,1.3-1.33,1.24-1.64-.04-.17-.35-.55-2.04-1.18-.13-.05-.23-.14-.29-.27-.06-.12-.06-.26-.01-.39,1.87-4.94,1.49-8.77-1.09-11.07-1.8-1.61-4.52-2.31-7.32-2.31Z"/>
  </g>
  <g>
    <path class="st10" d="M-146.64,77.07c6.3-1.12,3.05,5.97,8.23,8.02-12.52,27.05-13.62-1.99-8.23-8.02ZM-165.68,98.31c3.33-5,1.59-.13,1.85,2.37-.86,2.24-3.81-1.62-1.85-2.37ZM-160.41,92.63c1.82,1.08-1.73,3.71-2.36,2.95-.39-3.03-3.39,1.02-4.63,1.42-1.99,1.31-1.13-2.83-1.38-3.85-3.06-.76-3.55-.16-3.4-3.83,2.79.35,8.05,1.37,8.65-1.62,1.09-.12,1.07,1.26,1.55,1.91,1.07.85,2.87,1.56,1.57,3.03Z"/>
    <path class="st2" d="M-164.63,101.88c-.06,0-.11,0-.15,0-1-.12-1.92-1.37-2.05-2.36-.09-.72.21-1.31.81-1.61,1.3-1.94,1.85-2.44,2.42-2.24.63.23.55,1.03.39,2.48-.09.83-.19,1.78-.12,2.48,0,.08,0,.16-.03.23-.33.87-.93,1.02-1.28,1.02ZM-164.12,97.02c-.24.28-.6.76-1.14,1.57-.06.09-.14.16-.24.19-.19.07-.38.2-.33.61.08.67.74,1.42,1.16,1.47.05,0,.18.02.32-.26-.06-.79.04-1.73.13-2.56.03-.32.08-.7.1-1.02ZM-165.68,98.31h0,0ZM-168.06,97.76c-.17,0-.33-.04-.48-.12-.79-.44-.75-1.81-.71-3.14,0-.34.02-.68,0-.94-.34-.08-.65-.14-.92-.2-2.23-.46-2.66-.83-2.53-4.07,0-.14.07-.27.18-.37.11-.09.25-.13.39-.12.25.03.53.07.82.11,2.72.37,6.82.92,7.27-1.33.04-.22.22-.38.44-.41,1.14-.13,1.49.84,1.72,1.47.08.22.16.44.26.59.17.13.36.26.55.39.73.5,1.49,1.02,1.6,1.85.04.35-.04.7-.26,1.06.26.3.37.66.32,1.06-.14,1.14-1.6,2.26-2.54,2.54-.72.21-1.08-.06-1.22-.24-.06-.07-.1-.16-.11-.26-.06-.48-.18-.65-.24-.67-.35-.13-1.49.85-2.04,1.31-.62.53-1.16.99-1.62,1.16-.32.2-.62.3-.88.3ZM-171.7,89.88c-.07,2.1.08,2.14,1.74,2.48.37.08.8.17,1.3.29.18.05.33.19.37.37.08.35.07.88.05,1.5-.02.6-.06,2.01.19,2.22,0,0,.11-.01.36-.17.04-.03.08-.05.13-.06.28-.09.85-.57,1.34-.99,1.06-.9,2.16-1.84,3.06-1.49.55.21.75.78.83,1.17.47-.08,1.57-.8,1.86-1.53.11-.29.06-.45-.21-.61-.13-.08-.22-.21-.24-.36-.02-.15.02-.3.12-.42.24-.27.34-.5.32-.68-.05-.37-.64-.78-1.16-1.14-.23-.16-.46-.32-.67-.48-.03-.03-.06-.06-.09-.09-.2-.27-.32-.59-.43-.9-.15-.4-.25-.62-.36-.72-1,2.63-5.34,2.04-8.26,1.64-.09-.01-.17-.02-.26-.03ZM-146.87,96.94h-.02c-.69,0-1.67-.35-2.39-1.97-1.83-4.15-.94-14.65,2.26-18.23.08-.08.18-.14.29-.16,3.89-.69,4.6,1.55,5.28,3.72.54,1.72,1.1,3.49,3.22,4.33.13.05.23.15.29.28.05.13.05.28-.01.4-3.57,7.72-6.57,11.64-8.92,11.64ZM-146.37,77.55c-2.76,3.33-3.61,13.3-1.97,17.01.4.9.89,1.36,1.47,1.37,0,0,0,0,0,0,.86,0,3.31-1.06,7.78-10.58-2.17-1.09-2.81-3.1-3.33-4.74-.66-2.1-1.11-3.5-3.96-3.05Z"/>
  </g>
  <g>
    <path class="st11" d="M2.93,194.29c-4.8,2.05.08,6.94-.39,10.12-2.94-1.81-1.77,6.61-4.41,8.86-.55,4.5,6.2,8.08,5.04,11.7,1.36,8.94-5.71,29.78,8.78,38.46.38,1.14-3.14,1.62-1.1,2.51,1.11,1.05-.71,1.77,0,2.94,3.39,10.65-6.22-.22-10.96-1.55-23.73,7.66-38.73-28.68-66.88-31.44-6.54,1.61-9.5-9.69-5.58-13.15.4-8.74-14.63-7.29-10.17-24.44-2.88-4.16-3.47-.59-3.61-5.62-5.36-1.55.77-9.23-6.29-9.19-3.05-1.97,2.32-3.87-.06-5.92-1.12-5.05,2.37-3.39,5.08-1.84,1.86-3.89,5.19,2.08,8.12.25,9.91-5.26,2.85-9.58,7.43-8.92.11,2.34,2.27,2.6,3.6,4.32-.1.72-.11,2.23.98,2.1.64-1.97,2.15-3.85,1.87-6.16.68-1.25,1.05.76,1.84-.41.43-.39.68.63,1,.76,7.02-1.37,3.85,1.81,9.67,4.97,3.16-3.15,5.31,2.68,7.07-3.48,2.92-1.75,5.03,3.67,7.36.77.38-1.54,3.2,1.49,3.04-.75-1.48-3.28,2.31-4.26,3.48-.76,2.51,3.63,11.7.66,8.51,7.36-3.77,1.98,3.22,6.91,4.6,4.24,3.09,1.13,2.36,4.31,2.1,6.55-4.76-.31-3.07,6.26-4.95,8.81.57,3.68,5.15-.93,7.61,1.62,2.04.48,3.73,3.68,5.78,3.34,1.14-.24-.21,1.67,1.91.87,1.68,2.6,3.76,10.25,4.91,2.87-1.19-5.49-4.63-12.88,4.61-9.79Z"/>
    <path class="st2" d="M10.69,274.02c-1.26,0-3.15-1.33-5.43-2.94-1.91-1.35-3.89-2.75-5.36-3.21-12.89,4.07-23.28-4.59-34.27-13.75-9.68-8.07-19.68-16.41-32.57-17.7-2.68.62-5.09-.68-6.61-3.58-1.66-3.18-1.92-7.96.49-10.31.05-3.09-2.05-4.81-4.47-6.79-3.74-3.06-8.39-6.86-5.75-17.33-1.09-1.52-1.79-1.82-2.26-2.02-.95-.4-1.21-.78-1.3-3.33-2.51-.92-2.51-3.25-2.52-5.13,0-1.3,0-2.52-.7-3.21-.49-.48-1.31-.72-2.52-.72-.02,0-.02,0-.05,0-.1,0-.19-.03-.28-.08-.67-.43-1.05-.91-1.16-1.46-.17-.84.35-1.61.81-2.29.75-1.1.97-1.58.23-2.21-.08-.07-.14-.17-.17-.28-.42-1.9-.25-3.11.53-3.68,1.13-.83,3.05.03,4.86,1.03.35-.56.77-.91,1.27-1.07,1.04-.33,2.15.28,3.22.88,1.28.71,2.48,1.38,3.56.7,5.69-3.02,5.54-5.59,5.45-7.12-.04-.65-.07-1.22.36-1.61.37-.34.94-.41,1.97-.26.24.03.42.23.43.48.06,1.24.8,1.78,1.74,2.45.57.42,1.23.89,1.76,1.58.08.11.12.24.1.38-.08.62-.02,1.21.15,1.44.19-.5.42-1,.65-1.48.63-1.33,1.22-2.59,1.05-4.03-.01-.1,0-.21.06-.3.13-.25.36-.58.74-.67.39-.09.68.13.88.27.04.03.09.07.13.09.02-.02.06-.07.11-.14.02-.03.05-.07.08-.09.24-.21.48-.23.63-.21.4.05.62.4.8.68.02.04.05.08.08.12,4.08-.76,4.88.07,6.01,1.7.64.92,1.42,2.04,3.43,3.2,1.49-1.28,2.84-.89,3.84-.6.68.2,1.12.31,1.49.1.48-.27.93-1.11,1.33-2.51.04-.12.12-.23.23-.3,1.66-1,3.11-.05,4.27.72,1.34.88,2.03,1.26,2.89.25.12-.35.33-.52.5-.61.52-.27,1.13-.03,1.73.21.23.09.59.23.76.24,0-.04.02-.11.01-.23-.48-1.13-.45-2.16.09-2.86.43-.56,1.14-.82,1.89-.7,1.07.18,1.99,1.09,2.46,2.44.89,1.22,2.76,1.59,4.57,1.95,1.91.38,3.71.74,4.39,2.1.46.92.32,2.15-.45,3.76-.05.1-.12.18-.22.23-.94.5-.85,1.08-.82,1.27.18,1.11,1.93,2.53,3.39,2.76.67.1,1.12-.05,1.34-.47.12-.23.39-.33.63-.24,3.21,1.18,2.8,4.25,2.5,6.49-.03.2-.05.4-.08.59-.03.27-.26.48-.54.45-2.4-.14-2.86,1.63-3.31,4.59-.21,1.38-.42,2.81-1.07,3.82.08.36.21.61.4.73.44.29,1.32.07,2.25-.16,1.48-.37,3.32-.82,4.68.48.97.28,1.81,1.03,2.63,1.76.98.87,1.89,1.69,2.81,1.54.29-.06.55-.03.76.12.3.21.35.56.38.79,0,.05.02.11.03.16.08,0,.27-.02.65-.16.22-.09.48,0,.61.2.42.66.85,1.58,1.3,2.55.5,1.09,1.45,3.11,1.89,3.21-.02,0,.39-.23.77-2.61-.17-.79-.4-1.63-.61-2.45-.87-3.28-1.68-6.37-.11-7.84,1.08-1.01,2.99-1.01,6.01,0,.2.07.34.25.35.46s-.11.4-.31.49c-2.53,1.08-2.01,2.86-.96,5.67.52,1.38,1.05,2.81.87,4.06-.02.17-.13.31-.29.39-.15.07-.34.06-.48-.03-.18-.11-.43-.23-.58-.15-.52.23-.83,1.96-1.08,3.35-.37,2.02-.78,4.29-1.99,5.48-.15,1.98,1.29,3.85,2.68,5.65,1.52,1.97,2.96,3.83,2.39,5.84.35,2.43.11,5.6-.16,9.26-.74,10.04-1.66,22.52,8.68,28.72.1.06.18.16.22.28.29.88-.6,1.44-1.18,1.81-.13.08-.3.19-.42.28.05.03.13.07.23.11.05.02.1.06.15.1.86.81.46,1.62.22,2.1-.23.46-.3.66-.13.95.02.03.04.07.05.11.93,2.93.98,4.44.14,5.05-.23.17-.49.24-.79.24ZM-.11,266.83s.09,0,.14.02c1.65.46,3.77,1.96,5.82,3.4,1.77,1.25,4.45,3.14,5.04,2.71.1-.07.54-.6-.49-3.87-.43-.77-.1-1.43.12-1.87.23-.46.29-.6.05-.85-.37-.17-.82-.45-.86-.92-.04-.56.49-.9,1-1.22.16-.1.56-.35.71-.52-10.59-6.58-9.62-19.81-8.9-29.5.27-3.66.5-6.82.15-9.15-.01-.08,0-.16.02-.23.5-1.55-.81-3.24-2.19-5.03-1.49-1.93-3.17-4.11-2.87-6.58.02-.13.08-.24.17-.32,1.06-.9,1.45-3.09,1.81-5.03.37-2.04.66-3.65,1.67-4.1.24-.11.5-.14.78-.09-.07-.88-.46-1.9-.83-2.89-.8-2.13-1.77-4.73.42-6.35-1.94-.52-3.24-.48-3.87.11-1.13,1.06-.35,4,.4,6.84.23.86.46,1.75.64,2.59.01.06.02.12,0,.19-.37,2.41-.86,3.43-1.67,3.55-1.03.15-1.8-1.34-2.93-3.79-.35-.75-.7-1.51-1.04-2.1-.5.14-.87.12-1.15-.04-.39-.23-.45-.65-.48-.89,0-.01,0-.03,0-.04-1.39.19-2.52-.81-3.61-1.79-.77-.68-1.56-1.39-2.34-1.57-.09-.02-.18-.07-.25-.14-.97-1-2.41-.65-3.81-.3-1.16.29-2.25.56-3.06.02-.47-.31-.76-.84-.88-1.61-.02-.13.01-.27.09-.38.6-.81.81-2.21,1.01-3.56.36-2.41.81-5.39,3.9-5.47,0-.05.01-.1.02-.14.27-2,.57-4.26-1.49-5.26-.47.53-1.23.76-2.13.61-1.73-.27-3.96-1.91-4.24-3.6-.09-.54-.04-1.52,1.19-2.24.56-1.22.69-2.13.39-2.72-.46-.92-2.03-1.23-3.68-1.56-1.94-.38-4.14-.82-5.24-2.42-.03-.04-.05-.08-.06-.13-.34-1.03-.98-1.71-1.69-1.83-.38-.07-.71.05-.92.31-.32.41-.29,1.11.08,1.91.02.05.04.11.04.17.02.22.06.88-.41,1.22-.49.36-1.13.11-1.75-.13-.26-.1-.73-.29-.88-.25,0,0,0,.03-.02.07-.02.07-.05.14-.1.2-1.51,1.88-3.06.86-4.31.04-1.22-.8-2.06-1.27-3.02-.79-.48,1.61-1.02,2.51-1.75,2.91-.76.42-1.52.2-2.26-.01-1-.29-1.95-.57-3.13.6-.16.16-.4.19-.6.09-2.45-1.33-3.4-2.69-4.09-3.69-.95-1.36-1.38-1.98-5.24-1.23-.1.02-.19,0-.28-.02-.28-.11-.43-.36-.59-.6-.01-.02-.03-.04-.04-.07-.17.17-.35.27-.55.31-.4.07-.7-.15-.9-.29-.02-.01-.04-.03-.06-.04.13,1.64-.52,3.03-1.15,4.38-.29.62-.57,1.21-.76,1.8-.06.19-.23.33-.42.35-.55.07-.89-.16-1.08-.35-.53-.54-.54-1.53-.49-2.1-.42-.49-.93-.86-1.42-1.22-.93-.67-1.89-1.37-2.11-2.8-.61-.05-.73.04-.74.05-.07.07-.04.53-.03.8.09,1.66.27,4.75-5.96,8.06-1.55.97-3.22.05-4.56-.69-.93-.51-1.8-1-2.42-.8-.35.11-.65.44-.92,1.01-.06.13-.17.22-.31.27-.13.04-.28.03-.4-.04-.84-.48-3.4-1.94-4.2-1.35-.23.17-.54.71-.17,2.49,1.31,1.25.41,2.56-.18,3.43-.38.56-.74,1.09-.66,1.51.05.24.25.48.6.73,1.43.02,2.46.35,3.13,1.02,1,.99,1,2.48,1,3.93,0,1.96,0,3.65,2.14,4.27.21.06.36.25.37.47.07,2.52.22,2.58.7,2.78.59.25,1.49.63,2.83,2.56.08.12.11.27.07.42-2.6,10.01,1.62,13.47,5.35,16.51,2.57,2.1,5,4.09,4.83,7.82,0,.14-.07.27-.17.36-2.15,1.9-1.96,6.31-.43,9.23.62,1.18,2.39,3.83,5.55,3.05.06-.01.11-.02.17-.01,13.24,1.3,23.39,9.76,33.21,17.94,10.82,9.02,21.03,17.53,33.46,13.52.05-.02.1-.02.16-.02Z"/>
  </g>
  <g>
    <path class="st3" d="M-78.29,254.11c-1.25-.49-.06-2.28-.16-3.24.55-4.14,4.65,1.2.16,3.24Z"/>
    <path class="st2" d="M-78.29,254.61c-.06,0-.13-.01-.19-.04-1.25-.49-.9-1.8-.66-2.67.1-.37.21-.76.18-.99,0-.04,0-.08,0-.12.22-1.66.97-1.95,1.41-1.97.74-.04,1.49.69,1.75,1.75.32,1.29-.12,3.01-2.29,4-.07.03-.14.05-.21.05ZM-77.94,250.88c.03.4-.09.84-.22,1.3-.23.83-.27,1.18-.11,1.35,1.76-.92,1.59-2.3,1.48-2.71-.16-.65-.54-.97-.7-.97,0,0,0,0,0,0-.1,0-.34.27-.45,1.04Z"/>
  </g>
  <g>
    <path class="st15" d="M-138.41,85.09c5.26.13,10.88,6.5,15.46,1.56,1.67-.46.09,2.16,1.79,2.05,3.49-.25,2.04,4.22,3.57,6.15-3.26,7.77,11.58-.64,12.08,4.78-3.96,6.08.64,2.16-.09,7.72,1.65,5.96-6.32,7.22-5.38,12.69-2.21.02,2.49,4-.91,6-1.74,2.5,1.41,5.85-3.21,7.4-.87,9.57-2.98,4.46-6.61,9.52-2.01,1.51-3.34,4.77-5.74,6.2-.66,2.86-4.56,4.08-5.14.46,5.86.55-.89-14.43,1.15-18.69.82-1.83-7.08-1.03-8.02-1.44,6.22-26.44-14.84-24.83,1.06-44.41Z"/>
    <path class="st2" d="M-130.47,152.38s-.06,0-.09,0c-1.32-.04-2.27-1.04-2.54-2.66-.03-.15.02-.31.13-.43.11-.11.26-.18.42-.16.59.05,1.01-.07,1.3-.39,1.14-1.24.4-5.27-.25-8.83-.68-3.75-1.33-7.28-.42-9.19-.31-.53-3.63-.55-5.04-.57-1.53-.01-2.35-.03-2.73-.19-.22-.1-.35-.34-.29-.58,2.84-12.08-.12-18.28-2.5-23.25-2.83-5.93-5.07-10.61,3.66-21.36.1-.12.24-.19.39-.19h.01c1.99.05,4,.93,5.93,1.79,3.46,1.52,6.45,2.84,9.14-.06.06-.07.15-.12.24-.14.45-.12.8-.09,1.07.11.41.3.43.8.45,1.25,0,.21.03.57.11.64.02.02.11.04.25.03,2.67-.2,2.97,1.99,3.23,3.74.14.98.29,1.99.77,2.6.12.14.14.34.07.51-.33.78-.63,1.8-.25,2.3.61.79,2.98.46,5.07.17,2.5-.35,5.08-.71,6.42.35.51.41.81.98.87,1.71.01.11-.02.23-.08.32-1.92,2.95-1.63,3.18-1.19,3.52.77.6,1.5,1.4,1.19,3.89.87,3.33-1.07,5.35-2.79,7.14-1.55,1.61-3.01,3.13-2.6,5.5.03.15-.02.3-.11.41-.1.11-.24.18-.39.18-.05,0-.09,0-.11,0,.02.21.21.66.34.98.54,1.31,1.44,3.5-.78,4.88-.51.8-.46,1.74-.41,2.72.09,1.68.19,3.57-2.68,4.67-.54,5.59-1.58,6.23-3.35,6.88-.94.34-2,.73-3.32,2.57-.03.04-.07.08-.11.11-.85.64-1.58,1.62-2.36,2.67-.95,1.28-1.93,2.6-3.24,3.45-.47,1.65-1.95,2.88-3.46,2.89ZM-131.95,150.14c.26.77.75,1.2,1.42,1.23.02,0,.03,0,.05,0,.97,0,2.2-.87,2.53-2.31.03-.14.12-.25.24-.32,1.23-.73,2.2-2.03,3.13-3.29.8-1.08,1.56-2.11,2.5-2.83,1.48-2.04,2.74-2.5,3.75-2.87,1.38-.5,2.22-.81,2.72-6.34.02-.2.15-.37.34-.44,2.46-.83,2.4-2.06,2.31-3.77-.06-1.09-.12-2.34.65-3.45.04-.06.1-.11.16-.15,1.47-.87,1.12-2.07.46-3.68-.33-.81-.6-1.45-.26-1.96.1-.15.23-.26.41-.33-.23-2.58,1.38-4.26,2.94-5.88,1.7-1.77,3.3-3.44,2.52-6.27-.02-.07-.02-.13-.01-.2.29-2.22-.28-2.66-.79-3.06-1.1-.86-1.13-1.63.86-4.72-.06-.37-.22-.64-.47-.84-1-.8-3.47-.45-5.65-.14-2.59.36-5.04.71-6.01-.56-.52-.68-.52-1.68.01-3.05-.51-.8-.66-1.84-.81-2.84-.28-1.97-.5-2.99-2.15-2.87-.42.03-.76-.07-1-.29-.4-.36-.43-.91-.45-1.35,0-.14-.02-.36-.05-.46-.02,0-.04,0-.07,0-3.15,3.27-6.72,1.7-10.18.18-1.76-.78-3.59-1.58-5.3-1.69-8.14,10.11-6.14,14.3-3.38,20.08,2.41,5.05,5.41,11.32,2.69,23.4.48.04,1.26.04,1.92.05,3.09.03,5.32.12,5.91,1.03.18.29.2.64.05.98-.77,1.62-.13,5.15.49,8.58.76,4.16,1.47,8.09,0,9.7-.37.41-.86.65-1.46.71ZM-111.16,120.58h0Z"/>
  </g>
  <g>
    <path class="st9" d="M-110.98,120.05c11.94,12.72,6.91,3.01,15.98-1.73,5.69-3.18,13.95-7.86,15.28,1.27,5.1,2.12.14,3.58.79,7.87,2.61,1.43-1.85,4.55,1.64,4.8,3.7-1.38,3.02,8.75-.78,7.74-12.33-.92-9.53,22.86-13.69,28.99-.13.91-1.52-.04-2.12,1.57,3.54,4.12-.81,4.19,1.98,8.42-5.13,7.04,3.63,0,3.75,13.07,4.11.48-.12,3.51,3.67,4.19,3.22,2.91-.66,8.45,2.51,11.99.91,15.35-6.33,4.07-12.48,3.92,2.51,5.88-4.3,6.86-3.75,3.29-.53-.7-1.17.3-1.72.01-.47-.98-1.04-.19-1.72-.2-1.53-2.1-.65.57-1.94-1.73-.67.19-.39,1.25-1.78.71-.63.18-.66.73-.56-.36.26-.65,1.69.36.58-.95.05-1.35-1.08.58-1.51.57.49-1.52-3.1-3.08-3.48-1.03-1.57.68-.66-.95-.54-1.62-1.7-.5-.92-2.38-2.16-2.31-11.13,3.84-14.76-6.92-5.82-6.04,1.03-2.29,3.98-.44,2.77-2.28-8.74,2.99,1.75-2.72-11.02-6.26-5.62-12.55,3.99-13.95-1.46-19.19.08-.99.75-2.87,1.92-1.77,3.44-4.49-3.77,1.34-1.33-5.88,1.22,0,2.02-.27.38-.75,1.06-1.21-.88-1.33-1.65-1.24-.92-.86.96-2.79-.66-2.73-.75-1.14-1.78-.03-3.11-.65,2.17-1.28-.61-3.36-1.87-1.7-2.7-4.37-6.82-10.2,1.24-10.59.94-.91,2.71,4.98,4.93,1.57,4.49-7.24,12.68-9.7,13.97-18.13,5.44-1.08-.17-5.58,3.58-7.42,1.99-2.67-2.03-5.44.2-5.44Z"/>
    <path class="st2" d="M-96.51,218.05c-.41,0-.8-.09-1.15-.28-.74-.4-1.13-1.13-1.09-2.05-.07.03-.16.07-.22.1-.29.13-.74.34-1.19.09-.09-.05-.17-.13-.22-.23-.08-.17-.14-.21-.14-.21,0,0-.2.06-.3.1-.22.09-.52.19-.83.19-.16,0-.31-.08-.4-.21-.24-.33-.39-.5-.48-.59-.1.05-.23.09-.39.06-.26-.04-.46-.21-.77-.7-.31.43-.74.75-1.66.45-.06.03-.12.07-.17.1-.1.07-.37.26-.67.09-.32-.18-.3-.47-.25-1.04v-.06c-.13.08-.3.13-.43.13-.16,0-.31-.08-.4-.21-.09-.13-.12-.3-.07-.45.09-.28-.13-.56-.28-.7-.47-.48-1.29-.76-1.8-.6-.15.05-.35.15-.42.52-.03.17-.14.31-.3.37-.25.11-.92.4-1.36,0-.45-.41-.22-1.1-.02-1.7,0-.03.02-.06.03-.08-.77-.41-.99-1.1-1.15-1.59-.15-.45-.19-.51-.31-.52-5.25,1.79-8.84.44-10.45-1.42-1.01-1.17-1.28-2.61-.69-3.75.72-1.38,2.5-2.07,4.93-1.91.1-.17.22-.32.34-.44-.64.1-1.02.03-1.3-.17-.46-.32-.47-.88-.47-1.42-.02-1.37-.05-3.66-6.66-5.49-.15-.04-.27-.14-.33-.28-3.14-7.02-1.63-10.7-.53-13.38.89-2.18,1.43-3.49-.81-5.65-.11-.11-.17-.26-.15-.41.06-.71.41-2.14,1.33-2.5.24-.09.58-.13.98.07.25-.35.39-.58.46-.72-.08,0-.17,0-.24,0-.62.02-1.55.05-2.09-.68-.55-.73-.49-1.99.17-3.95.06-.19.23-.32.42-.34-.02-.03-.03-.07-.05-.11-.05-.17,0-.34.1-.47.11-.13.15-.21.17-.25-.18-.12-.82-.22-1.39-.15-.15.01-.3-.03-.4-.13-.65-.6-.42-1.45-.25-2.07.04-.16.11-.4.12-.52-.04,0-.09,0-.17,0-.2,0-.34-.08-.44-.23-.23-.35-.42-.35-1.03-.27-.51.06-1.15.14-1.87-.19-.17-.08-.28-.25-.29-.44,0-.19.09-.37.25-.46.22-.13.59-.4.55-.72-.04-.26-.33-.52-.69-.61-.24-.06-.7-.1-1.07.38-.1.13-.26.21-.43.2-.17,0-.32-.1-.41-.24l-.46-.74c-1.84-2.95-3.93-6.3-2.76-8.53.66-1.26,2.2-1.94,4.72-2.08.14-.08.29-.11.45-.1.53.04.95.57,1.48,1.24.5.64,1.18,1.52,1.75,1.5.38-.02.75-.47,1-.84,1.83-2.95,4.24-5.1,6.57-7.18,3.38-3.02,6.58-5.87,7.32-10.76.03-.21.19-.38.4-.42,2.45-.49,2.25-1.56,1.96-3.2-.25-1.38-.56-3.1,1.38-4.12.81-1.19.23-2.41-.24-3.39-.33-.69-.59-1.24-.29-1.72.28-.44.88-.44,1.07-.44.14,0,.27.06.37.16,4.2,4.47,6.38,6.25,7.53,6.13.68-.07,1.19-.89,1.9-2.04,1.09-1.76,2.57-4.16,5.94-5.92l.09-.05c4.2-2.35,9.42-5.27,12.87-3.56,1.58.78,2.59,2.45,3.01,4.99,1.31.58,2.01,1.15,2.27,1.86.31.86-.11,1.68-.56,2.55-.5.97-1.06,2.05-.91,3.51,1.36.91.87,2.29.53,3.22-.15.42-.34.94-.22,1.12.03.05.18.2.79.26.87-.29,1.66-.07,2.21.62,1.16,1.46,1.06,4.91-.2,6.85-.72,1.1-1.71,1.55-2.81,1.28-7.66-.53-9.12,9.28-10.42,17.95-.69,4.58-1.28,8.55-2.71,10.74-.16.65-.77.75-1.11.8-.38.06-.67.1-.89.5,1.78,2.19,1.45,3.37,1.13,4.52-.27.96-.53,1.87.68,3.7.12.18.11.41-.01.58-1.09,1.5-1.6,2.44-1.5,2.8.05.18.42.35.84.55,1.63.75,4.33,1.98,4.5,8.99,2.13.4,2.03,1.69,1.96,2.55-.07.86-.1,1.33,1.3,1.58.09.02.18.06.25.12,1.79,1.62,1.61,3.94,1.44,6.18-.17,2.18-.33,4.24,1.11,5.85.08.09.12.19.13.31.29,4.86-.2,7.41-1.59,8.27-1.46.9-3.4-.22-5.64-1.52-1.58-.91-3.34-1.93-4.99-2.21.83,2.61-.24,3.99-.78,4.48-.58.53-1.32.81-2.03.81ZM-98.64,214.7c.28,0,.58.11.84.45.08.11.12.25.1.38-.1.64.08,1.11.53,1.34.58.31,1.43.15,2.02-.39.91-.84,1-2.34.24-4.12-.07-.16-.05-.34.05-.48.1-.14.23-.23.43-.22,2.12.05,4.31,1.31,6.25,2.43,1.88,1.09,3.66,2.11,4.6,1.53.98-.61,1.36-3.02,1.12-7.18-1.6-1.91-1.41-4.33-1.24-6.47.17-2.12.31-3.96-1.01-5.25-2.15-.45-2.05-1.76-1.98-2.63.07-.89.11-1.34-1.5-1.53-.25-.03-.45-.24-.45-.5-.06-6.74-2.47-7.85-3.91-8.51-.63-.29-1.23-.57-1.4-1.21-.18-.71.2-1.61,1.46-3.37-1.25-2.03-.92-3.2-.63-4.24.3-1.06.53-1.89-1.13-3.83-.12-.14-.15-.33-.09-.51.44-1.2,1.3-1.33,1.81-1.41.1-.02.26-.04.31-.07.01-.08.01-.15.06-.21,1.34-1.97,1.95-6.07,2.6-10.4,1.3-8.66,2.89-19.44,11.55-18.8.03,0,.06,0,.09.02.67.18,1.26-.1,1.74-.84,1-1.54,1.14-4.56.26-5.66-.3-.37-.67-.46-1.18-.27-.07.03-.14.04-.21.03-.86-.06-1.39-.29-1.67-.72-.39-.6-.13-1.32.12-2.02.41-1.14.5-1.69-.29-2.12-.14-.08-.23-.21-.26-.37-.29-1.9.41-3.26.98-4.36.37-.73.67-1.3.51-1.74-.16-.44-.82-.91-1.97-1.38-.17-.07-.28-.22-.31-.4-.34-2.34-1.18-3.85-2.5-4.5-2.97-1.46-8.15,1.43-11.93,3.54l-.11.06c-3.14,1.64-4.54,3.91-5.56,5.56-.83,1.34-1.48,2.4-2.66,2.51-1.58.15-3.64-1.41-8.14-6.2.06.18.18.42.28.62.5,1.06,1.35,2.82.07,4.53-.05.06-.11.12-.18.15-1.31.64-1.21,1.59-.94,3.09.27,1.5.64,3.55-2.41,4.3-.89,5.03-4.15,7.94-7.59,11.02-2.28,2.03-4.63,4.13-6.39,6.96-.56.86-1.15,1.28-1.81,1.31-1.11.06-1.92-1.02-2.6-1.88-.22-.28-.53-.68-.71-.82-.07.04-.14.06-.22.06-2.18.1-3.54.62-4.02,1.55-.9,1.72,1.11,4.94,2.72,7.52l.14.22c.47-.32,1.04-.41,1.62-.26.76.2,1.34.79,1.43,1.46.03.23.02.6-.22.98.15,0,.3-.03.45-.05.57-.07,1.27-.16,1.84.5.23.02.54.1.74.36.33.41.18.93.05,1.44-.11.39-.18.7-.13.9.57-.03,1.74.03,2.11.73.1.18.16.44.04.77.39.17.73.43.67.85-.07.44-.5.65-1.43.69-.56,1.8-.38,2.45-.21,2.68.21.28.66.29,1.24.27.49-.02,1.06-.03,1.3.43.24.47,0,1.05-.97,2.3-.09.11-.22.19-.36.2-.14.01-.28-.04-.39-.14-.08-.07-.26-.24-.38-.19-.26.1-.55.75-.66,1.4,2.52,2.54,1.75,4.42.86,6.58-1.08,2.63-2.41,5.89.42,12.37,7.11,2.03,7.15,4.86,7.17,6.39,0,.23,0,.54.05.61.16.08.86.03,3.26-.8.22-.07.46,0,.59.2.26.39.5.85.3,1.26-.21.42-.69.46-1.15.49-.68.05-1.46.11-1.87,1.01-.09.2-.29.32-.51.3-2.16-.22-3.72.27-4.27,1.33-.4.76-.18,1.76.55,2.62,1.34,1.55,4.6,2.76,9.42,1.1.04-.02.09-.02.14-.03.97-.06,1.23.71,1.39,1.21.19.58.33.94.94,1.12.25.07.4.32.36.57-.03.18-.1.39-.17.62-.02.07-.05.15-.08.24.2-.35.51-.6.92-.73.98-.3,2.18.22,2.82.86.19.19.33.39.43.6.38-.39.75-.73,1.2-.54.34.15.42.5.43.75.25.31.43.57.42.83.13-.2.34-.44.7-.54.23-.06.47.03.58.24.18.32.3.52.39.64.08-.03.18-.04.29-.03.31.03.61.26,1.05.83.07-.02.15-.05.23-.08.36-.14,1.07-.42,1.59.36.07-.03.15-.07.22-.09.18-.08.45-.21.75-.21ZM-106.98,213.03h0Z"/>
  </g>
  <g>
    <path class="st6" d="M-64.13,276.4c-1.53-1.13-3.29-1.26-5.12-.81-1.19,1.58-.64-4.32-3.42-5.04-6.59-8-.05-5.53-2.03-15.51,14.83,2.4,4.62-25.89,10.36-17.86,6.32,1.3,1.42,4.36,6.16,2.43,9.75.2,17.89,9.43,25.94,13.7,3.58,3.78-4.63,13.58-2.74,18.77.11,6.78-19.86-5.74-29.16,4.32Z"/>
    <path class="st2" d="M-64.13,276.91c-.11,0-.21-.03-.3-.1-1.25-.92-2.73-1.17-4.54-.76-.24.26-.5.36-.77.31-.57-.12-.74-.79-.99-1.81-.34-1.34-.8-3.17-2.06-3.5-.1-.03-.2-.09-.27-.17-3.73-4.53-3.45-5.91-2.59-8.15.57-1.5,1.29-3.36.45-7.58-.03-.16.02-.33.13-.45.12-.12.28-.18.45-.15,2.32.37,4.07,0,5.36-1.14,3.02-2.69,2.72-9.13,2.52-13.39-.14-2.95-.21-4.43.66-4.73.64-.22,1.26.38,2.04,1.45,3.42.75,3.72,2.11,3.89,2.85.01.05.02.11.04.15.19-.01.66-.14,1.75-.59.06-.03.15-.04.2-.04,6.75.14,12.64,4.42,18.33,8.56,2.71,1.97,5.27,3.83,7.84,5.2.05.03.09.06.13.1,2.12,2.25.65,6.05-.9,10.08-1.25,3.25-2.55,6.62-1.73,8.87.02.05.03.11.03.17.01.84-.25,1.49-.77,1.94-1.41,1.2-4.51.64-8.43-.07-6.33-1.15-14.99-2.71-20.09,2.8-.1.11-.24.16-.37.16ZM-67.4,274.84c1.18,0,2.25.3,3.2.89,5.5-5.54,14.27-3.96,20.71-2.79,3.51.64,6.54,1.18,7.59.3.18-.15.41-.42.41-1.07-.89-2.6.46-6.11,1.77-9.5,1.42-3.68,2.76-7.16,1.16-8.96-2.61-1.4-5.18-3.26-7.89-5.23-5.53-4.03-11.25-8.19-17.65-8.36-1.54.62-2.12.74-2.55.52-.36-.19-.45-.55-.51-.84-.13-.56-.34-1.51-3.3-2.11-.13-.03-.24-.1-.31-.2-.51-.71-.81-1.02-.97-1.14-.15.57-.07,2.18,0,3.63.21,4.45.52,11.17-2.86,14.19-1.37,1.22-3.21,1.72-5.49,1.48.68,4.03-.07,5.99-.63,7.45-.7,1.83-1.09,2.85,2.33,7.02,1.72.57,2.26,2.73,2.63,4.18.07.28.16.62.24.86.04-.03.09-.05.14-.06.69-.17,1.35-.25,1.98-.25Z"/>
  </g>
  <g>
    <path class="st5" d="M12.03,263.48c4.41.9,9.84,2.69,8.76,8.72,5.46,11.25,27.55,41.12,18.17,52.27-4.36,1.1-6.56-2.8-7.6-6.26,5.25-2.26,4.97-4.81.06-1.14-1.52-.72-2-5.5-4.37-6.35,5.74,15.49-2.24,7.05-12.38,9.1-2.93,1.76-3.41,6.39-7.07,3.39-1.44,13.43-6.96-13.09-15.59-10.75-6.62-2.66-15.27-11.93-21.54-10.9-4.77-2.35-6.51-8.59-11.52-11.37.64-1.71,3.02-1.29,2.14-3.6-6.05-1.55,2.23-11.23,3.91-14.07-.73-5.4,2.54-11.31,3.89-16.76,34.32,29.06,15.55.25,41.75,17.99,3.43-2.4-1.14-3.31-.13-4.43,2.23-5.96-2.58-1.49,1.53-5.82Z"/>
    <path class="st2" d="M6.21,327.51c-1.16,0-2.24-1.91-3.96-4.96-2.56-4.53-6.08-10.73-10.11-9.63-.11.03-.22.02-.32-.02-2.54-1.02-5.28-2.93-8.18-4.95-4.61-3.21-9.38-6.53-13.09-5.92-.1.02-.21,0-.31-.05-2.51-1.24-4.23-3.52-5.89-5.72-1.6-2.13-3.26-4.33-5.65-5.66-.22-.12-.32-.39-.23-.62.32-.85.97-1.26,1.5-1.6.66-.42.97-.62.73-1.41-1.07-.33-1.77-.95-2.1-1.83-1.05-2.84,2.36-7.72,4.62-10.94.51-.73.96-1.37,1.25-1.83-.45-3.77.94-7.73,2.28-11.56.63-1.81,1.23-3.51,1.65-5.21.04-.17.17-.31.34-.36.17-.06.35-.02.48.1,18.61,15.75,21.32,14.29,24.19,12.74,2.66-1.43,5.42-2.92,17.22,5.01.5-.4.78-.76.8-1.05.03-.37-.37-.75-.76-1.12-.45-.43-1.2-1.14-.61-1.9.94-2.54.44-2.74.28-2.81-.16-.06-.45-.18-.52-.52-.1-.44.15-.78,1.85-2.58.12-.13.3-.18.47-.15,2.84.58,10.33,2.1,9.19,9.14,1.17,2.39,3.08,5.6,5.27,9.31,8.1,13.68,20.35,34.35,12.75,43.36-.07.08-.16.14-.26.17-3.72.94-6.64-1.41-8.21-6.61-.07-.25.05-.51.28-.61,1.61-.69,2.59-1.37,3.1-1.83-.52.22-1.35.68-2.53,1.56-.15.11-.35.13-.52.05-.84-.4-1.33-1.54-1.9-2.87-.33-.78-.69-1.62-1.13-2.28,1.46,4.29,1.66,6.48.75,7.6-.96,1.18-2.82.9-5.4.51-2.43-.37-5.44-.82-8.67-.19-.87.55-1.52,1.39-2.14,2.2-.81,1.06-1.57,2.05-2.74,2.19-.61.07-1.27-.11-1.98-.57-.31,2.22-.78,3.22-1.57,3.38-.07.02-.15.02-.22.02ZM-6.89,311.78c4.21,0,7.54,5.88,10.03,10.28.96,1.7,2.57,4.56,3.09,4.44,0,0,.53-.15.87-3.36.02-.19.14-.35.31-.42.17-.07.37-.04.51.08.78.64,1.42.93,1.94.87.74-.08,1.34-.88,2.05-1.8.67-.87,1.42-1.85,2.5-2.5.05-.03.1-.05.16-.06,3.44-.7,6.59-.22,9.11.16,2.16.33,3.86.58,4.46-.14.73-.9.23-3.58-1.57-8.44-.07-.19-.02-.39.12-.53.14-.14.35-.19.53-.12,1.54.55,2.33,2.4,3.02,4.02.38.88.76,1.79,1.17,2.18,1.22-.89,3.1-2.07,3.92-1.64.24.13.38.37.37.65-.03.82-1.51,2.01-3.73,3.03,1.01,3.1,2.98,6.36,6.7,5.53,6.9-8.54-5.04-28.7-12.96-42.06-2.25-3.8-4.2-7.08-5.38-9.53-.05-.1-.06-.21-.04-.31.96-5.36-3.5-7.11-8.09-8.08-.39.41-.96,1.02-1.24,1.38.89.53.88,1.75.01,4.07-.02.06-.06.11-.1.16,0,.11.3.39.48.56.5.48,1.13,1.08,1.07,1.93-.05.68-.54,1.34-1.51,2.01-.17.12-.4.12-.58,0-11.54-7.82-14.04-6.47-16.46-5.16-3.29,1.77-6.13,3.3-24.71-12.34-.41,1.49-.95,3.03-1.47,4.51-1.32,3.78-2.69,7.69-2.21,11.27.02.11,0,.23-.07.33-.3.51-.8,1.22-1.38,2.05-2.01,2.87-5.37,7.66-4.5,10.01.23.63.78,1.04,1.66,1.27.16.04.29.16.35.31.68,1.77-.32,2.4-1.05,2.86-.34.21-.66.42-.89.72,2.35,1.44,3.97,3.6,5.54,5.68,1.63,2.16,3.17,4.21,5.39,5.35,4.09-.56,8.96,2.83,13.67,6.12,2.79,1.95,5.44,3.79,7.83,4.78.36-.08.71-.12,1.06-.12ZM10.5,269.3h0,0Z"/>
  </g>
  <g>
    <path class="st1" d="M-38.61,116.26c24.67,14.55,59.9,61.47,36.11,78.86-1.6,3.14-.08,5.59.81,8.97-1.1,9.52-5.22-10.35-19.8-7.54-2.64-6.25,10.12-12.65,2.2-16.35-12.89.98,4.7-9.15-10.91-10.23-4.18-2.53-2.37-8.73-8.17-9.9-1.85,1.75-2.48-4.48-1.62-4.83.92-7.96-7.56-7.12-3.39-16.92-3.54-2.41-1.38-7.13-1.51-10.65-2.87-5.17,3.97-7.65,6.28-11.42Z"/>
    <path class="st2" d="M-2.74,207.2c-.81,0-1.63-.99-2.89-2.52-2.85-3.44-7.62-9.21-15.75-7.63-.23.04-.47-.08-.56-.3-1.29-3.05.74-6.06,2.52-8.71,1.33-1.98,2.59-3.84,2.19-5.28-.22-.78-.92-1.45-2.14-2.04-2.83.2-4.41-.11-5.11-1.02-.74-.95-.29-2.27.14-3.55.44-1.31.9-2.67.23-3.67-.73-1.1-2.79-1.77-6.11-2-.08,0-.16-.03-.23-.07-1.98-1.2-2.7-3.1-3.4-4.95-.85-2.24-1.58-4.18-4.38-4.83-.52.37-.96.28-1.19.18-1.22-.54-1.46-3.18-1.44-4.16.01-.81.14-1.36.4-1.66.3-3.14-.94-4.75-2.26-6.45-1.72-2.22-3.5-4.52-1.27-10.04-2.43-1.93-2.01-4.98-1.65-7.69.14-1.06.28-2.07.26-2.99-2.04-3.81.8-6.35,3.31-8.59,1.15-1.03,2.34-2.09,3.04-3.23.14-.23.45-.31.69-.17,19.62,11.58,43.21,41.03,44.22,61.65.38,7.75-2.3,13.8-7.97,17.99-1.08,2.22-.49,4.06.26,6.38.22.67.44,1.37.64,2.12.02.06.02.12.01.19-.23,1.96-.58,2.81-1.28,3.01-.1.03-.19.04-.29.04ZM-18.72,195.77c7.03,0,11.39,5.27,13.87,8.27.79.96,1.78,2.15,2.11,2.15h0s.32-.23.54-2.06c-.19-.69-.4-1.34-.6-1.97-.77-2.37-1.5-4.62-.15-7.26.04-.07.09-.13.15-.18,5.44-3.98,8.02-9.76,7.65-17.19-.99-20.17-23.99-48.96-43.31-60.57-.78,1.09-1.88,2.08-2.95,3.03-2.58,2.3-4.8,4.29-3.04,7.45.04.07.06.15.06.23.04,1.04-.12,2.18-.26,3.28-.37,2.78-.73,5.41,1.55,6.97.2.14.28.4.18.62-2.23,5.24-.74,7.16.99,9.39,1.34,1.74,2.87,3.7,2.44,7.39-.02.16-.11.29-.24.37-.32.55-.07,3.54.63,4.15.06.06.13.11.37-.12.12-.11.29-.16.45-.13,3.54.71,4.47,3.16,5.36,5.52.65,1.72,1.27,3.35,2.87,4.37,3.68.27,5.83,1.04,6.76,2.44.95,1.42.38,3.09-.12,4.56-.36,1.07-.7,2.08-.3,2.6.46.59,1.93.8,4.37.62.08,0,.17,0,.25.05,1.58.74,2.5,1.64,2.81,2.75.52,1.89-.86,3.95-2.32,6.12-1.64,2.43-3.33,4.94-2.57,7.37.84-.14,1.66-.2,2.43-.2Z"/>
  </g>
  <g>
    <g>
      <path class="st7" d="M363.39,156.69c1.88.81,2.01-1.61,2.97-2.37,1.87.2.26,1.39,2.98,1.13,8.06,3.94,25.48-12.28,12.99,16.74-.86,9.89,6.79,9.23,5.04,13.56-3.92,4.47.91,13.43-5.88,16.63,4.61,4.05-1.63,9.7,1.72,19.82.86,1.49,2.32,4.34-.87,3.06-1.96,1.85-3.21,8.24-3.4,10.92,3.4,2.69-.84,1.7-.52,6.4-10.23,7.64-9.54-3.9-12.18,3.22-3.22,2.64-8.13,6.11-4.77,10.12-2.41,3.07-2.08,1.17-1.71,5.09-2.17,4.56,4.9.29,5.76,4.62,1.66,2.59-.73,3.37-3.04,3.31-2.63,1.7-5.33,5.99-8.85,5.47-1.44,8.02-8.26.18-8.37,10.42,1.66,3.1-.56,4.83,4.06,4.45.24,4.42-.59,8.49-6.09,8.13-11.57,34.83-4.13,9.45-24.24,20.23-13.28-9.84-20.05,16.23-31.35,5.03-8.26,2.98-16.25-8.38-24.45-4.64,11.39-12.62-23.11-6.05-30.16-4.46-11,3.53-4.15,4.77-10.1,16.46-5.61,3.28-6.26-2.66-12.77,6.75-6.43,2.3-7.37-4.98-14.75,2.31-1.37-4.94-2.42-2.03-5.95-2.26-17.82-11.76-34.04,18.28-47.14.97-5.32.05-4.75-3.62-7.68-7.73-.75-1.94-3.62-1.29-5.1-2.05-1.69-1.1-2.25-3.67-4.53-4.11-2.02-1.2-1.16-5.84-4.31-5.36-6.16-2.43-12.49-9.19-11.11-17.4-10.94-.09-.76-11.82.37-13.13.77,3.84-.46,8.16,3.78,10.43,11.94,4.4,5.66,7.43,11.96,6.89,3.73-1.87,9.05,1,12.12-.74,4.12,4.71.25-5.44,4.1-4.21,1.27,11.39,10.21-3.69,6.91,6.43-2.46,3.19.34-.11,1.73,1.94.26,1.84,1.58.58,2.71.46,1.82,1.03,4.52,1.72,6.35,2.71,2.71,2.54-4.88,4.74-1.03,4.52,2.02-.15,3.87-1.98,2.9-4.01,5.71-7.16,14.38,12.32,21.46,6.53,1.7.45,3.29,2.3,4.98,2.83,4.41-1.77-1.54-.25-1.33-3.14-19.52.39-17.09-19.44-3.05-10.14-9.6-5.57-6.24-7.82-1.93-19.58-.21-2.28,1.65-.57,2.94-1.01-3.14-2.7.44-2.94,2.77-1.98,3.33-1.01,2.03-5.13.49-.94-16.15-1.84-.24-3.91-6.72-5.3.49-16.69,4.05-2.5,10.22-5.61-11.47-32.19,60.87-15.86,85.91-51.57,8.45-17.71,35.79-30.44,33.24-51.63,21.39,5.43,6.68,17.99,19.42,15.77,4.86,12.62,14.01,14.21,18.32.02-.59-1.56-3.67.84.05-2.95,3.91-8.16-2.47.05-2.31-15.45-3.45-3.59,3.5-7.36,6.77-7,2.97-.79,4.9-9.59,5.3-.55-.97,11.17,1.91,22.83,14.59,23.45,2.58-2.71-4.32-4.27-3.66-9.39,1.68-5.87-2.6-13.88-5.57-18.12ZM191.18,273.02c-4.79,7.38-7.99-24.89-1.9-16.09,1.28,4.53-.42,11.77,1.9,16.09Z"/>
      <path class="st2" d="M152,343.86c-3.46,0-6.79-1.46-9.94-5.53-3.83-.05-4.76-2.03-5.94-4.52-.49-1.04-1.05-2.22-1.9-3.43-.02-.03-.05-.07-.06-.11-.35-.9-1.31-1.09-2.73-1.27-.75-.1-1.52-.2-2.12-.51-.81-.52-1.34-1.25-1.86-1.96-.7-.97-1.37-1.88-2.54-2.1-.06-.01-.11-.03-.16-.06-1-.59-1.37-1.78-1.74-2.93-.52-1.65-.88-2.57-2.24-2.36-.09.01-.18,0-.26-.03-6.57-2.59-12.53-9.35-11.51-17.38-2.45-.12-4-.89-4.64-2.27-1.45-3.19,2.61-8.65,5.16-11.63l.04-.05c.13-.15.32-.21.51-.16.19.05.33.2.37.39.21,1.06.28,2.14.34,3.19.17,2.86.32,5.34,3.15,6.87,6.67,2.46,7.82,4.58,8.51,5.85.49.9.66,1.22,3.1,1.01,2.02-.97,4.38-.68,6.66-.4,2.06.25,4,.49,5.35-.28.21-.12.47-.07.63.11.66.75,1,.98,1.14,1.05.11-.29.12-1.09.13-1.64.02-1.39.05-2.97.95-3.63.43-.31.99-.36,1.65-.15.19.06.33.23.35.43.24,2.17.78,3.48,1.59,3.9.95.48,2.29-.28,3.37-.9.98-.56,1.75-.99,2.31-.53.57.47.47,1.52-.39,4.18-.02.06-.05.11-.08.15-.09.11-.2.26-.32.42.65-.08,1.46.04,2.06.92.04.06.07.14.08.22.05.37.14.51.19.54.12.07.58-.1.86-.21.34-.13.72-.27,1.1-.31.1-.01.21.01.3.06.91.51,2.08.96,3.22,1.38,1.09.41,2.21.83,3.12,1.33.04.02.07.05.11.08.53.5.79,1.05.76,1.64-.06,1.18-1.27,2.09-2.15,2.75.99-.08,1.96-.65,2.41-1.42.23-.41.43-1.06.05-1.86-.08-.18-.06-.38.06-.54.86-1.08,1.86-1.67,2.97-1.78,2.54-.23,5.2,2.06,8.02,4.5,3.46,2.98,7.02,6.06,10.12,4.04-5.76-.91-8.85-3.85-9.86-6.68-.79-2.21-.28-4.44,1.29-5.67.73-.57,2.39-1.45,5.2-.77-3.26-3.22-2.05-6.16.25-11.78.61-1.49,1.3-3.17,2.02-5.12-.03-.45,0-1.04.39-1.39.45-.4,1.07-.26,1.66-.12.06.01.12.03.17.04-.53-.68-.65-1.27-.35-1.75.21-.34.61-.55,1.1-.64-3.61-.63-4.12-1.27-4.25-1.83-.2-.82.66-1.38,1.5-1.93.27-.18.7-.46.87-.64-.13-.08-.44-.22-1.19-.38-.24-.05-.41-.27-.4-.51.19-6.56.85-8.18,1.85-8.65.93-.45,1.9.29,3.03,1.14.89.67,1.85,1.39,2.91,1.71-1.97-2.22-2.89-9.07-2.95-12.83-.06-3.71.5-5.77,1.65-6.14,1.18-.38,2.26,1.18,2.61,1.69.03.05.06.1.07.15.55,1.96.57,4.32.57,6.82.18-.47.4-.93.64-1.38,4.11-7.44,16.85-10.26,31.6-13.53,18.82-4.17,42.24-9.36,54.21-26.4,3.28-6.86,9.44-13.05,15.39-19.04,9.5-9.56,19.33-19.46,17.79-32.27-.02-.17.04-.33.17-.44.13-.11.3-.15.46-.11,12.25,3.11,13,8.67,13.5,12.35.2,1.45.35,2.59,1.13,3.17.77.57,2.27.65,4.57.25.24-.04.47.09.56.32,2.4,6.23,5.87,9.87,9.37,9.74,3.2-.12,6.09-3.57,7.93-9.49-.11-.13-.32-.16-.73-.16-.33,0-.77-.01-.94-.43-.2-.49.09-.92,1.84-2.71,1.58-3.31,1.33-3.5.61-4.07-1.15-.91-3.07-2.43-3.01-10.88-1.26-1.43-1.02-2.77-.58-3.66,1.19-2.43,5.31-4.25,7.81-4.05.92-.3,1.82-1.64,2.54-2.73.8-1.19,1.37-2.05,2.13-1.84.65.18,1.03.95,1.18,4.51,0,.02,0,.04,0,.07-.7,8.05.78,14.61,4.16,18.48,2.34,2.67,5.6,4.16,9.71,4.4.65-.81.18-1.43-1.18-2.84-1.39-1.45-3.13-3.25-2.76-6.1,0-.03,0-.05.02-.07,1.48-5.16-1.87-12.52-5.49-17.69-.13-.19-.12-.44.02-.61.14-.18.39-.23.6-.15.75.33,1.01,0,1.54-1.01.25-.48.51-.97.91-1.29.1-.08.23-.12.37-.11,1.01.11,1.3.5,1.51.9.09.18.18.35,1.37.23.1,0,.19,0,.27.05,2.41,1.18,5.89.39,8.96-.3,3.28-.74,6.38-1.44,7.86.34,1.76,2.12.67,7.45-3.56,17.28-.44,5.35,1.67,7.39,3.38,9.03,1.29,1.25,2.52,2.42,1.64,4.6-.02.05-.05.1-.09.14-1.56,1.78-1.63,4.37-1.7,7.11-.09,3.57-.18,7.26-3.71,9.31,1.95,2.12,1.51,4.6.96,7.68-.55,3.09-1.23,6.94.37,11.81,1.14,1.99,1.4,3.1.87,3.72-.48.56-1.35.39-2.07.14-1.59,1.86-2.76,7.31-3.01,10.1.88.72,1.26,1.24,1.3,1.76.05.57-.3.96-.67,1.38-.58.65-1.31,1.46-1.17,3.45.01.17-.06.34-.2.44-6.11,4.57-8.7,2.5-10.09,1.39-.28-.22-.66-.53-.79-.49-.12.03-.47.3-1.13,2.1-.03.08-.08.16-.15.22-.22.18-.46.37-.69.56-2.13,1.72-4.79,3.87-5,6.11-.09.93.24,1.82,1,2.73.15.18.16.45.01.64-.66.84-1.12,1.32-1.43,1.64q-.48.5-.35,1.54c.05.38.11.88.17,1.55,0,.09,0,.18-.05.27-.47.99-.36,1.3-.32,1.37.16.26,1.02.28,1.7.3,1.54.04,3.85.1,4.39,2.54.64,1.03.76,1.91.35,2.63-.7,1.25-2.72,1.42-3.72,1.39-.74.5-1.5,1.22-2.3,1.98-1.81,1.71-3.83,3.62-6.29,3.53-.81,3.66-2.92,4-4.62,4.27-1.99.32-3.56.57-3.65,5.49.56,1.09.68,2.04.76,2.73.15,1.22.19,1.55,2.75,1.34.14-.01.27.03.38.12s.17.22.17.36c.19,3.53-.38,5.83-1.78,7.22-1.04,1.03-2.53,1.52-4.46,1.47-4.83,14.55-6.27,18.34-8.04,19.07-.86.36-1.68-.05-2.62-.52-2.07-1.04-5.54-2.78-13.71,1.6-.17.09-.38.08-.54-.04-6.34-4.7-11.17-.76-15.84,3.05-4.66,3.81-9.49,7.74-15.34,2.16-4.13,1.32-8.15-.66-12.04-2.58-4.16-2.05-8.09-3.99-12.07-2.17-.22.1-.48.03-.62-.16-.14-.19-.13-.46.03-.64,1.9-2.1,2.55-3.69,1.94-4.73-2.27-3.88-20.59-1.38-31.61,1.11-6.27,2.01-6.39,3.08-6.76,6.24-.25,2.21-.6,5.23-3,9.96-.04.09-.11.16-.2.21-2.25,1.31-3.76,1.23-5.09,1.16-2.02-.1-3.62-.19-7.52,5.44-.06.09-.15.15-.25.19-2.79,1-4.64.29-6.27-.33-2.32-.88-4.14-1.57-8.29,2.52-.13.13-.32.18-.49.13-.17-.05-.31-.18-.36-.36-.4-1.43-.78-2.23-1.18-2.46-.28-.16-.69-.05-1.37.15-.76.22-1.7.5-2.95.42-.09,0-.17-.03-.25-.08-8.34-5.5-16.28-1.6-23.96,2.17-4.56,2.24-8.99,4.42-13.21,4.42ZM142.31,337.31c.16,0,.31.07.4.2,6.54,8.64,13.73,5.11,22.05,1.02,7.53-3.7,16.07-7.89,24.85-2.18,1,.04,1.78-.18,2.46-.38.79-.23,1.48-.43,2.15-.06.57.32,1,1,1.42,2.27,4.21-3.89,6.43-3.05,8.76-2.17,1.51.57,3.07,1.17,5.42.37,4.15-5.96,6.08-5.86,8.31-5.74,1.22.07,2.49.13,4.4-.95,2.26-4.49,2.59-7.37,2.83-9.48.41-3.62.89-4.98,7.5-7.1,1.24-.28,29.3-6.55,32.75-.64.7,1.2.4,2.7-.93,4.54,3.82-.88,7.57.97,11.22,2.77,3.97,1.96,7.73,3.81,11.55,2.44.18-.07.39-.02.53.12,5.31,5.26,9.43,1.9,14.21-2,4.68-3.82,9.97-8.14,16.82-3.26,8.43-4.44,12.14-2.58,14.36-1.46.88.44,1.36.66,1.77.49,1.41-.58,3.3-5.9,7.58-18.82.07-.22.27-.37.52-.35,1.83.12,3.16-.26,4.07-1.16,1.12-1.11,1.6-3,1.5-5.93-2.71.14-3.1-.61-3.31-2.26-.08-.68-.19-1.52-.71-2.5-.04-.08-.06-.16-.06-.24.07-5.9,2.42-6.27,4.5-6.6,1.75-.28,3.27-.52,3.87-3.9.05-.27.3-.45.57-.41,2.18.32,4.09-1.48,5.93-3.22.88-.83,1.72-1.62,2.57-2.17.09-.06.19-.08.29-.08,1.48.04,2.65-.3,2.97-.87.27-.48-.05-1.17-.37-1.66-.03-.05-.06-.11-.07-.18-.32-1.61-1.57-1.76-3.45-1.81-1.08-.03-2.1-.06-2.54-.78-.31-.51-.25-1.21.21-2.21-.06-.58-.11-1.03-.16-1.38-.17-1.37-.16-1.55.63-2.37.25-.26.62-.64,1.11-1.25-.75-1.01-1.08-2.07-.97-3.15.26-2.66,3.1-4.96,5.38-6.8.2-.16.39-.32.58-.47.65-1.71,1.13-2.42,1.77-2.6.62-.17,1.14.24,1.69.68,1.32,1.06,3.31,2.65,8.63-1.25-.07-2.22.84-3.23,1.45-3.91.23-.26.43-.48.42-.61-.01-.13-.17-.47-1.13-1.23-.13-.1-.2-.27-.19-.43.15-2.17,1.32-9.15,3.56-11.25.14-.14.35-.17.54-.1,1,.4,1.25.26,1.26.26,0-.01.24-.43-1.01-2.59-.02-.03-.03-.06-.04-.09-1.7-5.14-.99-9.14-.42-12.35.56-3.13.96-5.39-1.15-7.25-.13-.11-.19-.28-.17-.45s.13-.32.29-.39c3.59-1.69,3.68-5.12,3.77-8.75.07-2.77.14-5.63,1.89-7.69.54-1.42-.09-2.12-1.43-3.41-1.77-1.7-4.19-4.04-3.68-9.93,0-.05.02-.11.04-.16,3.97-9.22,5.19-14.56,3.74-16.31-1.08-1.3-3.89-.67-6.86,0-3.18.72-6.79,1.53-9.5.29-1.47.12-1.9-.17-2.23-.78-.08-.16-.14-.27-.49-.33-.18.21-.34.52-.5.82-.33.62-.77,1.46-1.59,1.65,3.49,5.28,6.48,12.4,5.02,17.58-.29,2.35,1.19,3.88,2.49,5.22,1.3,1.35,2.64,2.74,1.04,4.42-.1.11-.25.17-.39.16-4.51-.22-8.1-1.82-10.67-4.76-4.55-5.21-4.91-13.31-4.41-19.2-.11-2.41-.32-3.2-.44-3.46-.25.22-.68.86-1.01,1.35-.84,1.25-1.89,2.82-3.21,3.17-.06.02-.12.02-.19.01-2.09-.22-5.9,1.45-6.89,3.48-.46.93-.28,1.8.55,2.66.09.1.14.22.14.36-.08,8.14,1.61,9.48,2.62,10.28,1.28,1.02,1.37,1.75-.36,5.38-.02.05-.06.1-.1.14-.72.73-1.14,1.19-1.38,1.48.48.03,1.16.18,1.44.94.04.1.04.22.01.33-2,6.58-5.17,10.27-8.92,10.41-.07,0-.14,0-.21,0-3.77,0-7.48-3.71-10-10.01-2.42.38-3.95.23-4.94-.49-1.13-.83-1.32-2.23-1.54-3.85-.48-3.54-1.13-8.36-12.04-11.32,1.15,12.94-8.66,22.82-18.15,32.37-5.9,5.94-12.01,12.09-15.21,18.8-.01.03-.03.05-.04.07-12.19,17.39-35.84,22.63-54.85,26.85-14.51,3.22-27.04,5.99-30.93,13.03-1.33,2.41-1.61,5.23-.86,8.58.16.53.36,1.02.6,1.48.09.16.08.36-.02.52,0,0-.01.02-.02.03.07.21.14.42.22.63.09.24-.02.51-.25.62-2.77,1.4-5.03-.31-6.69-1.56-.79-.6-1.61-1.21-1.98-1.04-.68.33-1.1,2.8-1.26,7.35,1.05.27,1.52.6,1.62,1.09.13.7-.6,1.17-1.36,1.68-.36.23-1.02.67-1.06.87.06.1.66.79,6.68,1.5.52-1.27,1.11-1.87,1.71-1.79.32.04.67.3.72.9.06.8-.54,2.29-2.44,2.87-.11.03-.23.03-.34-.02-1.56-.65-3.11-.54-3.29-.25-.04.06.03.5,1.05,1.37.14.12.2.3.17.48-.03.18-.16.33-.33.38-.61.21-1.27.06-1.8-.06-.25-.06-.67-.15-.77-.1,0,0-.09.13-.04.65,0,.08,0,.15-.03.22-.74,2.01-1.45,3.74-2.07,5.26-2.79,6.8-3.68,8.99,2.24,12.78.5.27,1.01.59,1.55.94.23.15.3.46.15.69-.15.23-.45.31-.69.17-.51-.3-.98-.58-1.43-.87-3.18-1.75-5.95-2.04-7.6-.75-1.24.97-1.61,2.71-.96,4.53,1.12,3.14,5.18,6.44,13.28,6.28.17,0,.28.06.38.16.1.1.15.24.14.39-.06.86.61,1.18,1.89,1.47.55.12,1.03.23,1.07.72.04.54-.5.81-1.95,1.39-.11.04-.23.05-.34.01-.89-.28-1.73-.88-2.55-1.46-.75-.53-1.46-1.04-2.17-1.29-3.8,2.84-7.96-.74-11.64-3.92-2.65-2.29-5.16-4.44-7.26-4.26-.76.07-1.44.45-2.08,1.17.31.84.23,1.72-.22,2.5-.62,1.07-1.89,1.83-3.23,1.93-.81.05-1.43.04-1.62-.46-.19-.51.27-.85.95-1.36.68-.51,1.72-1.29,1.76-2,.01-.26-.11-.52-.39-.8-.84-.45-1.91-.85-2.94-1.24-1.11-.42-2.25-.85-3.2-1.36-.22.05-.47.14-.71.23-.56.21-1.2.45-1.74.13-.34-.2-.56-.58-.66-1.14-.44-.57-1.02-.45-1.68-.25-.3.09-.7.21-.95-.14-.28-.4-.05-.71.93-1.98.65-2.01.7-2.71.67-2.95-.25.07-.77.36-1.15.58-1.23.7-2.9,1.65-4.34.92-1.1-.56-1.79-1.98-2.1-4.33-.19-.02-.34,0-.44.08-.49.35-.51,1.78-.53,2.82-.02,1.31-.04,2.35-.77,2.61-.52.19-1.12-.12-2.01-1.08-1.59.71-3.54.47-5.61.22-2.16-.26-4.4-.54-6.17.35-.06.03-.12.05-.18.05-2.92.25-3.46-.22-4.18-1.53-.62-1.14-1.67-3.06-8-5.39-.02,0-.04-.02-.06-.03-3.36-1.8-3.54-4.81-3.71-7.72-.04-.65-.08-1.32-.16-1.97-3.55,4.32-5.16,7.93-4.34,9.74.5,1.11,1.95,1.68,4.3,1.7.15,0,.29.07.38.18s.14.26.11.41c-1.28,7.62,4.52,14.31,10.67,16.79,2.17-.25,2.75,1.59,3.22,3.08.31.98.6,1.9,1.22,2.32,1.5.33,2.33,1.47,3.07,2.48.48.66.94,1.29,1.55,1.68.41.21,1.06.29,1.75.38,1.37.18,2.92.38,3.53,1.85.89,1.26,1.46,2.46,1.96,3.53,1.17,2.48,1.89,3.98,5.27,3.94h0ZM184.52,319.15c.44.26.86.57,1.28.86.72.52,1.41,1.01,2.1,1.26.18-.07.33-.14.47-.19-.86-.22-2.07-.66-2.26-1.89-.54,0-1.07-.01-1.58-.04ZM188.86,284.02c-.09.14-.21.34-.33.61.12-.15.2-.29.25-.41.03-.07.06-.14.08-.2ZM187.45,255.9s-.05,0-.05,0c-.35.11-1,1.34-.95,5.16.09,5.78,1.69,12.1,3.17,12.53.28.08.59-.16.84-.46-.17-.54-.31-1.07-.43-1.58-.7-2.33-.7-5.1-.71-7.79,0-2.45,0-4.76-.51-6.61-.79-1.12-1.22-1.24-1.37-1.24Z"/>
    </g>
    <g>
      <path class="st18" d="M368.11,135.54c1.87,5.17-1.39,3.07-4.12,5.25-.09-1.46,3.05-8.45,4.12-5.25Z"/>
      <path class="st2" d="M363.99,141.29c-.07,0-.14-.01-.21-.04-.17-.08-.29-.24-.3-.43-.08-1.31,1.92-6.26,3.65-6.6.38-.07,1.06-.02,1.45,1.15.64,1.76.74,2.82.35,3.55-.4.75-1.22.95-2.09,1.17-.8.2-1.71.42-2.55,1.09-.09.07-.2.11-.32.11ZM367.34,135.21s0,0,0,0c-.77.15-2.14,2.88-2.64,4.53.68-.34,1.35-.5,1.93-.64.77-.19,1.26-.33,1.43-.66.23-.42.09-1.34-.42-2.73,0,0,0,0,0-.01-.11-.32-.23-.48-.29-.48Z"/>
    </g>
    <g>
      <path class="st8" d="M490.69,191.47c-14.5,2.87-15.33-10.2-4.55-2.66,1.09,1.44,4.22.44,4.55,2.66ZM475.02,191.33c-17.66-9.29-18.59-7.46-39.45-9.57-7.29,6.01-7.04-6.22-11.22,2.51-4.57,1.88-3.51-.67-7.27-3.29-3.58,2.67-7.47-1.27-9.25,1.77-6.78,6.94-3.44-.35-10.66-.32-2.47-5.5-2.41,3.99-4.98,5.85-1.81-.72-3.06.16-4.37,1.92-5.82,3.63.95-5.11-.38-7.02-3.69-2.78-3.39-2.17-4.71-6.78-1.86-10.74,14.14-23.89-6.64-22.2,4.82-6.09,6.51-1.1,7-9.6,3.61-4.27-3.16.74-7.97-6.04-.11-3.16-1.45.75-1.89-.91.53-4.91,5.34-7.29,8.78-10.22,0,0,1.62-3.52,1.62-3.52,3.43-3.15-1.5,5.56,1.15,3.99-.21-3.3,10.63,5.26,13.1-5.24,1.13-5.44,1.39-5.94,6.5-8.42,1.48-1.08.81-3.43,1.44-4.9.84-1.41,5.96-8.47,1.72-7.61-1.36-1.87,2.45-1.01,4.5-5.72,2.17-2.75,3.43.17,4.41-1.14.25-3.75-5,1.02-.63-3.01,10.09-6.87,16.96-19.47,20.61-31.34,1.86-4.73,5.67,1.44,5.61,4.28-1.46-1.07-1.81-.35-1.89,1.27,6.25,2.81-2.92,8.19-1.24,12.59,5.85.62,9.28-7.81,12.63-11.79-.46-1.96-3.16-5,.87-4.45.85-.76-1.33-2.84,1.11-2.34,13.49-2.38-1.11,14.85,17.25,20.44,4.22-7.77,2.1,3.54,8.11,1.62,1.44,1.02,1.88,4.12,2.77,2.45,6.63,12.77-8.9,8.25-3.85,14.26,4.22,12.05,1.13,7.64-7.3,13.35,2.83-2.91,14.95.09,13.97-3.51,1.46-.52,3.57.26,5.18-.48,2.3-1.72,5.66-8.01,7.8-2.86,4.92,11.33,3.2,8.21-6.59,10.17,2.46,5.11.49,6.19,6.65,3.64,3.38,1.56,5.42.97,4.89-3.48,4.85-3.17,19.76,1.07,19.26,6.82-.28,1.17-1.59,7.81.17,4.4,2.23-8.7,5.65-.18,10.64,2.27,1.11,2.96-.24-2.01,3.07,1.51,4.27.69,1.19,3.43,3.17,3.76,3.39.31-1.56-4.5,4.95-1.04,6.05-.5,4.98-4.79,10.08,2.31,2.44,17.25-25.4,16.18-35.28,19.91-3.68-3.02-6.06-8.49-10.04-2.16-15.38,1.06,2,18.36,7.89,17.02,2.76,1.26-1.17,3.66,1.96,4.98,2.76-4.31,9.72,5.27,4.02,3.39,1.24,5.07-15.94,3.86-19.89,5.69-8.94,5.97-11.46,1.75-19.48-2.11-2.81-.93-2.26-5.68-5.71-1.9-1.15.87.78,1.14.86,1.95-.49,1.09.62,2.77.94,3.64-5.78,5.13,2.1,3.21-3.99,5.2ZM505.1,112.83c2.49.75-2.28,2.68-2.57.98.4-.96,1.69-1,2.57-.98ZM528.47,175.97c4,1.65-.99,1.59-2.06,2.53-2.4-2.85-1.96-3.28,2.06-2.53ZM518.51,168.71c7.92-2.16,2.78,5.13-7.55-1.27,4.61.89,4.67-2.89,7.55,1.27ZM470.49,70.56c5.33,4.58-2.44,8.32-5.78,4.79.11-1.3,2.53-.86,3.36-1.01,4.42-1.58-2.43-1.59-.21-3.07.61-.06,2.19-.22,2.63-.71ZM448.99,43.19c3.56,4.56-3.08,1.62-.94,4.76-.44.48-6.47.63-3.55,2.06-4.8,3.07-.7-2.36-.23-3.65,1.83-.39,3.75-1.48,4.72-3.17ZM456.76,43.8c6.73-3.51,6.4,6.29,2.7,7.01-3.06.78-5.95,1.37-7.3,4.15-1.51-4.58-.58-9.97,4.59-11.17Z"/>
      <path class="st2" d="M486.69,192.39c-4.37,0-7.19-1.62-8.1-3.5-.24-.5-.32-.99-.25-1.43-.98,1.03-1.1,1.54-1.09,1.73,0,.16.1.25.31.42.18.14.48.37.41.76-.08.48-.48.68-2.8,1.44-.13.04-.27.03-.39-.03-14.14-7.44-17.3-7.69-29.08-8.62-2.82-.22-6.01-.48-9.97-.88-3.87,3.1-5.91,1.29-7.27.09-.56-.5-1.05-.94-1.45-.85-.57.11-1.3,1.11-2.19,2.97-.05.11-.15.2-.27.25-3.21,1.32-4.02.58-5.28-.96-.51-.63-1.14-1.4-2.19-2.18-1.86,1.21-3.79.89-5.35.63-1.75-.29-2.77-.4-3.46.77-.02.04-.05.07-.07.1-2.25,2.3-3.49,3.19-4.52,3.15-.8-.03-1.28-.59-1.79-1.19-.82-.95-1.83-2.13-4.67-2.13-.01,0-.03,0-.03,0-.2,0-.38-.12-.46-.3-.47-1.04-.75-1.31-.84-1.38-.3.25-.71,1.63-.98,2.55-.56,1.88-1.19,4.01-2.4,4.88-.14.1-.32.12-.48.06-1.39-.55-2.41-.08-3.78,1.75-.04.05-.08.09-.14.13-1.53.95-2.36,1.17-2.86.74-.7-.6-.15-1.9.7-3.85.58-1.34,1.44-3.35,1.14-3.99-.32-.24-.61-.46-.88-.65-2.65-1.97-2.72-2.08-3.78-5.79l-.15-.54c-.69-3.98.9-8.15,2.31-11.82,1.36-3.56,2.54-6.64,1.25-8.37-1.15-1.54-4.31-2.07-9.67-1.64-.21.02-.39-.09-.49-.27s-.08-.4.05-.55c2.05-2.59,3.56-3.26,4.67-3.74,1.38-.61,1.95-.86,2.22-5.57,0-.11.05-.22.12-.3.54-.64.76-.98.85-1.15-.2-.04-.54-.06-.83-.07-1.83-.1-5.24-.3-8.01-4.2-.06-.08-.09-.18-.09-.28,0-.26-.03-.45-.05-.59-.02.02-.03.03-.05.05-.3.29-.68.65-1.15.53-.3-.08-.52-.35-.63-.78-.02-.06-.02-.12-.01-.19.44-4.08,3.59-6.45,6.64-8.74.79-.59,1.53-1.15,2.23-1.74.26-.57,1.57-3.42,1.57-3.42.03-.06.07-.12.12-.16.57-.53,1.23-1.06,1.77-.72.61.38.33,1.29-.12,2.8-.11.38-.27.91-.37,1.35.03-.03.06-.06.09-.08.62-.53,1.73-.27,3.27.1,1.64.39,3.67.87,5.46.44,2.04-.48,3.35-2.08,4.01-4.88,1.14-5.47,1.44-6.17,6.73-8.74.7-.54.77-1.52.85-2.57.05-.72.11-1.46.38-2.1,0-.02.02-.04.03-.06.11-.18.29-.46.51-.8,2.21-3.39,3.13-5.41,2.74-5.98-.1-.15-.47-.18-.98-.07-.19.04-.39-.04-.51-.2-.2-.28-.46-.71-.36-1.19.12-.56.63-.85,1.28-1.23.99-.57,2.5-1.44,3.53-3.81.02-.04.04-.08.07-.11,1.51-1.93,2.83-1.43,3.61-1.13.46.17.6.2.69.11,0-.39-.06-.66-.2-.77-.25-.19-.88,0-1.18.1-.3.09-.71.22-.94-.16q-.25-.43,1.83-2.36s.04-.03.06-.05c8.72-5.94,16.16-17.26,20.41-31.07.78-1.98,1.85-2.2,2.61-2.05,2.12.43,4.03,4.36,3.99,6.49,0,.19-.11.36-.28.44-.17.08-.37.07-.53-.05-.63-.46-.82-.41-.82-.41-.02.01-.17.12-.24.96,1.12.56,1.8,1.26,2.06,2.12.5,1.61-.56,3.34-1.67,5.17-1.07,1.75-2.17,3.56-1.77,5.13,3.91.16,6.71-4.12,9.21-7.91.85-1.29,1.66-2.52,2.48-3.52-.13-.4-.34-.86-.54-1.31-.53-1.15-1.03-2.24-.47-3,.45-.61,1.37-.64,2.14-.57,0-.18-.08-.44-.14-.63-.14-.48-.3-1.03.07-1.44.35-.38.97-.34,1.49-.24,2.53-.43,4.24-.22,5.38.67,1.56,1.23,1.7,3.48,1.86,6.08.3,4.76.66,10.66,9.76,13.59,1.08-1.93,1.81-2.67,2.55-2.66.78.03,1.17.86,1.61,1.82.88,1.91,1.74,3.32,4.04,2.58.15-.05.32-.02.45.07.69.49,1.15,1.33,1.52,2.01.14.25.31.56.44.74.02-.03.04-.07.07-.12.09-.17.26-.27.45-.27h0c.19,0,.36.11.45.27,1.62,3.12,2.1,5.52,1.46,7.34-.71,2.02-2.64,2.87-4.19,3.56-1,.44-1.94.86-2.07,1.41-.1.41.2,1.04.89,1.86.04.05.07.1.09.16,2.96,8.44,2.55,9.24-1.63,10.92-.52.21-1.1.44-1.75.73,1.1-.08,2.27-.1,3.43-.13,2.36-.04,5.04-.09,5.6-.83.07-.09.14-.24.05-.55-.07-.26.07-.52.32-.61.76-.27,1.65-.23,2.51-.2.9.04,1.83.08,2.59-.25.53-.41,1.13-1.08,1.77-1.8,1.47-1.65,3-3.35,4.58-3.09.89.15,1.6.9,2.18,2.28,2.43,5.6,3.16,7.52,2.45,8.74-.57.98-1.94,1.13-4.19,1.37-1.24.13-2.76.29-4.58.63.46,1.03.74,1.89.96,2.54.26.8.45,1.38.72,1.5.46.21,1.84-.33,4.05-1.24.13-.05.28-.05.41,0,1.68.77,2.9.94,3.54.47.63-.46.85-1.64.64-3.43-.02-.19.07-.38.23-.48.23-.15.49-.29.76-.41-.46-.17-.76-.51-.84-.98-.02-.09,0-.19.03-.28.56-1.34,2.3-1.3,3.04-1.29.05,0,.09,0,.14.02,1.03.31,1.12.87,1.07,1.17-.03.24-.17.46-.37.65,3.92-.31,9.04.97,12.35,2.95,2.69,1.61,4.03,3.5,3.86,5.46,0,.02,0,.05-.01.07-.2.86-.48,2.33-.62,3.45.62-2.09,1.35-3.16,2.35-3.43,1.45-.4,2.91,1.03,4.6,2.7,1.26,1.23,2.68,2.63,4.21,3.38.12.06.21.16.25.28.02.04.03.09.05.13.12-.11.27-.21.48-.25.59-.12,1.32.29,2.32,1.34,2.81.51,2.73,2.04,2.68,2.97-.04.71,0,.71.32.77.38.03.6-.03.67-.09.1-.1.08-.45.06-.71-.03-.46-.08-1.03.4-1.34.5-.33,1.3-.25,3.84,1.09,1.84-.18,2.96-.71,3.86-1.15,2.15-1.04,3.07-1.15,6.53,3.68.05.07.08.14.09.22,1.9,13.4-14,16.18-25.6,18.21-3.89.68-7.57,1.32-10.01,2.25-.17.06-.36.03-.5-.08-.84-.69-1.6-1.48-2.33-2.25-1.39-1.46-2.72-2.84-3.98-2.71-.93.09-1.91.97-2.99,2.67-.09.14-.23.22-.39.24-3.02.21-4.87,1.05-5.49,2.5-.71,1.67.22,4.23,2.56,7.03,2.99,3.58,7.31,6.39,9.87,6.54-1.41-.43-2.98-1.13-4.7-2.19-.21-.13-.29-.39-.21-.62s.33-.36.57-.31c1.78.34,2.81-.06,3.64-.38,1.38-.53,2.34-.75,4.02,1.56,2.19-.55,3.62-.44,4.04.31.22.39.12.85-.28,1.23-.68.66-2.53,1.28-5.24.84.88.78.61,1.81.42,2.53-.23.85-.37,1.36.44,1.82.92-1.12,2.27-1.31,3.77-.52,1.78.94,3.54,3.28,3,4.56-.2.47-.72.93-2.02.66-.03.42-.17.8-.43,1.16-1.56,2.18-7.07,2.68-12.4,3.16-3.12.28-6.07.55-7.37,1.13-7.38,4.91-10.69,3.03-15.7.17-1.23-.7-2.63-1.5-4.21-2.26-1.22-.42-1.87-1.42-2.39-2.23-.36-.56-.67-1.04-.99-1.07-.25-.02-.77.18-1.76,1.27-.02.02-.04.04-.07.06-.06.04-.1.08-.12.11.08.07.21.17.31.24.36.26.82.59.87,1.14,0,.09,0,.18-.04.26-.28.62.23,1.69.6,2.47.14.29.27.56.35.79.02.05.03.09.03.14,1.48-.57,3.98.25,6.91,2.3.04.03.08.07.11.11.35.47,1.08.61,1.85.76,1.14.23,2.56.51,2.8,2.12.04.27-.14.52-.4.57-1.49.29-2.86.43-4.1.43ZM480.59,186.94c-.49,0-.82.12-1,.28-.43.36-.19.98-.07,1.23.81,1.68,4.27,3.71,10.52,2.63-.29-.47-.9-.62-1.84-.81-.85-.17-1.82-.36-2.41-1.08-2.49-1.73-4.19-2.24-5.2-2.24ZM435.57,181.25s.03,0,.05,0c4.05.41,7.29.67,10.16.89,11.59.92,15.12,1.2,29.28,8.64.44-.14,1.18-.39,1.63-.58-.22-.21-.44-.51-.46-.98-.03-.83.66-1.86,2.16-3.23-.05-.12-.12-.25-.18-.39-.43-.9-1-2.11-.69-3.12-.08-.11-.31-.27-.43-.36-.34-.25-.77-.55-.77-1.05,0-.46.36-.77.53-.9,1.05-1.14,1.84-1.63,2.57-1.56.82.07,1.28.78,1.76,1.53.48.75.99,1.53,1.88,1.83.02,0,.04.02.06.02,1.63.79,3.05,1.59,4.3,2.31,5.02,2.86,7.79,4.44,14.67-.16.02-.02.05-.03.07-.04,1.45-.67,4.37-.93,7.74-1.24,4.63-.42,10.38-.94,11.67-2.74.24-.34.3-.69.2-1.13-.04-.18.01-.37.15-.49s.33-.17.5-.11c.99.32,1.43.24,1.49.1.21-.49-.88-2.39-2.54-3.27-1.17-.62-2.08-.44-2.71.53-.13.21-.4.29-.62.19-2.02-.85-1.64-2.26-1.39-3.19.25-.91.32-1.33-.44-1.73-3.12.52-8.36-3.1-11.49-6.86-1.52-1.82-3.9-5.3-2.71-8.08.76-1.78,2.81-2.83,6.09-3.1,1.22-1.87,2.37-2.8,3.61-2.93,1.77-.19,3.25,1.38,4.81,3.02.64.68,1.31,1.37,2.01,1.98,2.52-.9,6.11-1.53,9.91-2.19,11.78-2.06,26.43-4.63,24.79-16.95-3.08-4.27-3.53-4.05-5.19-3.25-.95.46-2.24,1.08-4.36,1.26-.1,0-.2-.01-.28-.06-2.04-1.08-2.7-1.22-2.9-1.2,0,.1,0,.29.01.41.03.46.08,1.08-.36,1.51-.32.32-.82.44-1.52.37-1.29-.22-1.23-1.23-1.2-1.83.05-.86.09-1.6-2-1.94-.11-.02-.21-.07-.29-.15-1.12-1.19-1.49-1.17-1.5-1.16-.02.03-.08.18-.11.26-.07.18-.2.54-.61.55h0c-.43,0-.61-.38-.89-1.13-1.61-.84-3.03-2.24-4.3-3.48-1.41-1.38-2.74-2.69-3.61-2.44-.47.13-1.17.83-1.83,3.41,0,.04-.02.07-.04.11-.3.57-.74,1.44-1.38,1.2-.48-.18-.82-1.35.26-5.91.11-1.51-1.08-3.1-3.37-4.46-4.59-2.75-11.79-3.69-14.85-2.01.19,2.05-.16,3.37-1.09,4.04-.95.69-2.37.6-4.35-.28-2.79,1.15-3.86,1.51-4.66,1.14-.67-.31-.9-1.02-1.26-2.1-.26-.79-.58-1.77-1.18-3.01-.07-.14-.07-.31,0-.45.07-.14.2-.24.35-.27,2.15-.43,3.9-.62,5.31-.77,1.87-.2,3.11-.33,3.42-.87.49-.84-.58-3.39-2.51-7.83-.43-1.02-.9-1.58-1.41-1.67-1.02-.17-2.48,1.45-3.65,2.76-.69.78-1.35,1.51-1.96,1.97-.03.02-.06.04-.09.06-.98.45-2.06.41-3.1.36-.62-.03-1.22-.05-1.73.04,0,.41-.15.72-.29.91-.85,1.14-3.42,1.19-6.39,1.24-2.35.04-4.95.09-6.51.72-.34.21-.69.43-1.05.68-.22.15-.51.11-.67-.09-.17-.2-.16-.49.03-.68.32-.33.74-.59,1.22-.8,1.99-1.21,3.65-1.88,4.91-2.39,3.43-1.38,3.88-1.56,1.08-9.55-.89-1.07-1.22-1.92-1.04-2.67.24-1.05,1.41-1.56,2.65-2.11,1.44-.64,3.08-1.36,3.65-2.97.49-1.39.13-3.37-1.07-5.87-.11.06-.23.1-.37.1-.61.01-.93-.6-1.35-1.36-.28-.51-.62-1.13-1.04-1.52-3.13.85-4.3-1.68-5-3.2-.2-.44-.54-1.18-.73-1.23-.05,0-.51.07-1.82,2.5-.12.21-.36.31-.59.24-10.15-3.09-10.56-9.76-10.87-14.62-.15-2.36-.27-4.4-1.48-5.34-.89-.7-2.42-.85-4.67-.46-.06.01-.13,0-.19,0-.32-.07-.49-.07-.59-.07.02.12.07.31.11.44.15.52.38,1.32-.2,1.84-.11.1-.26.15-.41.13-1.27-.17-1.52.07-1.56.12-.21.28.27,1.3.58,1.97.27.58.55,1.18.68,1.74.04.16,0,.32-.11.44-.83.99-1.68,2.27-2.58,3.63-2.73,4.14-5.84,8.83-10.49,8.33-.19-.02-.35-.15-.42-.32-.81-2.1.56-4.34,1.76-6.32.99-1.63,1.93-3.18,1.57-4.35-.2-.64-.8-1.18-1.83-1.65-.19-.09-.31-.28-.3-.49.04-.94.18-1.85.84-2.16.31-.15.64-.12.95,0-.39-1.86-1.85-4.32-3.07-4.56-.56-.11-1.05.35-1.46,1.39-4.3,13.97-11.87,25.48-20.77,31.55-.21.19-.41.38-.6.55.29.01.59.1.84.3.44.34.63.95.58,1.8,0,.1-.04.19-.1.27-.63.84-1.43.54-1.96.34-.74-.28-1.38-.52-2.41.76-1.16,2.62-2.89,3.62-3.93,4.22-.3.18-.77.44-.79.56,0,0,0,.03.03.12.79-.09,1.35.09,1.67.55.81,1.19-.44,3.6-2.72,7.11-.2.31-.36.56-.47.73-.2.47-.24,1.09-.29,1.74-.09,1.19-.19,2.53-1.3,3.34-.02.02-.05.03-.08.05-4.87,2.36-5.1,2.66-6.23,8.06-.75,3.18-2.35,5.08-4.76,5.65-2.02.48-4.18-.03-5.93-.44-.91-.21-2.15-.51-2.38-.31,0,0-.03.06-.02.21.01.19-.08.37-.25.47-.2.12-.79.47-1.26.1-.58-.45-.32-1.43.18-3.11.12-.41.29-.96.37-1.35-.08.06-.17.14-.28.24-1.23,2.68-1.55,3.38-1.72,3.59h.01c-.75.65-1.57,1.26-2.36,1.86-2.78,2.09-5.64,4.24-6.19,7.66,0,0,.02-.02.03-.03.3-.29.7-.68,1.18-.48.46.18.59.75.63,1.56,2.47,3.38,5.4,3.55,7.16,3.65.9.05,1.54.09,1.78.63.23.53-.14,1.14-.97,2.12-.3,4.97-1.04,5.49-2.81,6.27-.87.38-2.01.89-3.52,2.54,5.07-.29,8.06.39,9.36,2.12,1.63,2.18.36,5.5-1.11,9.34-1.36,3.56-2.9,7.59-2.27,11.24l.14.49q.98,3.45,3.41,5.25c.29.21.61.45.96.72.04.03.08.07.11.12.71,1.02-.12,2.97-1,5.02-.38.88-.94,2.18-.93,2.65.17-.03.6-.16,1.55-.74,1.1-1.45,2.5-2.79,4.62-2.11.82-.79,1.37-2.66,1.82-4.18.56-1.88.96-3.23,1.89-3.3.61-.03,1.11.47,1.7,1.7,3.09.09,4.33,1.52,5.15,2.48.45.53.72.82,1.06.83,0,0,.01,0,.02,0,.85,0,2.5-1.58,3.69-2.8,1.08-1.77,2.8-1.48,4.47-1.21,1.61.27,3.28.54,4.89-.66.17-.13.41-.13.59,0,1.34.93,2.09,1.84,2.68,2.57,1.05,1.29,1.42,1.74,3.93.73,1.05-2.16,1.9-3.16,2.82-3.35.9-.18,1.59.43,2.33,1.08,1.38,1.22,2.81,2.48,6.12-.24.09-.08.21-.12.32-.12ZM477.34,181.11h0ZM513.09,168.05c3.51,1.73,6.34,1.84,7.94,1.29.46-.16.68-.33.78-.43-.27-.12-1.18-.25-3.16.29-.21.06-.43-.02-.55-.2-1.46-2.1-1.92-1.92-3.03-1.49-.52.2-1.14.44-1.97.54ZM503.09,113.85s.14.1.32.12c.67.09,1.57-.27,1.84-.53-.05-.03-.12-.06-.24-.1-.78,0-1.59.05-1.93.51ZM526.41,179.01s-.02,0-.04,0c-.14,0-.26-.07-.35-.18-1.27-1.5-1.87-2.44-1.47-3.14.43-.73,1.68-.65,4-.22.03,0,.07.02.1.03,1.14.47,1.89.91,1.84,1.56-.05.71-.94.94-2.07,1.23-.63.16-1.42.37-1.69.6-.09.08-.21.13-.34.13ZM525.45,176.21c.02.15.2.56,1.07,1.63.46-.23,1.07-.38,1.67-.54.36-.09.86-.22,1.15-.34-.16-.11-.46-.28-1.01-.5-2.05-.38-2.68-.33-2.87-.25ZM468.11,77.26c-1.28,0-2.69-.41-3.78-1.56-.1-.11-.15-.25-.14-.39.13-1.44,1.93-1.44,3-1.44.29,0,.57,0,.74-.02.55-.2.84-.35,1-.44-.17-.09-.42-.2-.59-.27-.69-.29-1.4-.59-1.46-1.22-.05-.58.5-.94.68-1.06.07-.05.15-.08.23-.08,1.89-.17,2.25-.48,2.3-.54.18-.21.5-.23.71-.05,1.97,1.7,2.14,3.17,1.93,4.12-.28,1.26-1.45,2.31-3.04,2.75-.48.13-1.02.21-1.59.21ZM465.29,75.21c1.24,1.12,2.93,1.19,4.15.85,1.23-.34,2.12-1.1,2.32-2,.2-.88-.25-1.86-1.3-2.86-.49.26-1.27.44-2.42.55-.03.02-.05.04-.07.06.17.12.54.28.78.38.67.28,1.37.58,1.35,1.21-.02.62-.76,1.01-1.86,1.41-.03,0-.05.02-.08.02-.25.04-.58.04-.95.04-.84,0-1.66.03-1.91.33ZM469.12,73.53h0,0ZM452.17,55.47s-.02,0-.03,0c-.21-.01-.38-.15-.45-.35-1.02-3.09-.88-6.27.37-8.5.95-1.68,2.51-2.83,4.52-3.31,2.42-1.24,3.86-.78,4.64-.17,1.36,1.06,1.57,3.19,1.18,4.84-.43,1.79-1.51,3.06-2.84,3.32l-.47.12c-2.85.72-5.3,1.33-6.47,3.76-.08.18-.26.29-.46.29ZM459.34,43.55c-.66,0-1.45.23-2.34.7-.04.02-.08.03-.12.04-1.78.41-3.11,1.36-3.93,2.83-.97,1.73-1.18,4.12-.6,6.58,1.5-2,3.94-2.62,6.51-3.26l.49-.12c1.14-.22,1.81-1.47,2.07-2.57.38-1.57.04-3.14-.81-3.8-.34-.27-.77-.4-1.26-.4ZM456.76,43.8h0,0ZM442.49,51.45c-.24,0-.42-.07-.57-.22-.63-.6.03-1.8,1.14-3.7.33-.56.63-1.08.73-1.34.06-.16.2-.28.37-.32,1.49-.32,3.43-1.26,4.39-2.93.08-.15.24-.24.4-.25.17-.01.33.06.44.19,1,1.28,1.34,2.14,1.11,2.8-.25.69-1.01.85-1.62.99-.24.05-.69.15-.76.25h0s-.04.19.35.75c.13.19.11.45-.04.63-.24.27-.73.36-1.9.56-.58.1-1.7.29-2.17.49.08.05.2.12.37.21.16.08.27.24.28.43s-.08.36-.23.46c-1.07.69-1.78,1.01-2.28,1.01ZM443.2,49.35c-.21.4-.39.78-.47,1.03.16-.05.41-.16.81-.39-.18-.17-.33-.39-.34-.65ZM444.63,46.8c-.16.33-.41.76-.69,1.24-.09.16-.21.35-.33.56.51-.35,1.45-.53,2.74-.75.3-.05.67-.11.95-.17-.17-.36-.27-.77-.12-1.15.24-.59.9-.74,1.48-.86.33-.07.82-.18.88-.34.02-.06.08-.36-.53-1.26-.99,1.29-2.57,2.28-4.38,2.73Z"/>
    </g>
  </g>
  <g>
    <path class="st16" d="M-137.19,150.29c2.78-6.77-.97-13.87-2.29-20.79,12.4.33,6.26.02,8.67,14.14,1.72,9.92.48,4.29-6.38,6.64ZM-141.54,134.98c3.03,3.47-.82,10.57-5.98,8.22,2.07-2.16-.87-7.04.55-8.78,1.33,2.54,1.9-2.22,5.43.57Z"/>
    <path class="st2" d="M-137.19,150.79c-.14,0-.27-.06-.37-.16-.14-.14-.18-.36-.1-.54,1.96-4.79.51-9.9-.89-14.84-.53-1.86-1.07-3.77-1.43-5.66-.03-.15.01-.31.11-.42.1-.12.25-.18.4-.18h.38c4.9.14,6.74.19,7.65,1.17.7.75.65,1.85.57,3.67-.09,2.03-.23,5.1.56,9.72.75,4.33.96,5.73.33,6.4-.43.46-1.08.39-1.91.3-1.1-.12-2.77-.3-5.13.51-.05.02-.11.03-.16.03ZM-138.86,130.03c.35,1.64.82,3.32,1.29,4.95,1.36,4.79,2.76,9.72,1.21,14.53,2.06-.53,3.55-.37,4.58-.26.41.05.97.11,1.06.01.31-.33-.14-2.98-.59-5.53-.81-4.74-.67-7.87-.57-9.94.07-1.55.11-2.49-.29-2.93-.61-.66-2.65-.72-6.68-.83ZM-145.48,144.17c-.7,0-1.46-.16-2.25-.52-.15-.07-.26-.2-.29-.37-.03-.16.02-.33.13-.45.94-.98.62-2.79.31-4.54-.3-1.66-.58-3.23.22-4.21.11-.13.27-.2.45-.18.17.02.32.12.4.27.24.46.37.5.38.5s0,0,0,0c.09,0,.36-.2.53-.32.8-.58,2.13-1.56,4.39.22.02.02.05.04.07.06,1.87,2.14,1.35,5.28-.13,7.28-.91,1.22-2.38,2.25-4.2,2.25ZM-146.72,142.96c1.74.54,3.43-.05,4.61-1.65,1.2-1.62,1.68-4.25.21-5.97-1.62-1.27-2.38-.71-3.12-.17-.41.3-.84.61-1.36.49-.18-.04-.33-.13-.47-.24-.1.72.08,1.72.26,2.7.3,1.65.62,3.49-.14,4.83Z"/>
  </g>
  <path class="st14" d="M372.72,102.98"/>
  <path class="st14" d="M397.57,126"/>
</svg>